<?xml version="1.0" standalone="no"?>
<!DOCTYPE svg PUBLIC "-//W3C//DTD SVG 20010904//EN"
 "http://www.w3.org/TR/2001/REC-SVG-20010904/DTD/svg10.dtd">
<svg version="1.0" xmlns="http://www.w3.org/2000/svg"
 width="1258.000000pt" height="836.000000pt" viewBox="0 0 1258.000000 836.000000"
 preserveAspectRatio="xMidYMid meet">

<g transform="translate(0.000000,836.000000) scale(0.100000,-0.100000)"
fill="#000000" stroke="none">
<path d="M375 7928 c-3 -7 -4 -1687 -3 -3733 l3 -3720 2485 0 2485 0 0 3730 0
3730 -2483 3 c-1981 2 -2484 0 -2487 -10z m532 -873 c2 -6 -11 -10 -29 -10
-50 0 -48 -27 6 -65 52 -35 61 -69 24 -94 -30 -22 -61 -20 -83 4 -22 24 -13
26 20 4 19 -13 27 -13 44 -2 33 20 26 52 -15 74 -51 26 -62 46 -44 79 11 20
20 25 44 23 16 -2 31 -8 33 -13z m1155 -2 c27 -24 22 -38 -7 -19 -39 25 -90
21 -114 -10 -38 -49 -21 -109 38 -133 24 -10 34 -10 60 3 36 19 43 56 11 56
-11 0 -20 5 -20 11 0 18 64 6 68 -14 5 -27 -51 -77 -88 -77 -96 0 -144 102
-79 168 25 26 40 32 72 32 24 0 48 -7 59 -17z m1271 -68 c41 -110 42 -114 15
-83 -25 29 -88 43 -96 20 -6 -20 -41 -58 -42 -45 0 6 9 32 20 57 11 25 29 67
40 93 12 25 24 42 29 37 4 -5 19 -40 34 -79z m1553 73 c5 -8 0 -9 -15 -5 -21
5 -51 -14 -51 -33 0 -10 54 -50 67 -50 6 0 14 -10 20 -22 13 -28 -2 -64 -28
-71 -18 -5 -18 -4 0 20 25 31 18 48 -30 75 -30 17 -39 28 -39 48 0 14 5 31 12
38 15 15 55 16 64 0z m-3468 -92 c2 -43 -2 -77 -8 -81 -7 -4 -10 25 -10 87 0
108 15 103 18 -6z m1232 30 c33 -32 60 -62 60 -68 0 -5 5 -6 10 -3 6 3 10 33
10 66 0 33 4 59 10 59 6 0 10 -36 9 -90 0 -49 -2 -90 -4 -90 -1 0 -33 32 -71
70 -37 39 -71 70 -76 70 -4 0 -8 -29 -8 -65 0 -37 -4 -65 -10 -65 -6 0 -10 37
-10 91 0 53 4 89 10 87 5 -1 36 -29 70 -62z m1190 -26 c0 -73 2 -80 20 -80 11
0 20 -5 20 -11 0 -6 -12 -9 -27 -7 -28 3 -28 3 -31 91 -2 55 1 87 8 87 6 0 10
-31 10 -80z m1000 -90 c0 -14 -28 -1 -34 16 -4 12 -2 12 14 4 11 -6 20 -15 20
-20z m-1968 -1380 c63 -125 72 -149 64 -172 -10 -29 5 -58 30 -58 18 0 59 -57
74 -102 17 -56 30 -46 30 22 l0 60 33 0 c27 0 37 -7 60 -42 15 -23 27 -51 27
-63 0 -11 7 -33 15 -49 31 -59 22 -83 -64 -165 -166 -159 -210 -186 -275 -171
-41 9 -49 14 -107 62 -26 21 -51 38 -57 38 -5 0 -32 24 -58 53 -34 37 -53 69
-62 103 -8 27 -18 60 -23 73 -10 25 -3 61 12 61 17 0 51 38 44 49 -3 6 -16 11
-29 11 -33 0 -46 19 -46 64 l1 41 15 -28 c11 -21 20 -26 35 -22 11 4 19 2 19
-4 0 -14 137 -15 145 -1 3 6 14 10 24 10 10 0 25 8 35 19 15 17 15 21 -2 62
-26 59 -36 66 -117 76 l-70 8 3 40 c2 22 8 44 13 50 5 5 9 17 9 27 0 10 7 21
15 24 8 4 15 16 15 27 0 20 0 20 15 1 8 -10 15 -14 15 -7 0 6 16 17 35 23 21
7 35 18 35 28 0 28 16 2 92 -148z m-242 -110 c11 -7 12 -12 3 -21 -13 -13 -33
-4 -33 17 0 16 9 18 30 4z m48 -62 c-5 -15 -68 -24 -68 -10 0 14 7 18 40 20
22 2 31 -1 28 -10z m382 -3 c0 -8 -7 -15 -15 -15 -16 0 -20 12 -8 23 11 12 23
8 23 -8z m328 -95 c-3 -9 -9 -8 -21 4 -9 10 -14 22 -11 28 4 6 12 4 21 -5 9
-8 13 -21 11 -27z m-21 -52 c-3 -8 -6 -5 -6 6 -1 11 2 17 5 13 3 -3 4 -12 1
-19z m-567 -533 c0 -8 -4 -15 -9 -15 -13 0 -22 16 -14 24 11 11 23 6 23 -9z
m191 2 c-1 -12 -15 -9 -19 4 -3 6 1 10 8 8 6 -3 11 -8 11 -12z m-191 -122 c0
-8 -4 -15 -9 -15 -13 0 -22 16 -14 24 11 11 23 6 23 -9z m190 0 c0 -8 -4 -15
-10 -15 -5 0 -10 7 -10 15 0 8 5 15 10 15 6 0 10 -7 10 -15z m691 -421 c11
-13 8 -19 -17 -39 -38 -31 -58 -31 -79 1 -9 14 -15 27 -13 28 35 28 89 33 109
10z m-1470 -84 c15 -8 18 -17 13 -38 -9 -36 -8 -36 -43 -17 -35 17 -35 19 -21
46 12 22 23 24 51 9z m299 -800 c0 -13 -9 -22 -27 -26 -16 -4 -33 -11 -40 -16
-18 -15 -33 0 -33 33 0 28 1 29 50 29 43 0 50 -3 50 -20z m665 0 c15 -47 -43
-61 -87 -22 -33 28 -22 42 31 42 41 0 51 -3 56 -20z m-17 -972 c14 -14 16 -68
3 -68 -6 0 -13 5 -16 10 -3 6 -20 10 -36 10 -31 0 -46 19 -35 45 7 18 67 20
84 3z m-757 -28 c5 0 9 -11 9 -24 0 -17 -9 -27 -30 -36 -36 -15 -60 -7 -60 19
0 23 39 54 58 46 8 -3 18 -5 23 -5z m946 -31 c6 -6 9 -17 7 -24 -3 -7 -1 -16
5 -20 6 -3 11 -19 11 -34 0 -15 4 -31 9 -36 5 -6 11 -29 14 -51 5 -40 3 -42
-35 -63 -22 -11 -43 -21 -47 -21 -4 0 -12 21 -20 48 -7 26 -17 57 -22 70 -5
13 -9 34 -9 47 0 13 -4 26 -8 29 -16 9 -6 49 14 57 29 11 69 10 81 -2z m1280
-1102 c5 -31 3 -37 -12 -37 -12 0 -16 6 -12 20 3 10 0 21 -5 22 -6 2 -8 13 -3
27 9 30 24 15 32 -32z m-72 14 c-3 -17 -2 -32 4 -36 6 -3 11 -15 11 -26 0 -18
-10 -23 -37 -20 -7 1 -21 -3 -32 -9 -30 -16 -51 -2 -51 34 0 18 -6 38 -12 44
-10 10 -10 15 2 22 22 14 34 7 41 -27 8 -39 17 -53 35 -53 16 0 19 37 4 60
-10 17 5 40 27 40 11 0 13 -7 8 -29z m-157 -33 c-1 -18 0 -40 3 -48 5 -20 -38
-19 -68 0 -16 11 -23 25 -23 47 0 32 1 33 45 33 44 0 45 0 43 -32z"/>
<path d="M3281 7002 c-18 -34 -13 -52 14 -52 29 0 30 7 11 45 -14 26 -15 26
-25 7z"/>
<path d="M2800 5225 c-24 -29 5 -45 85 -45 52 0 76 4 85 15 24 29 -5 45 -85
45 -52 0 -76 -4 -85 -15z"/>
<path d="M5530 7860 l0 -50 275 0 275 0 0 -880 0 -880 -275 0 -275 0 0 -50 0
-50 275 0 275 0 0 -1070 0 -1070 -275 0 -275 0 0 -50 0 -50 275 0 275 0 0
-1570 0 -1570 -275 0 -275 0 0 -50 0 -50 320 0 320 0 0 3720 0 3720 -320 0
-320 0 0 -50z"/>
<path d="M6484 7741 c-79 -34 -96 -188 -29 -251 57 -53 143 -20 166 62 30 114
-51 225 -137 189z m71 -27 c65 -25 57 -203 -10 -220 -64 -16 -105 27 -105 111
0 89 48 134 115 109z"/>
<path d="M6670 7605 c0 -122 2 -145 15 -145 12 0 15 15 15 79 0 85 10 105 52
99 22 -3 23 -8 26 -90 2 -69 6 -88 17 -88 12 0 15 16 15 74 0 41 -4 86 -10
100 -12 34 -54 44 -80 21 -20 -18 -20 -17 -20 38 0 44 -3 57 -15 57 -13 0 -15
-23 -15 -145z"/>
<path d="M7030 7605 c0 -122 2 -145 15 -145 12 0 15 15 15 79 0 85 10 105 52
99 22 -3 23 -8 26 -90 2 -69 6 -88 17 -88 12 0 15 16 15 74 0 41 -4 86 -10
100 -12 34 -54 44 -80 21 -20 -18 -20 -17 -20 38 0 44 -3 57 -15 57 -13 0 -15
-23 -15 -145z"/>
<path d="M7930 7605 c0 -122 2 -145 15 -145 13 0 15 23 15 145 0 122 -2 145
-15 145 -13 0 -15 -23 -15 -145z"/>
<path d="M8330 7605 c0 -122 2 -145 15 -145 8 0 15 7 15 16 0 14 1 14 16 0 21
-22 38 -20 70 8 24 20 28 31 28 81 1 50 -2 59 -27 81 -33 28 -50 30 -71 8 -15
-14 -16 -10 -16 40 0 43 -3 56 -15 56 -13 0 -15 -23 -15 -145z m110 16 c5 -11
10 -36 10 -56 0 -49 -16 -75 -45 -75 -29 0 -45 26 -45 75 0 49 16 75 45 75 14
0 29 -8 35 -19z"/>
<path d="M8520 7730 c0 -11 7 -20 15 -20 8 0 15 9 15 20 0 11 -7 20 -15 20 -8
0 -15 -9 -15 -20z"/>
<path d="M9200 7730 c0 -11 7 -20 15 -20 8 0 15 9 15 20 0 11 -7 20 -15 20 -8
0 -15 -9 -15 -20z"/>
<path d="M9630 7605 c0 -122 2 -145 15 -145 12 0 15 15 15 79 0 85 10 105 52
99 22 -3 23 -8 26 -90 2 -72 6 -88 18 -88 14 0 15 14 12 91 -2 76 -6 93 -22
105 -26 18 -51 18 -70 -2 -15 -14 -16 -10 -16 40 0 43 -3 56 -15 56 -13 0 -15
-23 -15 -145z"/>
<path d="M9810 7730 c0 -11 7 -20 15 -20 8 0 15 9 15 20 0 11 -7 20 -15 20 -8
0 -15 -9 -15 -20z"/>
<path d="M10980 7743 c-18 -7 -37 -31 -43 -55 -8 -27 18 -21 31 7 9 19 19 25
41 25 54 0 68 -59 26 -108 -32 -38 -45 -92 -21 -92 10 0 16 8 16 21 0 11 11
35 24 52 33 44 40 73 26 106 -16 40 -61 59 -100 44z"/>
<path d="M6957 7723 c-4 -3 -7 -17 -7 -30 0 -12 -4 -23 -10 -23 -5 0 -10 -7
-10 -15 0 -8 5 -15 10 -15 6 0 10 -30 10 -71 0 -39 5 -79 10 -90 13 -22 50
-26 50 -4 0 8 -7 15 -15 15 -12 0 -15 15 -15 75 0 60 3 75 15 75 8 0 15 7 15
15 0 8 -7 15 -15 15 -10 0 -15 10 -15 30 0 29 -9 38 -23 23z"/>
<path d="M9557 7723 c-4 -3 -7 -17 -7 -30 0 -12 -4 -23 -10 -23 -5 0 -10 -7
-10 -15 0 -8 5 -15 10 -15 6 0 10 -30 10 -71 0 -39 5 -79 10 -90 13 -22 50
-26 50 -4 0 8 -7 15 -15 15 -12 0 -15 15 -15 75 0 60 3 75 15 75 8 0 15 7 15
15 0 8 -7 15 -15 15 -10 0 -15 10 -15 30 0 29 -9 38 -23 23z"/>
<path d="M7233 7646 c-24 -21 -27 -31 -27 -81 0 -50 3 -60 27 -81 37 -32 62
-30 99 7 25 25 28 33 17 39 -10 7 -18 2 -27 -15 -22 -43 -92 -24 -92 26 0 17
7 19 66 19 l67 0 -7 33 c-7 36 -47 77 -76 77 -10 0 -31 -11 -47 -24z m85 -18
c26 -26 13 -38 -38 -38 -54 0 -55 1 -40 31 12 22 59 26 78 7z"/>
<path d="M7390 7565 c0 -84 3 -105 14 -105 11 0 15 20 18 88 4 102 1 122 -18
122 -11 0 -14 -22 -14 -105z"/>
<path d="M7437 7664 c-14 -14 -7 -25 13 -22 12 2 21 8 21 13 0 12 -24 18 -34
9z"/>
<path d="M7523 7646 c-24 -21 -27 -31 -27 -81 0 -50 3 -60 27 -81 37 -32 62
-30 99 7 25 25 28 33 17 39 -10 7 -18 2 -27 -15 -22 -43 -92 -24 -92 26 0 17
7 19 66 19 l66 0 -7 33 c-7 36 -47 77 -75 77 -10 0 -31 -11 -47 -24z m85 -18
c26 -26 13 -38 -38 -38 -54 0 -55 1 -40 31 12 22 59 26 78 7z"/>
<path d="M7703 7660 c-25 -10 -38 -43 -25 -66 5 -10 29 -25 53 -33 36 -14 44
-21 44 -41 0 -21 -5 -25 -30 -25 -20 0 -33 7 -40 22 -14 28 -35 16 -24 -14 18
-49 85 -54 115 -7 24 37 7 68 -48 85 -32 10 -43 19 -43 34 0 29 61 35 70 6 3
-12 12 -18 20 -15 20 8 -1 51 -29 58 -27 7 -36 7 -63 -4z"/>
<path d="M8027 7650 c-33 -26 -45 -95 -25 -136 20 -43 58 -61 95 -45 35 14 60
56 39 64 -8 3 -18 -5 -25 -19 -19 -43 -91 -20 -91 29 0 14 11 17 66 17 l67 0
-7 33 c-7 35 -47 77 -75 77 -10 0 -30 -9 -44 -20z m81 -22 c26 -26 13 -38 -38
-38 -54 0 -55 1 -40 31 12 22 59 26 78 7z"/>
<path d="M8203 7660 c-25 -10 -38 -43 -25 -66 5 -10 29 -25 53 -33 36 -14 44
-21 44 -41 0 -21 -5 -25 -30 -25 -20 0 -33 7 -40 22 -15 28 -35 16 -24 -15 20
-52 112 -50 125 4 9 34 -8 55 -57 73 -32 12 -44 22 -44 36 0 29 58 34 71 6 6
-14 13 -18 23 -12 11 7 9 14 -12 35 -27 27 -47 31 -84 16z"/>
<path d="M8520 7565 c0 -87 3 -105 15 -105 12 0 15 18 15 105 0 87 -3 105 -15
105 -12 0 -15 -18 -15 -105z"/>
<path d="M8604 7645 c-21 -21 -24 -29 -13 -35 8 -6 18 -2 27 11 19 27 77 23
77 -6 0 -15 -10 -21 -43 -28 -50 -10 -78 -43 -68 -82 10 -38 46 -51 86 -32 27
14 32 14 37 1 13 -35 23 -7 23 69 0 96 -9 115 -62 123 -31 5 -41 2 -64 -21z
m96 -99 c0 -33 -27 -58 -59 -54 -21 2 -26 8 -26 33 0 23 6 31 25 36 48 13 60
10 60 -15z"/>
<path d="M8770 7565 c0 -87 3 -105 15 -105 12 0 15 15 15 79 0 85 10 105 52
99 22 -3 23 -8 26 -90 2 -69 6 -88 17 -88 12 0 15 16 15 74 0 41 -4 86 -9 99
-13 33 -46 43 -76 23 -22 -15 -25 -15 -25 -1 0 8 -7 15 -15 15 -12 0 -15 -18
-15 -105z"/>
<path d="M8973 7660 c-25 -10 -38 -43 -25 -66 5 -10 29 -25 53 -33 36 -14 44
-21 44 -41 0 -21 -5 -25 -30 -25 -20 0 -33 7 -40 22 -15 28 -35 16 -24 -15 20
-52 112 -50 125 4 9 34 -9 57 -58 74 -31 11 -43 21 -43 35 0 29 64 35 72 6 3
-11 11 -17 18 -15 19 8 6 40 -21 53 -29 13 -41 13 -71 1z"/>
<path d="M9200 7565 c0 -87 3 -105 15 -105 12 0 15 18 15 105 0 87 -3 105 -15
105 -12 0 -15 -18 -15 -105z"/>
<path d="M9270 7565 c0 -87 3 -105 15 -105 12 0 15 15 15 79 0 85 10 105 52
99 22 -3 23 -8 26 -90 2 -69 6 -88 17 -88 12 0 15 16 15 74 0 41 -4 86 -9 99
-13 33 -46 43 -76 23 -22 -15 -25 -15 -25 -1 0 8 -7 15 -15 15 -12 0 -15 -18
-15 -105z"/>
<path d="M9810 7565 c0 -87 3 -105 15 -105 12 0 15 18 15 105 0 87 -3 105 -15
105 -12 0 -15 -18 -15 -105z"/>
<path d="M9903 7660 c-25 -10 -38 -43 -25 -66 5 -10 29 -25 53 -33 36 -14 44
-21 44 -41 0 -21 -5 -25 -30 -25 -20 0 -33 7 -40 22 -14 28 -35 16 -24 -14 8
-23 38 -43 63 -43 8 0 27 11 43 24 24 21 26 27 18 52 -8 21 -22 32 -55 44 -33
11 -45 21 -45 35 0 29 64 35 72 6 3 -11 11 -17 18 -15 19 8 6 40 -21 53 -29
13 -41 13 -71 1z"/>
<path d="M10157 7650 c-48 -38 -45 -136 6 -174 22 -16 31 -18 52 -8 23 11 25
10 25 -11 0 -48 -60 -65 -93 -26 -22 25 -33 19 -18 -10 29 -54 104 -51 127 5
20 49 20 244 -1 244 -8 0 -15 -7 -15 -16 0 -14 -1 -14 -16 0 -21 21 -36 20
-67 -4z m73 -29 c5 -11 10 -36 10 -56 0 -49 -16 -75 -45 -75 -29 0 -45 26 -45
75 0 49 16 75 45 75 14 0 29 -8 35 -19z"/>
<path d="M10343 7660 c-29 -12 -48 -46 -30 -53 8 -3 19 4 26 15 17 27 76 22
76 -7 0 -15 -10 -21 -43 -28 -28 -5 -48 -17 -58 -33 -37 -55 20 -114 77 -81
26 14 31 15 35 2 4 -8 11 -15 16 -15 13 0 6 176 -7 189 -16 16 -67 22 -92 11z
m77 -114 c0 -33 -27 -58 -59 -54 -21 2 -26 8 -26 33 0 23 6 31 25 36 48 13 60
10 60 -15z"/>
<path d="M10490 7565 c0 -85 3 -105 15 -105 11 0 15 18 17 81 3 86 16 110 52
96 13 -5 16 -22 16 -92 0 -68 3 -85 15 -85 11 0 15 18 17 81 3 86 16 110 52
96 13 -5 16 -22 16 -92 0 -69 3 -85 15 -85 12 0 15 15 15 74 0 41 -4 86 -9 99
-13 33 -47 44 -70 23 -17 -15 -21 -15 -49 1 -29 17 -31 17 -51 -1 -19 -17 -21
-17 -21 -3 0 10 -7 17 -15 17 -12 0 -15 -18 -15 -105z"/>
<path d="M10787 7650 c-30 -24 -44 -90 -28 -132 24 -63 101 -74 134 -19 14 24
14 30 3 34 -8 3 -18 -5 -25 -19 -19 -43 -91 -22 -91 27 0 17 7 19 66 19 l67 0
-7 33 c-7 35 -47 77 -75 77 -10 0 -30 -9 -44 -20z m81 -22 c26 -26 13 -38 -38
-38 -54 0 -55 1 -40 31 12 22 59 26 78 7z"/>
<path d="M11000 7475 c0 -8 7 -15 15 -15 8 0 15 7 15 15 0 8 -7 15 -15 15 -8
0 -15 -7 -15 -15z"/>
<path d="M6420 7145 c0 -122 2 -145 15 -145 13 0 15 23 15 145 0 122 -2 145
-15 145 -13 0 -15 -23 -15 -145z"/>
<path d="M6750 7145 c0 -122 2 -145 15 -145 12 0 15 15 15 79 0 85 10 105 52
99 22 -3 23 -8 26 -90 2 -69 6 -88 17 -88 12 0 15 16 15 74 0 41 -4 86 -10
100 -12 34 -54 44 -80 21 -20 -18 -20 -17 -20 38 0 44 -3 57 -15 57 -13 0 -15
-23 -15 -145z"/>
<path d="M7290 7145 c0 -122 2 -145 15 -145 13 0 15 23 15 145 0 122 -2 145
-15 145 -13 0 -15 -23 -15 -145z"/>
<path d="M7470 7233 c0 -55 0 -56 -19 -39 -23 21 -50 15 -77 -15 -13 -15 -18
-36 -18 -76 0 -48 3 -58 27 -79 33 -28 50 -30 71 -8 15 14 16 14 16 0 0 -9 7
-16 15 -16 13 0 15 23 15 145 0 122 -2 145 -15 145 -12 0 -15 -13 -15 -57z
m-10 -72 c5 -11 10 -36 10 -56 0 -49 -16 -75 -45 -75 -29 0 -45 26 -45 75 0
49 16 75 45 75 14 0 29 -8 35 -19z"/>
<path d="M7790 7145 c0 -122 2 -145 15 -145 12 0 15 15 15 79 0 85 10 105 52
99 22 -3 23 -8 26 -90 2 -69 6 -88 17 -88 12 0 15 16 15 74 0 41 -4 86 -10
100 -12 34 -54 44 -80 21 -20 -18 -20 -17 -20 38 0 44 -3 57 -15 57 -13 0 -15
-23 -15 -145z"/>
<path d="M8310 7145 c0 -122 2 -145 15 -145 11 0 15 11 15 43 0 72 14 75 49
13 17 -31 35 -56 41 -56 11 0 4 21 -27 75 -27 47 -29 68 -7 85 20 17 37 50 26
50 -5 0 -26 -21 -46 -47 l-36 -46 0 86 c0 71 -3 87 -15 87 -13 0 -15 -23 -15
-145z"/>
<path d="M8560 7270 c0 -11 7 -20 15 -20 8 0 15 9 15 20 0 11 -7 20 -15 20 -8
0 -15 -9 -15 -20z"/>
<path d="M9274 7213 c3 -42 6 -92 6 -111 0 -68 8 -26 15 81 6 98 5 107 -11
107 -15 0 -16 -8 -10 -77z"/>
<path d="M8647 7263 c-4 -3 -7 -17 -7 -30 0 -12 -4 -23 -10 -23 -5 0 -10 -7
-10 -15 0 -8 5 -15 10 -15 6 0 10 -30 10 -71 0 -39 5 -79 10 -90 13 -22 50
-26 50 -4 0 8 -7 15 -15 15 -12 0 -15 15 -15 75 0 60 3 75 15 75 8 0 15 7 15
15 0 8 -7 15 -15 15 -10 0 -15 10 -15 30 0 29 -9 38 -23 23z"/>
<path d="M9187 7263 c-4 -3 -7 -17 -7 -30 0 -12 -4 -23 -10 -23 -5 0 -10 -7
-10 -15 0 -8 5 -15 10 -15 6 0 10 -30 10 -71 0 -39 5 -79 10 -90 13 -22 50
-26 50 -4 0 8 -7 15 -15 15 -12 0 -15 15 -15 75 0 60 3 75 15 75 8 0 15 7 15
15 0 8 -7 15 -15 15 -10 0 -15 10 -15 30 0 29 -9 38 -23 23z"/>
<path d="M6613 7200 c-25 -10 -38 -43 -25 -66 5 -10 29 -25 53 -33 36 -14 44
-21 44 -41 0 -21 -5 -25 -30 -25 -20 0 -33 7 -40 22 -14 28 -35 16 -24 -14 18
-49 85 -54 115 -7 24 37 7 68 -48 85 -32 10 -43 19 -43 34 0 29 58 34 71 6 6
-14 13 -18 23 -12 11 7 9 14 -12 35 -27 27 -47 31 -84 16z"/>
<path d="M6953 7186 c-24 -21 -27 -31 -27 -81 0 -50 3 -60 27 -81 35 -30 59
-30 93 0 24 20 28 31 28 81 1 50 -2 59 -27 81 -35 30 -59 30 -94 0z m81 -22
c18 -18 21 -85 6 -115 -7 -12 -21 -19 -40 -19 -35 0 -50 23 -50 79 0 43 20 71
50 71 10 0 26 -7 34 -16z"/>
<path d="M7110 7146 c0 -92 9 -126 36 -138 18 -8 29 -7 49 6 22 14 25 14 25 1
0 -8 7 -15 15 -15 12 0 15 18 15 105 0 87 -3 105 -15 105 -12 0 -15 -15 -15
-79 0 -85 -10 -105 -52 -99 -22 3 -23 8 -26 91 -2 68 -6 87 -17 87 -12 0 -15
-15 -15 -64z"/>
<path d="M7657 7190 c-69 -55 -24 -205 55 -185 31 8 64 65 45 77 -7 4 -16 -5
-24 -23 -9 -21 -19 -29 -37 -29 -31 0 -46 25 -46 75 0 20 5 45 10 56 14 25 56
25 72 -1 17 -26 38 -26 31 0 -6 24 -40 50 -64 50 -9 0 -28 -9 -42 -20z"/>
<path d="M7993 7186 c-24 -21 -27 -31 -27 -81 0 -50 3 -60 27 -81 31 -27 45
-29 80 -13 31 14 52 55 33 62 -8 3 -18 -5 -25 -19 -19 -43 -91 -22 -91 27 0
17 7 19 66 19 l67 0 -7 33 c-7 36 -47 77 -76 77 -10 0 -31 -11 -47 -24z m85
-18 c26 -26 13 -38 -38 -38 -54 0 -55 1 -40 31 12 22 59 26 78 7z"/>
<path d="M8177 7190 c-70 -56 -24 -205 57 -184 32 8 63 63 43 76 -7 4 -16 -5
-24 -23 -14 -35 -56 -40 -73 -10 -14 27 -13 94 3 115 17 24 58 17 72 -11 14
-28 35 -16 24 14 -8 23 -38 43 -62 43 -8 0 -26 -9 -40 -20z"/>
<path d="M8560 7105 c0 -87 3 -105 15 -105 12 0 15 18 15 105 0 87 -3 105 -15
105 -12 0 -15 -18 -15 -105z"/>
<path d="M8833 7186 c-24 -21 -27 -31 -27 -81 0 -50 3 -60 27 -81 35 -30 59
-30 93 0 24 20 28 31 28 81 1 50 -2 59 -27 81 -35 30 -59 30 -94 0z m87 -25
c15 -30 12 -92 -7 -113 -20 -22 -41 -23 -65 -1 -23 21 -25 95 -2 117 21 22 61
20 74 -3z"/>
<path d="M8990 7136 c0 -41 4 -86 9 -99 13 -33 46 -43 76 -23 22 15 25 15 25
1 0 -8 7 -15 15 -15 12 0 15 18 15 105 0 87 -3 105 -15 105 -12 0 -15 -15 -15
-78 0 -83 -9 -102 -46 -102 -29 0 -34 17 -34 106 0 59 -3 74 -15 74 -12 0 -15
-15 -15 -74z"/>
<path d="M9270 7015 c0 -8 7 -15 15 -15 8 0 15 7 15 15 0 8 -7 15 -15 15 -8 0
-15 -7 -15 -15z"/>
<path d="M6440 6415 c0 -11 11 -15 40 -15 l40 0 0 -130 c0 -109 2 -130 15
-130 13 0 15 21 15 130 l0 130 40 0 c29 0 40 4 40 15 0 12 -17 15 -95 15 -78
0 -95 -3 -95 -15z"/>
<path d="M6660 6285 c0 -122 2 -145 15 -145 12 0 15 15 15 79 0 85 10 105 52
99 22 -3 23 -8 26 -90 2 -69 6 -88 17 -88 12 0 15 15 15 64 0 92 -9 126 -36
138 -18 8 -29 7 -49 -6 l-25 -16 0 55 c0 42 -3 55 -15 55 -13 0 -15 -23 -15
-145z"/>
<path d="M6840 6410 c0 -11 7 -20 15 -20 8 0 15 9 15 20 0 11 -7 20 -15 20 -8
0 -15 -9 -15 -20z"/>
<path d="M8690 6285 c0 -122 2 -145 15 -145 13 0 15 23 15 145 0 122 -2 145
-15 145 -13 0 -15 -23 -15 -145z"/>
<path d="M8760 6285 c0 -122 2 -145 15 -145 13 0 15 23 15 145 0 122 -2 145
-15 145 -13 0 -15 -23 -15 -145z"/>
<path d="M10020 6285 c0 -122 2 -145 15 -145 8 0 15 7 15 16 0 14 1 14 16 0
21 -22 38 -20 71 8 24 21 27 31 27 79 0 40 -5 61 -18 76 -27 30 -54 36 -77 15
-19 -17 -19 -16 -19 39 0 44 -3 57 -15 57 -13 0 -15 -23 -15 -145z m110 16 c5
-11 10 -36 10 -56 0 -49 -16 -75 -45 -75 -29 0 -45 26 -45 75 0 49 16 75 45
75 14 0 29 -8 35 -19z"/>
<path d="M10750 6285 c0 -122 2 -145 15 -145 13 0 15 23 15 145 0 122 -2 145
-15 145 -13 0 -15 -23 -15 -145z"/>
<path d="M10407 6403 c-4 -3 -7 -17 -7 -30 0 -12 -4 -23 -10 -23 -5 0 -10 -7
-10 -15 0 -8 5 -15 10 -15 6 0 10 -30 10 -71 0 -39 5 -79 10 -90 13 -22 50
-26 50 -4 0 8 -7 15 -15 15 -12 0 -15 15 -15 75 0 60 3 75 15 75 8 0 15 7 15
15 0 8 -7 15 -15 15 -10 0 -15 10 -15 30 0 29 -9 38 -23 23z"/>
<path d="M6840 6245 c0 -87 3 -105 15 -105 12 0 15 18 15 105 0 87 -3 105 -15
105 -12 0 -15 -18 -15 -105z"/>
<path d="M6933 6340 c-25 -10 -38 -43 -25 -66 5 -10 29 -25 53 -33 36 -14 44
-21 44 -41 0 -21 -5 -25 -30 -25 -20 0 -33 7 -40 22 -15 28 -35 16 -24 -15 20
-53 110 -50 123 4 9 36 -7 57 -56 74 -31 11 -43 21 -43 35 0 30 62 34 73 6 5
-14 11 -18 21 -12 11 7 9 14 -12 35 -27 27 -47 31 -84 16z"/>
<path d="M7192 6338 c-51 -25 -51 -143 0 -181 23 -17 31 -19 53 -9 23 11 25
10 25 -11 0 -48 -60 -65 -93 -26 -22 25 -33 19 -18 -10 29 -54 104 -51 127 5
20 49 20 244 -1 244 -8 0 -15 -7 -15 -17 0 -15 -1 -15 -18 0 -21 19 -28 20
-60 5z m68 -37 c5 -11 10 -36 10 -56 0 -49 -16 -75 -45 -75 -29 0 -45 26 -45
75 0 49 16 75 45 75 14 0 29 -8 35 -19z"/>
<path d="M7373 6340 c-28 -12 -48 -46 -30 -53 8 -3 19 4 26 15 17 27 76 22 76
-7 0 -15 -9 -21 -37 -26 -62 -10 -87 -44 -69 -92 13 -34 53 -45 86 -23 23 15
26 15 31 1 3 -8 11 -15 16 -15 6 0 9 35 6 91 -2 76 -6 93 -22 105 -22 16 -50
17 -83 4z m77 -114 c0 -33 -27 -58 -59 -54 -21 2 -26 8 -26 33 0 23 6 31 25
36 48 13 60 10 60 -15z"/>
<path d="M7520 6245 c0 -85 3 -105 15 -105 11 0 15 18 17 81 3 86 16 110 52
96 13 -5 16 -22 16 -92 0 -68 3 -85 15 -85 11 0 15 18 17 81 3 86 16 110 52
96 13 -5 16 -22 16 -92 0 -69 3 -85 15 -85 12 0 15 16 15 85 0 72 -3 88 -20
105 -24 24 -38 25 -60 5 -16 -14 -20 -14 -48 2 -29 17 -31 17 -51 -1 -19 -17
-21 -17 -21 -3 0 10 -7 17 -15 17 -12 0 -15 -18 -15 -105z"/>
<path d="M7813 6326 c-24 -20 -27 -31 -27 -79 0 -59 13 -83 53 -98 32 -13 75
5 89 36 8 18 8 25 -2 28 -8 3 -18 -5 -25 -19 -19 -43 -91 -20 -91 29 0 14 11
17 66 17 l67 0 -7 33 c-7 36 -47 77 -76 77 -10 0 -31 -11 -47 -24z m85 -18
c26 -26 13 -38 -38 -38 -54 0 -55 1 -40 31 12 22 59 26 78 7z"/>
<path d="M7993 6340 c-25 -10 -38 -43 -25 -66 5 -10 29 -25 53 -33 36 -14 44
-21 44 -41 0 -21 -5 -25 -30 -25 -20 0 -33 7 -40 22 -14 28 -35 16 -24 -14 19
-51 101 -54 120 -5 15 40 -2 67 -53 83 -44 15 -63 44 -34 55 24 9 66 -4 66
-21 0 -8 6 -12 14 -9 20 8 8 40 -20 53 -29 13 -41 13 -71 1z"/>
<path d="M8220 6245 c0 -84 3 -105 14 -105 11 0 15 20 18 88 4 102 1 122 -18
122 -11 0 -14 -22 -14 -105z"/>
<path d="M8267 6344 c-14 -14 -7 -25 13 -22 12 2 21 8 21 13 0 12 -24 18 -34
9z"/>
<path d="M8375 6340 c-32 -12 -44 -33 -50 -81 -10 -78 44 -134 104 -109 33 13
57 55 37 63 -8 3 -18 -5 -25 -19 -19 -43 -91 -20 -91 29 0 14 11 17 66 17 l67
0 -7 33 c-6 32 -47 78 -69 76 -7 0 -21 -4 -32 -9z m63 -32 c26 -26 13 -38 -38
-38 -54 0 -55 1 -40 31 12 22 59 26 78 7z"/>
<path d="M8543 6340 c-29 -12 -48 -46 -30 -53 8 -3 19 4 26 15 17 27 76 22 76
-7 0 -15 -10 -21 -43 -28 -50 -10 -78 -43 -68 -82 10 -38 46 -51 86 -32 27 14
32 14 37 1 3 -7 9 -14 14 -14 14 0 11 164 -3 183 -16 21 -65 30 -95 17z m77
-113 c0 -37 -22 -59 -55 -55 -26 3 -30 7 -30 33 0 23 6 31 25 36 47 13 60 10
60 -14z"/>
<path d="M8842 6249 c31 -108 31 -148 -2 -156 -21 -6 -26 -18 -11 -27 19 -12
40 7 56 47 40 108 73 237 60 237 -7 0 -23 -33 -37 -77 l-23 -77 -24 77 c-14
42 -30 77 -37 77 -8 0 -3 -32 18 -101z"/>
<path d="M9103 6340 c-26 -11 -38 -43 -24 -68 6 -11 31 -25 56 -32 41 -12 46
-16 43 -39 -2 -21 -8 -26 -33 -26 -20 0 -33 7 -40 22 -15 28 -35 16 -24 -15
20 -53 110 -50 123 4 9 36 -6 55 -55 73 -32 12 -44 22 -44 36 0 29 64 35 72 6
3 -11 11 -17 18 -15 19 8 6 40 -21 53 -29 13 -41 13 -71 1z"/>
<path d="M9267 6330 c-71 -56 -25 -205 57 -184 32 8 63 63 43 76 -7 4 -16 -5
-24 -23 -14 -35 -56 -40 -73 -10 -14 27 -13 94 3 115 17 24 58 17 72 -11 14
-28 35 -16 24 14 -8 23 -38 43 -62 43 -8 0 -26 -9 -40 -20z"/>
<path d="M9433 6340 c-29 -12 -48 -46 -30 -53 8 -3 19 4 26 15 17 27 76 22 76
-7 0 -15 -10 -21 -43 -28 -50 -10 -78 -43 -68 -82 10 -38 46 -51 86 -32 27 14
32 14 37 1 3 -7 10 -14 15 -14 13 0 6 176 -7 189 -16 16 -67 22 -92 11z m77
-114 c0 -33 -27 -58 -59 -54 -21 2 -26 8 -26 33 0 23 6 31 25 36 48 13 60 10
60 -15z"/>
<path d="M9580 6245 c0 -84 3 -105 14 -105 11 0 15 20 18 88 4 102 1 122 -18
122 -11 0 -14 -22 -14 -105z"/>
<path d="M9625 6341 c-3 -2 -5 -8 -5 -13 0 -12 34 -10 47 3 7 7 18 -19 38 -90
23 -83 26 -105 17 -126 -6 -14 -18 -25 -27 -25 -16 0 -20 -16 -6 -24 19 -12
40 7 56 47 8 23 28 86 44 140 22 74 26 97 16 97 -9 0 -23 -31 -37 -77 l-24
-78 -22 77 -23 76 -35 -1 c-19 -1 -37 -3 -39 -6z"/>
<path d="M10210 6276 c0 -41 4 -86 9 -99 13 -33 46 -43 76 -23 22 15 25 15 25
1 0 -8 7 -15 15 -15 12 0 15 18 15 105 0 87 -3 105 -15 105 -12 0 -15 -15 -15
-79 0 -85 -10 -105 -52 -99 -22 3 -23 8 -26 91 -2 68 -6 87 -17 87 -12 0 -15
-16 -15 -74z"/>
<path d="M10584 6325 c-22 -22 -24 -29 -13 -36 10 -6 17 -2 23 12 13 28 81 24
81 -6 0 -15 -10 -21 -43 -28 -50 -10 -78 -43 -68 -82 10 -38 46 -51 85 -31 28
15 32 15 37 1 14 -36 24 -9 24 68 0 96 -9 115 -62 123 -31 5 -41 2 -64 -21z
m96 -99 c0 -33 -27 -58 -59 -54 -21 2 -26 8 -26 33 0 23 6 31 25 36 48 13 60
10 60 -15z"/>
<path d="M10843 6340 c-25 -10 -38 -43 -25 -66 5 -10 29 -25 53 -33 36 -14 44
-21 44 -41 0 -21 -5 -25 -30 -25 -20 0 -33 7 -40 22 -14 28 -35 16 -24 -14 8
-23 38 -43 63 -43 8 0 27 11 43 24 24 21 26 27 18 52 -8 21 -22 32 -55 44 -33
11 -45 21 -45 35 0 29 61 34 70 6 8 -25 35 -17 28 8 -5 18 -43 42 -66 40 -7 0
-22 -4 -34 -9z"/>
<path d="M11003 6326 c-25 -22 -28 -31 -27 -81 0 -50 4 -61 28 -81 34 -30 58
-30 93 0 24 21 27 31 27 81 0 50 -3 60 -27 81 -35 30 -59 30 -94 0z m81 -22
c20 -19 21 -92 2 -116 -17 -23 -44 -23 -68 -1 -21 19 -24 83 -6 113 15 24 51
26 72 4z"/>
<path d="M9864 6130 c1 -41 9 -52 20 -24 11 28 6 64 -8 64 -9 0 -13 -12 -12
-40z"/>
<path d="M6930 5825 c0 -122 2 -145 15 -145 13 0 15 23 15 145 0 122 -2 145
-15 145 -13 0 -15 -23 -15 -145z"/>
<path d="M7000 5825 c0 -122 2 -145 15 -145 13 0 15 23 15 145 0 122 -2 145
-15 145 -13 0 -15 -23 -15 -145z"/>
<path d="M7970 5914 c0 -50 -1 -54 -16 -40 -22 23 -47 20 -74 -9 -20 -21 -24
-37 -24 -82 0 -48 3 -58 27 -79 33 -28 50 -30 71 -8 15 14 16 14 16 0 0 -9 7
-16 15 -16 13 0 15 23 15 145 0 122 -2 145 -15 145 -12 0 -15 -13 -15 -56z
m-10 -73 c5 -11 10 -36 10 -56 0 -49 -16 -75 -45 -75 -29 0 -45 26 -45 75 0
49 16 75 45 75 14 0 29 -8 35 -19z"/>
<path d="M8586 5954 c-9 -8 -16 -26 -16 -40 0 -15 -6 -24 -15 -24 -8 0 -15 -7
-15 -15 0 -8 7 -15 15 -15 12 0 15 -17 15 -90 0 -73 3 -90 15 -90 12 0 15 17
15 90 0 73 3 90 15 90 8 0 15 7 15 15 0 8 -7 15 -15 15 -9 0 -15 9 -15 25 0
15 6 25 14 25 8 0 16 7 20 15 7 20 -28 20 -48 -1z"/>
<path d="M9040 5825 c0 -122 2 -145 15 -145 13 0 15 23 15 145 0 122 -2 145
-15 145 -13 0 -15 -23 -15 -145z"/>
<path d="M9720 5951 c0 -10 3 -34 7 -52 7 -33 7 -33 14 -9 13 45 10 80 -6 80
-8 0 -15 -8 -15 -19z"/>
<path d="M10390 5950 c0 -11 7 -20 15 -20 8 0 15 9 15 20 0 11 -7 20 -15 20
-8 0 -15 -9 -15 -20z"/>
<path d="M10990 5825 c0 -122 2 -145 15 -145 8 0 15 7 15 16 0 14 1 14 16 0
20 -21 36 -20 67 4 72 57 22 218 -58 182 -25 -12 -25 -11 -25 38 0 38 -4 50
-15 50 -13 0 -15 -23 -15 -145z m110 16 c5 -11 10 -36 10 -56 0 -49 -16 -75
-45 -75 -29 0 -45 26 -45 75 0 49 16 75 45 75 14 0 29 -8 35 -19z"/>
<path d="M11720 5950 c0 -11 7 -20 15 -20 8 0 15 9 15 20 0 11 -7 20 -15 20
-8 0 -15 -9 -15 -20z"/>
<path d="M11894 5893 c3 -42 6 -92 6 -111 0 -68 8 -26 15 81 6 98 5 107 -11
107 -15 0 -16 -8 -10 -77z"/>
<path d="M9807 5943 c-4 -3 -7 -17 -7 -30 0 -12 -4 -23 -10 -23 -5 0 -10 -7
-10 -15 0 -8 5 -15 10 -15 6 0 10 -31 10 -74 0 -54 4 -79 16 -90 20 -20 44
-21 44 -1 0 8 -7 15 -15 15 -12 0 -15 15 -15 75 0 60 3 75 15 75 8 0 15 7 15
15 0 8 -7 15 -15 15 -10 0 -15 10 -15 30 0 29 -9 38 -23 23z"/>
<path d="M10477 5943 c-4 -3 -7 -17 -7 -30 0 -12 -4 -23 -10 -23 -5 0 -10 -7
-10 -15 0 -8 5 -15 10 -15 6 0 10 -30 10 -71 0 -39 5 -79 10 -90 13 -22 50
-26 50 -4 0 8 -7 15 -15 15 -12 0 -15 15 -15 75 0 60 3 75 15 75 8 0 15 7 15
15 0 8 -7 15 -15 15 -10 0 -15 10 -15 30 0 29 -9 38 -23 23z"/>
<path d="M10657 5943 c-4 -3 -7 -17 -7 -30 0 -12 -4 -23 -10 -23 -5 0 -10 -7
-10 -15 0 -8 5 -15 10 -15 6 0 10 -30 10 -71 0 -39 5 -79 10 -90 13 -22 50
-26 50 -4 0 8 -7 15 -15 15 -12 0 -15 15 -15 75 0 60 3 75 15 75 8 0 15 7 15
15 0 8 -7 15 -15 15 -10 0 -15 10 -15 30 0 29 -9 38 -23 23z"/>
<path d="M11557 5943 c-4 -3 -7 -17 -7 -30 0 -12 -4 -23 -10 -23 -5 0 -10 -7
-10 -15 0 -8 5 -15 10 -15 6 0 10 -31 10 -74 0 -54 4 -79 16 -90 20 -20 44
-21 44 -1 0 8 -7 15 -15 15 -12 0 -15 15 -15 75 0 60 3 75 15 75 8 0 15 7 15
15 0 8 -7 15 -15 15 -10 0 -15 10 -15 30 0 29 -9 38 -23 23z"/>
<path d="M11807 5943 c-4 -3 -7 -17 -7 -30 0 -12 -4 -23 -10 -23 -5 0 -10 -7
-10 -15 0 -8 5 -15 10 -15 6 0 10 -31 10 -74 0 -54 4 -79 16 -90 20 -20 44
-21 44 -1 0 8 -7 15 -15 15 -12 0 -15 15 -15 75 0 60 3 75 15 75 8 0 15 7 15
15 0 8 -7 15 -15 15 -10 0 -15 10 -15 30 0 29 -9 38 -23 23z"/>
<path d="M6460 5785 c0 -87 3 -105 15 -105 12 0 15 15 15 74 0 87 5 106 30
106 11 0 22 5 25 10 10 16 -23 24 -40 10 -10 -9 -15 -9 -15 -1 0 6 -7 11 -15
11 -12 0 -15 -18 -15 -105z"/>
<path d="M6597 5870 c-71 -56 -24 -204 60 -186 34 8 72 60 49 69 -8 3 -18 -5
-25 -19 -19 -43 -91 -20 -91 29 0 14 11 17 66 17 l67 0 -7 33 c-7 35 -47 77
-75 77 -10 0 -30 -9 -44 -20z m81 -22 c26 -26 13 -38 -38 -38 -54 0 -55 1 -40
31 12 22 59 26 78 7z"/>
<path d="M6782 5880 c-27 -11 -39 -37 -24 -52 7 -7 12 -3 17 12 5 17 13 21 43
18 29 -2 37 -7 37 -23 0 -15 -10 -21 -43 -28 -51 -10 -76 -41 -66 -82 9 -38
44 -51 84 -32 27 14 32 14 37 1 13 -36 23 -7 23 71 0 72 -3 88 -20 105 -21 21
-51 24 -88 10z m78 -114 c0 -33 -27 -58 -59 -54 -21 2 -26 8 -26 33 0 23 6 31
25 36 48 13 60 10 60 -15z"/>
<path d="M7082 5789 c31 -109 31 -148 -3 -156 -20 -6 -21 -24 -2 -30 21 -7 42
28 69 115 56 183 53 172 39 172 -9 0 -23 -31 -37 -77 l-24 -78 -23 78 c-13 45
-28 77 -36 77 -9 0 -5 -26 17 -101z"/>
<path d="M7347 5870 c-48 -38 -45 -136 6 -174 22 -16 31 -18 52 -8 23 11 25
10 25 -11 0 -48 -60 -65 -93 -26 -21 24 -28 22 -21 -8 7 -27 53 -46 89 -37 41
10 55 55 55 179 0 87 -3 105 -15 105 -8 0 -15 -7 -15 -16 0 -14 -2 -14 -22 0
-28 20 -30 20 -61 -4z m73 -29 c5 -11 10 -36 10 -56 0 -49 -16 -75 -45 -75
-29 0 -45 26 -45 75 0 49 16 75 45 75 14 0 29 -8 35 -19z"/>
<path d="M7523 5866 c-24 -21 -27 -31 -27 -81 0 -50 3 -60 27 -81 16 -13 37
-24 47 -24 10 0 31 11 47 24 24 21 27 31 27 81 0 50 -3 60 -27 81 -16 13 -37
24 -47 24 -10 0 -31 -11 -47 -24z m81 -22 c18 -18 21 -85 6 -115 -13 -23 -53
-25 -74 -3 -10 9 -16 33 -16 59 0 47 19 75 50 75 10 0 26 -7 34 -16z"/>
<path d="M7703 5866 c-24 -21 -27 -31 -27 -81 0 -50 3 -60 27 -81 16 -13 37
-24 47 -24 10 0 31 11 47 24 24 21 27 31 27 81 0 50 -3 60 -27 81 -16 13 -37
24 -47 24 -10 0 -31 -11 -47 -24z m79 -23 c23 -21 24 -89 1 -115 -37 -41 -83
-10 -83 57 0 67 41 96 82 58z"/>
<path d="M8153 5880 c-25 -10 -38 -43 -25 -66 5 -10 29 -25 53 -33 36 -14 44
-21 44 -41 0 -21 -5 -25 -30 -25 -20 0 -33 7 -40 22 -15 28 -35 16 -24 -15 20
-53 110 -50 123 4 9 36 -7 57 -56 74 -31 11 -43 21 -43 35 0 29 58 34 71 6 6
-14 13 -18 23 -12 11 7 9 14 -12 35 -27 27 -47 31 -84 16z"/>
<path d="M8313 5866 c-24 -21 -27 -31 -27 -81 0 -50 3 -60 27 -81 16 -13 37
-24 47 -24 10 0 31 11 47 24 24 21 27 31 27 81 0 50 -3 60 -27 81 -16 13 -37
24 -47 24 -10 0 -31 -11 -47 -24z m87 -25 c15 -30 12 -97 -6 -115 -37 -38 -84
-7 -84 55 0 56 15 79 50 79 19 0 33 -7 40 -19z"/>
<path d="M8683 5880 c-30 -12 -48 -46 -28 -53 8 -4 16 2 20 14 9 29 80 24 80
-6 0 -15 -10 -21 -43 -28 -50 -10 -78 -43 -68 -82 10 -38 46 -51 86 -32 27 14
32 14 37 1 3 -7 10 -14 15 -14 6 0 9 35 6 91 -2 76 -6 93 -22 105 -22 16 -50
17 -83 4z m77 -114 c0 -33 -27 -58 -59 -54 -21 2 -26 8 -26 33 0 23 6 31 25
36 48 13 60 10 60 -15z"/>
<path d="M8830 5785 c0 -84 3 -105 14 -105 11 0 15 20 18 88 4 102 1 122 -18
122 -11 0 -14 -22 -14 -105z"/>
<path d="M8877 5884 c-14 -14 -7 -25 13 -22 12 2 21 8 21 13 0 12 -24 18 -34
9z"/>
<path d="M9237 5870 c-48 -38 -45 -136 5 -173 23 -17 31 -18 57 -8 18 8 34 24
40 41 13 39 -10 47 -26 8 -14 -34 -56 -39 -73 -9 -14 27 -13 94 3 115 17 24
58 17 72 -11 14 -28 35 -16 24 14 -8 23 -38 43 -62 43 -8 0 -26 -9 -40 -20z"/>
<path d="M9403 5880 c-30 -12 -48 -46 -28 -53 8 -4 16 2 20 14 9 29 80 24 80
-6 0 -15 -10 -21 -43 -28 -50 -10 -78 -43 -68 -82 10 -38 46 -51 86 -32 27 14
32 14 37 1 3 -7 10 -14 15 -14 6 0 9 35 6 91 -2 76 -6 93 -22 105 -22 16 -50
17 -83 4z m77 -114 c0 -33 -27 -58 -59 -54 -21 2 -26 8 -26 33 0 23 6 31 25
36 48 13 60 10 60 -15z"/>
<path d="M9550 5785 c0 -87 3 -105 15 -105 12 0 15 15 15 79 0 85 10 105 52
99 22 -3 23 -8 26 -90 2 -69 6 -88 17 -88 12 0 15 16 15 74 0 41 -4 86 -9 99
-13 33 -46 43 -76 23 -22 -15 -25 -15 -25 -1 0 8 -7 15 -15 15 -12 0 -15 -18
-15 -105z"/>
<path d="M9974 5788 c18 -89 24 -103 41 -103 17 0 22 11 32 69 7 38 15 71 17
73 2 3 9 -22 16 -54 17 -85 20 -93 35 -93 16 0 17 4 44 128 13 61 15 82 6 82
-7 0 -18 -28 -25 -62 -19 -94 -26 -100 -40 -32 -17 86 -20 94 -36 94 -18 0
-20 -5 -35 -100 -13 -83 -18 -79 -39 33 -7 41 -17 67 -25 67 -9 0 -7 -25 9
-102z"/>
<path d="M10243 5880 c-28 -12 -48 -46 -30 -53 8 -3 19 4 26 15 17 27 76 22
76 -7 0 -15 -10 -21 -43 -28 -28 -5 -48 -17 -58 -33 -37 -55 20 -114 77 -81
26 14 31 15 35 2 4 -8 11 -15 16 -15 6 0 9 35 6 91 -2 76 -6 93 -22 105 -22
16 -50 17 -83 4z m77 -114 c0 -33 -27 -58 -59 -54 -22 2 -26 8 -26 33 0 25 5
31 30 36 51 11 55 10 55 -15z"/>
<path d="M10390 5785 c0 -87 3 -105 15 -105 12 0 15 18 15 105 0 87 -3 105
-15 105 -12 0 -15 -18 -15 -105z"/>
<path d="M10753 5866 c-24 -21 -27 -31 -27 -81 0 -50 3 -60 27 -81 16 -13 37
-24 47 -24 10 0 31 11 47 24 24 21 27 31 27 81 0 50 -3 60 -27 81 -16 13 -37
24 -47 24 -10 0 -31 -11 -47 -24z m83 -23 c19 -25 18 -98 -2 -117 -37 -38 -84
-7 -84 55 0 22 5 49 10 60 13 24 58 25 76 2z"/>
<path d="M11207 5870 c-30 -24 -44 -90 -28 -132 24 -63 107 -75 136 -18 12 23
12 29 1 33 -8 3 -18 -5 -25 -19 -19 -43 -91 -22 -91 27 0 17 7 19 66 19 l67 0
-7 33 c-7 35 -47 77 -75 77 -10 0 -30 -9 -44 -20z m81 -22 c26 -26 13 -38 -38
-38 -54 0 -55 1 -40 31 12 22 59 26 78 7z"/>
<path d="M11393 5880 c-28 -12 -48 -46 -30 -53 8 -3 19 4 26 15 17 27 76 22
76 -7 0 -15 -10 -21 -43 -28 -50 -10 -78 -43 -68 -82 10 -38 46 -51 86 -32 27
14 32 14 37 1 3 -7 10 -14 15 -14 6 0 9 35 6 91 -2 76 -6 93 -22 105 -22 16
-50 17 -83 4z m77 -114 c0 -33 -27 -58 -59 -54 -21 2 -26 8 -26 33 0 23 6 31
25 36 48 13 60 10 60 -15z"/>
<path d="M11720 5785 c0 -87 3 -105 15 -105 12 0 15 18 15 105 0 87 -3 105
-15 105 -12 0 -15 -18 -15 -105z"/>
<path d="M11890 5695 c0 -8 7 -15 15 -15 8 0 15 7 15 15 0 8 -7 15 -15 15 -8
0 -15 -7 -15 -15z"/>
<path d="M6443 815 c-94 -40 -91 -222 3 -261 41 -17 87 -13 122 12 18 12 22
25 22 65 l0 49 -50 0 c-38 0 -50 -4 -50 -15 0 -10 11 -15 35 -15 32 0 35 -2
35 -30 0 -34 -23 -50 -72 -50 -58 1 -88 40 -88 115 0 75 30 114 88 115 31 0
72 -28 72 -50 0 -5 6 -7 14 -4 22 8 7 44 -28 65 -36 22 -59 23 -103 4z"/>
<path d="M6920 774 c0 -50 -1 -54 -16 -40 -21 22 -38 20 -71 -8 -24 -21 -27
-31 -27 -79 0 -40 5 -61 18 -76 27 -30 54 -36 77 -15 17 16 19 16 19 1 0 -10
7 -17 15 -17 13 0 15 23 15 145 0 122 -2 145 -15 145 -12 0 -15 -13 -15 -56z
m-10 -73 c5 -11 10 -36 10 -56 0 -49 -16 -75 -45 -75 -29 0 -45 26 -45 75 0
49 16 75 45 75 14 0 29 -8 35 -19z"/>
<path d="M7090 685 c0 -122 2 -145 15 -145 13 0 15 23 15 145 0 122 -2 145
-15 145 -13 0 -15 -23 -15 -145z"/>
<path d="M7500 810 c0 -11 7 -20 15 -20 8 0 15 9 15 20 0 11 -7 20 -15 20 -8
0 -15 -9 -15 -20z"/>
<path d="M7730 685 c0 -122 2 -145 15 -145 12 0 15 15 15 79 0 85 10 105 52
99 22 -3 23 -8 26 -90 2 -69 6 -88 17 -88 12 0 15 16 15 74 0 41 -4 86 -9 99
-13 33 -46 43 -76 23 l-25 -16 0 55 c0 42 -3 55 -15 55 -13 0 -15 -23 -15
-145z"/>
<path d="M8010 685 c0 -122 2 -145 15 -145 13 0 15 23 15 145 0 122 -2 145
-15 145 -13 0 -15 -23 -15 -145z"/>
<path d="M8180 685 c0 -122 2 -145 15 -145 12 0 15 15 15 79 0 85 10 105 52
99 22 -3 23 -8 26 -90 2 -69 6 -88 17 -88 12 0 15 15 15 64 0 92 -9 126 -36
138 -18 8 -29 7 -49 -6 l-25 -16 0 55 c0 42 -3 55 -15 55 -13 0 -15 -23 -15
-145z"/>
<path d="M8650 774 c0 -50 -1 -54 -16 -40 -21 21 -36 20 -67 -4 -48 -38 -44
-140 6 -175 27 -19 42 -19 61 1 15 14 16 14 16 0 0 -9 7 -16 15 -16 13 0 15
23 15 145 0 122 -2 145 -15 145 -12 0 -15 -13 -15 -56z m-10 -73 c5 -11 10
-36 10 -56 0 -49 -16 -75 -45 -75 -29 0 -45 26 -45 75 0 49 16 75 45 75 14 0
29 -8 35 -19z"/>
<path d="M9360 685 c0 -122 2 -145 15 -145 8 0 15 7 15 16 0 14 1 14 16 0 21
-22 38 -20 71 8 24 21 27 31 27 81 0 50 -3 60 -27 81 -33 28 -50 30 -71 8 -15
-14 -16 -10 -16 40 0 43 -3 56 -15 56 -13 0 -15 -23 -15 -145z m110 16 c5 -11
10 -36 10 -56 0 -49 -16 -75 -45 -75 -29 0 -45 26 -45 75 0 49 16 75 45 75 14
0 29 -8 35 -19z"/>
<path d="M10150 810 c0 -11 7 -20 15 -20 8 0 15 9 15 20 0 11 -7 20 -15 20 -8
0 -15 -9 -15 -20z"/>
<path d="M10246 814 c-9 -8 -16 -26 -16 -40 0 -15 -6 -24 -15 -24 -8 0 -15 -7
-15 -15 0 -8 7 -15 15 -15 12 0 15 -17 15 -90 0 -73 3 -90 15 -90 12 0 15 17
15 90 0 73 3 90 15 90 8 0 15 7 15 15 0 8 -7 15 -15 15 -9 0 -15 9 -15 25 0
15 6 25 14 25 8 0 16 7 20 15 7 20 -28 20 -48 -1z"/>
<path d="M9747 803 c-4 -3 -7 -17 -7 -30 0 -12 -4 -23 -10 -23 -5 0 -10 -7
-10 -15 0 -8 5 -15 10 -15 6 0 10 -30 10 -71 0 -39 5 -79 10 -90 13 -22 50
-26 50 -4 0 8 -7 15 -15 15 -12 0 -15 15 -15 75 0 60 3 75 15 75 8 0 15 7 15
15 0 8 -7 15 -15 15 -10 0 -15 10 -15 30 0 29 -9 38 -23 23z"/>
<path d="M10597 803 c-4 -3 -7 -17 -7 -30 0 -12 -4 -23 -10 -23 -5 0 -10 -7
-10 -15 0 -8 5 -15 10 -15 6 0 10 -30 10 -71 0 -39 5 -79 10 -90 13 -22 50
-26 50 -4 0 8 -7 15 -15 15 -12 0 -15 15 -15 75 0 60 3 75 15 75 8 0 15 7 15
15 0 8 -7 15 -15 15 -10 0 -15 10 -15 30 0 29 -9 38 -23 23z"/>
<path d="M6653 726 c-25 -22 -28 -31 -27 -81 0 -50 4 -61 28 -81 34 -30 58
-30 93 0 24 21 27 31 27 81 0 50 -3 60 -27 81 -35 30 -59 30 -94 0z m83 -23
c19 -25 18 -98 -2 -117 -38 -39 -84 -7 -84 59 0 48 19 75 52 75 11 0 27 -8 34
-17z"/>
<path d="M7264 648 c19 -88 25 -103 41 -103 16 0 22 12 32 69 7 38 15 71 17
73 2 3 9 -22 16 -54 17 -84 20 -93 35 -93 16 0 18 6 44 123 14 66 16 87 6 87
-7 0 -19 -33 -30 -82 l-19 -83 -13 60 c-7 33 -15 70 -18 83 -6 26 -31 29 -39
5 -3 -10 -10 -45 -15 -77 -16 -89 -19 -86 -42 32 -7 37 -17 62 -24 62 -10 0
-7 -25 9 -102z"/>
<path d="M7500 645 c0 -87 3 -105 15 -105 12 0 15 18 15 105 0 87 -3 105 -15
105 -12 0 -15 -18 -15 -105z"/>
<path d="M7593 740 c-25 -10 -38 -43 -25 -66 5 -10 29 -25 53 -33 36 -14 44
-21 44 -41 0 -21 -5 -25 -30 -25 -20 0 -33 7 -40 22 -14 28 -35 16 -24 -14 19
-51 101 -54 120 -5 15 40 -2 67 -53 83 -44 15 -63 44 -34 55 24 9 66 -4 66
-21 0 -8 6 -12 14 -9 20 8 8 40 -20 53 -29 13 -41 13 -71 1z"/>
<path d="M8393 740 c-30 -12 -48 -46 -28 -53 8 -4 16 2 20 14 9 29 80 24 80
-6 0 -15 -10 -21 -43 -28 -50 -10 -78 -43 -68 -82 10 -38 46 -51 86 -32 27 14
32 14 37 1 3 -7 10 -14 15 -14 13 0 6 176 -7 189 -16 16 -67 22 -92 11z m77
-114 c0 -33 -27 -58 -59 -54 -21 2 -26 8 -26 33 0 23 6 31 25 36 48 13 60 10
60 -15z"/>
<path d="M8824 725 c-22 -22 -24 -29 -13 -36 10 -6 17 -2 23 12 13 28 81 24
81 -6 0 -15 -10 -21 -43 -28 -50 -10 -78 -43 -68 -82 10 -38 46 -51 85 -31 28
15 32 15 37 1 14 -36 24 -9 24 68 0 96 -9 115 -62 123 -31 5 -41 2 -64 -21z
m96 -99 c0 -33 -27 -58 -59 -54 -21 2 -26 8 -26 33 0 23 6 31 25 36 48 13 60
10 60 -15z"/>
<path d="M9080 645 c0 -84 3 -105 14 -105 11 0 15 20 18 88 4 102 1 122 -18
122 -11 0 -14 -22 -14 -105z"/>
<path d="M9127 744 c-14 -14 -7 -25 13 -22 12 2 21 8 21 13 0 12 -24 18 -34 9z"/>
<path d="M9213 726 c-25 -22 -28 -31 -27 -81 0 -50 4 -61 28 -81 34 -30 58
-30 93 0 24 21 27 31 27 81 0 50 -3 60 -27 81 -35 30 -59 30 -94 0z m83 -23
c19 -25 18 -98 -2 -117 -38 -39 -84 -7 -84 59 0 48 19 75 52 75 11 0 27 -8 34
-17z"/>
<path d="M9573 726 c-24 -21 -27 -31 -27 -81 0 -50 3 -60 27 -81 16 -13 37
-24 47 -24 10 0 31 11 47 24 24 21 27 31 27 81 0 50 -3 60 -27 81 -16 13 -37
24 -47 24 -10 0 -31 -11 -47 -24z m79 -23 c12 -10 18 -30 18 -56 0 -65 -47
-99 -84 -61 -18 18 -21 85 -6 115 13 23 47 25 72 2z"/>
<path d="M9914 648 c19 -88 25 -103 41 -103 16 0 22 12 32 69 7 38 15 71 17
73 2 3 9 -22 16 -54 17 -84 20 -93 35 -93 16 0 18 6 44 123 14 66 16 87 6 87
-7 0 -18 -26 -25 -62 -19 -94 -26 -100 -40 -32 -17 85 -20 94 -35 94 -16 0
-20 -12 -36 -105 -13 -78 -18 -73 -39 38 -7 41 -17 67 -25 67 -10 0 -8 -24 9
-102z"/>
<path d="M10150 645 c0 -87 3 -105 15 -105 12 0 15 18 15 105 0 87 -3 105 -15
105 -12 0 -15 -18 -15 -105z"/>
<path d="M10337 730 c-47 -38 -45 -136 5 -173 35 -26 83 -16 103 23 12 23 12
29 1 33 -8 3 -18 -5 -25 -19 -19 -43 -91 -22 -91 27 0 17 7 19 66 19 l67 0 -7
33 c-7 35 -47 77 -75 77 -10 0 -30 -9 -44 -20z m81 -22 c26 -26 13 -38 -38
-38 -52 0 -60 8 -34 34 18 19 55 21 72 4z"/>
<path d="M10693 726 c-24 -21 -27 -31 -27 -81 0 -50 3 -60 27 -81 16 -13 37
-24 47 -24 10 0 31 11 47 24 24 21 27 31 27 81 0 50 -3 60 -27 81 -16 13 -37
24 -47 24 -10 0 -31 -11 -47 -24z m79 -23 c23 -21 24 -89 1 -115 -21 -24 -60
-23 -73 1 -5 11 -10 36 -10 56 0 69 39 97 82 58z"/>
<path d="M10873 726 c-24 -21 -27 -31 -27 -81 0 -50 3 -60 27 -81 16 -13 37
-24 47 -24 10 0 31 11 47 24 24 21 27 31 27 81 0 50 -3 60 -27 81 -16 13 -37
24 -47 24 -10 0 -31 -11 -47 -24z m87 -25 c15 -30 12 -97 -6 -115 -37 -38 -84
-7 -84 55 0 56 15 79 50 79 19 0 33 -7 40 -19z"/>
<path d="M11040 555 c0 -8 7 -15 15 -15 8 0 15 7 15 15 0 8 -7 15 -15 15 -8 0
-15 -7 -15 -15z"/>
</g>
</svg>
