<?xml version="1.0" standalone="no"?>
<!DOCTYPE svg PUBLIC "-//W3C//DTD SVG 20010904//EN"
 "http://www.w3.org/TR/2001/REC-SVG-20010904/DTD/svg10.dtd">
<svg version="1.0" xmlns="http://www.w3.org/2000/svg"
 width="810.000000pt" height="810.000000pt" viewBox="0 0 810.000000 810.000000"
 preserveAspectRatio="xMidYMid meet">

<g transform="translate(0.000000,810.000000) scale(0.100000,-0.100000)"
fill="#000000" stroke="none">
<path d="M2828 8093 c12 -2 32 -2 45 0 12 2 2 4 -23 4 -25 0 -35 -2 -22 -4z"/>
<path d="M4258 8093 c12 -2 32 -2 45 0 12 2 2 4 -23 4 -25 0 -35 -2 -22 -4z"/>
<path d="M4823 8093 c9 -2 23 -2 30 0 6 3 -1 5 -18 5 -16 0 -22 -2 -12 -5z"/>
<path d="M2210 8080 c0 -5 7 -10 16 -10 8 0 12 5 9 10 -3 6 -10 10 -16 10 -5
0 -9 -4 -9 -10z"/>
<path d="M2935 8070 c28 -12 55 -12 55 0 0 6 -17 10 -37 9 -31 0 -34 -2 -18
-9z"/>
<path d="M4378 8073 c12 -2 32 -2 45 0 12 2 2 4 -23 4 -25 0 -35 -2 -22 -4z"/>
<path d="M4875 8070 c3 -5 14 -10 24 -10 9 0 22 -5 28 -11 6 -6 19 -9 29 -7
15 3 12 7 -15 21 -37 19 -76 23 -66 7z"/>
<path d="M2258 8053 c6 -2 18 -2 25 0 6 3 1 5 -13 5 -14 0 -19 -2 -12 -5z"/>
<path d="M3035 8050 c28 -12 88 -12 80 0 -3 6 -27 10 -53 9 -35 0 -42 -3 -27
-9z"/>
<path d="M4483 8053 c9 -2 23 -2 30 0 6 3 -1 5 -18 5 -16 0 -22 -2 -12 -5z"/>
<path d="M2325 8030 c3 -5 10 -10 16 -10 5 0 9 5 9 10 0 6 -7 10 -16 10 -8 0
-12 -4 -9 -10z"/>
<path d="M3165 8030 c3 -5 26 -10 51 -10 28 0 43 4 39 10 -3 6 -26 10 -51 10
-28 0 -43 -4 -39 -10z"/>
<path d="M5002 8016 c9 -9 20 -16 24 -16 4 0 15 -7 25 -16 11 -10 19 -12 24
-5 3 6 -1 11 -9 11 -8 0 -19 6 -23 14 -4 7 -19 17 -33 21 -22 7 -23 6 -8 -9z"/>
<path d="M2375 8010 c3 -5 11 -10 16 -10 6 0 7 5 4 10 -3 6 -11 10 -16 10 -6
0 -7 -4 -4 -10z"/>
<path d="M3305 8010 c-4 -6 19 -10 64 -10 38 0 73 -4 76 -10 4 -6 48 -9 103
-9 l97 2 -93 7 c-51 5 -100 11 -110 15 -30 12 -131 16 -137 5z"/>
<path d="M4765 8007 c-11 -7 -22 -15 -25 -18 -3 -3 -23 -9 -44 -13 -29 -6 -36
-10 -25 -17 22 -14 62 -11 89 8 52 35 56 70 5 40z"/>
<path d="M2641 7974 c6 -8 27 -14 47 -14 44 0 35 10 -18 20 -33 6 -38 5 -29
-6z"/>
<path d="M3682 7965 c9 -9 193 -14 233 -6 29 6 2 9 -99 10 -77 0 -137 -1 -134
-4z"/>
<path d="M5085 7960 c3 -5 8 -10 11 -10 2 0 4 5 4 10 0 6 -5 10 -11 10 -5 0
-7 -4 -4 -10z"/>
<path d="M2740 7950 c0 -5 21 -10 47 -12 56 -4 64 -19 27 -50 -66 -56 -154
-163 -154 -187 0 -6 -4 -19 -9 -29 -14 -26 -24 -54 -28 -82 -2 -14 -6 -31 -8
-37 -3 -10 -74 -13 -287 -15 l-283 -3 -9 -28 c-11 -31 -2 -54 30 -71 10 -6 21
-12 23 -13 8 -5 -22 -33 -36 -33 -7 0 -47 -16 -87 -35 -41 -19 -81 -35 -89
-35 -8 0 -25 -8 -38 -19 -39 -30 -67 -35 -95 -16 -17 11 -24 24 -22 38 3 21 9
22 93 25 56 2 92 7 97 15 4 7 8 29 8 50 0 31 -7 45 -45 82 -44 45 -45 45 -113
45 -84 0 -124 -18 -159 -72 -25 -37 -28 -38 -40 -22 -7 10 -13 23 -13 29 0 7
-13 23 -29 38 -27 24 -38 26 -129 29 -62 1 -105 -2 -113 -9 -8 -6 -28 -14 -45
-17 -28 -6 -32 -4 -44 26 -35 87 -95 143 -191 178 -68 25 -120 25 -187 1 -174
-64 -252 -253 -171 -416 30 -62 107 -135 142 -135 9 0 19 -4 22 -10 3 -5 47
-10 96 -10 78 0 98 4 145 27 31 15 69 42 86 61 34 40 68 112 68 148 0 13 4 24
9 24 12 0 21 -37 21 -92 0 -38 -5 -50 -25 -66 -30 -24 -35 -76 -7 -88 9 -4 99
-8 200 -9 169 -1 184 0 203 18 17 15 26 18 38 10 9 -6 16 -17 15 -24 -1 -11
11 -13 48 -10 72 5 78 -8 32 -75 -22 -31 -43 -63 -49 -72 -5 -9 -25 -36 -42
-62 -18 -25 -50 -70 -70 -100 -37 -54 -63 -87 -93 -120 -46 -51 -100 -120
-100 -129 0 -22 16 -10 64 49 28 33 53 60 58 60 4 0 8 6 8 14 0 7 11 25 25 40
42 46 105 132 105 144 0 7 6 12 14 12 7 0 17 8 20 18 9 26 31 60 55 88 11 13
21 26 21 29 -1 30 72 108 103 111 42 4 51 6 39 11 -8 3 -1 16 20 40 44 47 68
59 80 42 8 -11 9 -11 5 2 -6 19 30 44 58 40 11 -2 17 0 13 5 -10 9 10 34 28
34 8 0 14 -6 14 -14 0 -8 3 -16 8 -18 4 -1 18 -30 31 -63 38 -94 75 -127 117
-104 13 7 24 18 24 25 0 7 8 19 18 26 11 7 21 20 24 28 3 8 6 -5 6 -30 0 -25
-5 -51 -12 -59 -9 -12 -3 -13 38 -7 49 8 85 23 98 41 30 42 43 55 54 55 8 0
14 5 14 12 0 6 16 -10 36 -35 20 -26 45 -47 55 -47 10 0 21 -4 24 -10 9 -14
37 -12 73 6 18 8 36 12 42 9 6 -4 37 -6 70 -6 43 0 64 5 78 18 31 29 65 55 60
46 -2 -4 -10 -22 -17 -40 -9 -23 -17 -30 -28 -26 -10 4 -14 2 -9 -5 4 -6 -4
-12 -20 -14 -36 -4 -70 -63 -56 -98 5 -14 10 -29 10 -34 0 -5 7 -13 16 -18 17
-10 110 -28 101 -20 -2 3 9 14 25 24 17 10 34 26 37 36 4 9 13 22 21 28 8 6
12 16 8 22 -3 6 -2 13 4 17 5 3 10 1 10 -4 0 -6 7 -11 15 -11 8 0 15 -6 15
-14 0 -7 12 -21 26 -31 14 -9 23 -19 21 -22 -7 -6 57 -63 71 -63 39 0 14 55
-58 123 -27 27 -47 54 -43 60 4 6 -2 8 -17 4 -17 -4 -20 -3 -11 6 6 6 11 21
11 34 0 13 5 23 10 23 6 0 10 9 10 20 0 11 5 20 10 20 6 0 10 7 10 15 0 17 25
20 35 5 3 -5 17 -10 31 -10 13 0 32 -4 42 -9 9 -5 65 -33 124 -61 59 -28 124
-62 143 -76 20 -13 39 -24 43 -24 4 0 16 -7 26 -15 16 -12 17 -17 6 -30 -7 -9
-8 -15 -2 -15 6 0 12 6 15 13 4 9 8 9 23 -1 11 -6 26 -15 34 -19 8 -4 22 -14
30 -22 8 -9 27 -22 42 -30 31 -16 88 -69 88 -82 0 -13 38 -49 51 -49 15 0 1
62 -18 77 -9 7 -13 19 -9 28 3 9 2 13 -4 10 -5 -3 -31 16 -58 42 -49 48 -74
67 -102 80 -8 4 -21 13 -28 20 -7 7 -22 13 -33 13 -10 0 -19 4 -19 9 0 5 -15
18 -32 30 -59 38 -17 22 66 -25 86 -48 145 -87 161 -107 6 -7 36 -32 68 -56
31 -24 57 -50 57 -57 0 -8 7 -14 15 -14 8 0 15 -7 15 -15 0 -7 6 -18 13 -22
25 -17 88 -104 86 -120 -3 -30 1 -36 14 -24 11 8 17 5 27 -17 20 -39 41 -62
51 -56 16 10 9 48 -16 89 -14 22 -25 48 -25 58 0 9 -5 16 -11 15 -6 -2 -27 20
-46 47 -20 28 -39 49 -44 48 -4 -2 -5 5 -2 14 5 12 2 15 -10 10 -9 -3 -17 -2
-17 3 0 4 -25 32 -56 62 -31 29 -62 59 -70 66 -7 6 -16 12 -21 12 -5 0 -16 8
-24 18 -28 30 -59 52 -74 52 -8 0 -22 11 -30 24 -9 13 -25 26 -37 29 -18 5
-19 8 -9 21 11 14 15 14 28 1 8 -8 18 -15 23 -15 5 0 12 -9 15 -21 5 -15 10
-18 18 -10 16 16 47 13 47 -4 0 -12 4 -13 19 -5 11 5 26 7 34 4 8 -3 18 -1 22
5 3 6 17 11 31 11 14 0 40 11 58 25 18 14 40 25 48 25 17 0 68 -24 77 -37 3
-4 33 -22 66 -39 94 -48 107 -56 149 -91 8 -7 19 -13 23 -13 4 0 19 -9 33 -20
14 -11 56 -41 95 -66 38 -26 76 -53 83 -61 8 -8 27 -22 41 -31 27 -18 65 -49
111 -92 85 -79 138 -131 160 -156 30 -35 112 -220 146 -329 14 -44 31 -92 39
-107 8 -14 15 -31 15 -38 0 -7 6 -26 14 -43 8 -18 22 -50 31 -71 9 -23 19 -36
24 -30 11 11 19 94 9 88 -5 -3 -10 1 -11 8 -11 42 -42 129 -59 168 -25 55 -31
69 -58 144 -26 74 -14 65 69 -47 33 -45 69 -93 79 -107 11 -14 36 -56 57 -95
20 -38 40 -74 45 -80 4 -5 13 -31 21 -57 11 -39 18 -48 36 -48 17 0 23 6 23
23 0 38 -62 171 -99 214 -6 7 -11 17 -11 23 0 5 -3 10 -8 10 -13 0 -33 57 -25
76 6 16 4 17 -8 7 -18 -15 -27 -9 -61 42 -15 22 -41 55 -57 74 -16 19 -38 51
-48 72 -10 22 -23 39 -29 39 -7 0 -24 16 -38 35 -15 19 -56 64 -92 100 -39 39
-62 70 -58 77 5 7 3 8 -5 3 -16 -9 -60 31 -56 53 1 9 0 11 -2 5 -7 -20 -14
-16 -59 28 -23 23 -51 46 -62 53 -10 6 -75 53 -143 104 -68 51 -149 108 -179
127 -53 34 -54 35 -23 35 18 0 35 -5 38 -10 8 -13 57 -9 67 5 5 7 14 6 25 -2
10 -7 32 -19 48 -27 17 -8 41 -25 55 -38 14 -12 59 -50 99 -83 41 -33 84 -69
96 -80 12 -11 37 -32 56 -47 28 -23 31 -30 19 -38 -12 -8 -11 -10 7 -10 27 0
87 -56 77 -72 -4 -7 -3 -8 4 -4 7 4 16 -3 23 -17 6 -14 19 -29 29 -33 19 -10
130 -137 130 -151 1 -13 77 -93 88 -93 6 0 13 -6 16 -12 3 -7 2 7 -1 32 -3 28
-12 50 -24 59 -11 7 -19 18 -19 24 0 6 -9 20 -20 32 -11 11 -34 37 -51 58 -27
32 -30 40 -18 48 10 8 9 9 -7 4 -17 -4 -29 5 -63 50 -23 30 -45 55 -50 55 -5
0 -21 18 -36 40 -15 22 -36 42 -46 45 -11 4 -16 12 -12 21 3 8 -1 14 -11 14
-9 0 -16 5 -16 10 0 6 -7 10 -15 10 -8 0 -17 12 -21 28 -9 41 -12 49 -13 30
-1 -27 -14 -22 -29 10 -6 16 -20 37 -30 48 -10 10 -30 36 -46 57 l-28 37 81 0
c81 0 82 0 76 -22 -5 -18 -4 -19 4 -8 8 12 17 7 49 -28 21 -23 42 -39 45 -35
4 3 1 13 -7 22 -7 9 -16 28 -18 44 -5 23 -2 27 18 27 13 0 35 6 50 12 22 10
28 10 32 0 2 -6 15 -12 29 -12 24 0 69 -28 107 -66 12 -11 14 -20 6 -28 -13
-16 -3 -26 26 -26 13 0 28 -9 34 -20 6 -11 17 -20 24 -20 15 0 26 -21 26 -51
0 -10 7 -19 15 -19 8 0 14 -3 14 -7 -4 -25 3 -41 21 -46 12 -3 20 -14 20 -26
0 -12 9 -30 20 -41 11 -11 20 -27 20 -35 0 -8 5 -15 10 -15 6 0 10 -13 10 -30
0 -16 5 -30 10 -30 6 0 10 -7 10 -15 0 -8 5 -15 10 -15 6 0 10 -7 10 -15 0
-20 -5 -19 -37 11 -15 15 -45 38 -67 51 -21 14 -57 42 -81 64 -28 26 -48 37
-59 33 -9 -3 -16 -10 -16 -16 0 -22 31 -67 51 -73 15 -5 19 -13 16 -26 -4 -15
-1 -19 12 -14 12 4 38 -14 82 -55 35 -33 68 -60 73 -60 14 0 116 -103 116
-117 0 -7 7 -13 15 -13 7 0 18 -6 22 -14 4 -8 31 -39 59 -69 52 -56 71 -87 53
-87 -6 0 -13 8 -16 18 -2 9 -22 30 -44 46 -21 17 -39 34 -39 38 0 16 -50 29
-71 18 -26 -14 -24 -22 11 -59 20 -21 40 -31 59 -31 35 0 118 -85 228 -232 83
-110 88 -119 177 -283 68 -124 88 -129 37 -9 -36 85 -106 229 -131 269 -11 17
-27 44 -36 60 -44 79 -177 246 -296 372 -32 34 -58 69 -58 78 0 64 -97 269
-188 398 -54 77 -56 92 -18 99 29 5 33 30 5 28 -46 -4 -59 0 -91 32 l-32 31
50 -7 c27 -3 90 -11 139 -16 50 -6 115 -14 145 -18 54 -8 54 -8 -48 -15 -110
-8 -132 -13 -132 -29 0 -17 264 4 284 23 6 5 22 9 37 9 15 0 31 5 34 10 3 6
14 10 24 10 10 0 31 7 47 15 24 12 25 15 10 21 -9 4 -38 3 -64 0 -104 -15
-394 -4 -419 17 -21 16 -15 27 14 27 14 0 34 7 44 16 16 15 20 14 52 -10 62
-47 179 -26 201 37 14 38 -15 68 -63 65 l-36 -3 -3 68 -3 67 39 0 c47 0 72 24
72 67 0 38 -27 63 -69 63 -21 0 -33 6 -37 18 -20 65 -43 65 -109 3 -35 -33
-59 -49 -69 -45 -9 3 -16 10 -16 15 0 12 -68 11 -130 -2 -39 -8 -54 -8 -66 1
-18 16 -124 7 -164 -14 -24 -12 -30 -11 -51 5 -17 13 -41 19 -81 19 -31 0 -60
5 -64 11 -4 7 -6 47 -5 89 2 59 -2 81 -13 93 -9 9 -16 18 -16 21 0 3 66 6 148
6 83 0 178 6 219 14 65 12 153 52 168 75 12 20 -16 21 -43 3 -87 -62 -338 -78
-902 -60 -150 5 -186 4 -120 -2 52 -5 122 -14 156 -20 33 -5 117 -10 187 -10
152 0 174 -6 120 -31 -21 -10 -43 -18 -49 -19 -6 0 -19 -9 -29 -20 -21 -24
-14 -65 15 -80 18 -9 20 -21 20 -93 0 -91 -11 -123 -29 -89 -6 11 -11 36 -11
55 0 19 -6 40 -14 46 -8 7 -49 12 -92 13 -43 0 -85 4 -94 9 -8 4 -51 24 -95
44 -44 20 -88 40 -97 46 -10 5 -26 9 -35 9 -10 0 -45 9 -77 20 -33 11 -78 20
-101 20 -22 0 -46 5 -52 11 -7 7 -47 9 -119 5 -158 -7 -236 -19 -364 -54 -30
-8 -91 -18 -135 -22 -95 -8 -196 -28 -209 -41 -6 -5 -18 -9 -28 -9 -10 0 -18
-3 -18 -8 0 -10 -74 -32 -109 -32 -57 0 -81 16 -81 53 0 45 24 113 55 153 14
18 25 36 25 41 0 4 17 19 37 33 20 14 41 30 47 35 30 28 73 40 138 39 83 -2
90 11 11 20 -32 3 -92 13 -133 21 -97 20 -160 26 -160 15z m180 -50 c0 -3 -15
-11 -33 -18 -18 -6 -50 -28 -71 -47 -35 -31 -56 -43 -56 -30 0 8 51 55 60 55
6 0 10 4 10 9 0 20 33 41 61 39 16 -1 29 -5 29 -8z m-160 -130 c-6 -11 -16
-20 -22 -20 -7 0 -7 4 1 13 6 8 8 17 4 20 -3 4 1 7 11 7 14 0 15 -4 6 -20z
m-49 -85 c-12 -26 -21 -67 -21 -91 0 -37 -3 -44 -20 -44 -20 0 -28 28 -13 44
4 4 9 19 10 34 5 40 24 85 41 99 25 20 25 8 3 -42z m-1751 -5 c132 -30 200
-114 200 -250 0 -102 -45 -182 -122 -218 -81 -37 -126 -47 -162 -34 -18 7 -41
12 -52 12 -24 0 -92 45 -119 79 -47 58 -67 163 -45 243 14 48 68 119 105 138
30 15 106 37 135 39 8 0 35 -4 60 -9z m2780 -11 c0 -5 27 -6 60 -2 36 3 65 2
72 -5 7 -5 31 -13 53 -17 22 -4 45 -12 52 -17 7 -5 16 -7 21 -4 5 3 21 -2 36
-10 16 -7 37 -14 47 -14 25 0 24 -17 -1 -25 -12 -4 -31 1 -48 13 -15 10 -32
17 -39 15 -16 -6 -93 16 -93 26 0 4 -37 11 -82 14 -46 4 -84 10 -85 14 -2 5
-60 7 -130 6 l-128 -1 105 11 c109 12 160 11 160 -4z m830 -95 l0 -115 29 20
c19 14 44 21 73 21 81 -1 108 -48 108 -190 0 -87 0 -88 27 -95 42 -10 9 -25
-57 -25 -63 0 -97 14 -65 26 31 11 35 23 35 102 0 76 -16 125 -45 136 -28 10
-60 7 -83 -10 -20 -14 -22 -23 -22 -109 0 -94 11 -125 43 -125 7 0 6 -4 -3
-10 -20 -13 -137 -13 -145 1 -4 6 2 13 13 16 29 7 32 28 32 213 0 127 -4 172
-15 194 -20 38 -20 40 18 53 59 19 57 22 57 -103z m-1120 20 c0 -9 -64 -64
-74 -64 -12 0 -28 -25 -39 -61 -3 -10 5 -24 22 -37 26 -19 28 -25 28 -96 0
-72 -8 -99 -22 -76 -3 5 -18 10 -33 10 -15 1 -45 8 -67 16 -22 9 -48 16 -57
16 -27 -1 -29 25 -6 73 14 28 29 45 39 45 23 0 31 14 36 59 7 65 -8 73 -130
72 -111 -1 -157 5 -157 20 0 5 17 9 38 10 20 0 46 4 57 9 17 7 365 11 365 4z
m343 -1 c-7 -2 -21 -2 -30 0 -10 3 -4 5 12 5 17 0 24 -2 18 -5z m64 -9 c-3 -3
-12 -4 -19 -1 -8 3 -5 6 6 6 11 1 17 -2 13 -5z m-177 -22 l54 -7 -26 -17 c-33
-22 -45 -22 -55 -4 -4 8 -23 16 -42 18 -19 2 -37 9 -39 17 -4 11 2 12 24 7 16
-4 54 -11 84 -14z m255 8 c3 -5 15 -10 26 -10 10 0 27 -4 37 -9 9 -5 24 -12
32 -15 8 -3 22 -10 30 -15 8 -5 35 -15 60 -23 l45 -15 -3 -44 c-2 -24 4 -61
13 -81 17 -42 10 -46 -36 -23 -16 9 -35 15 -42 13 -27 -5 -57 14 -57 35 0 12
-7 33 -15 47 -8 14 -20 36 -27 49 -20 39 -67 80 -101 90 l-32 9 32 1 c17 1 35
-3 38 -9z m224 -11 c13 -11 21 -23 17 -26 -8 -8 -59 21 -64 36 -6 18 21 12 47
-10z m-647 -44 c2 -15 14 -21 46 -26 50 -6 80 -28 42 -30 -14 -1 -29 -1 -34 0
-6 1 -20 0 -33 -4 -22 -5 -23 -9 -23 -101 0 -115 8 -134 55 -134 45 0 45 -16
0 -29 -47 -13 -91 3 -110 40 -10 19 -15 59 -15 124 0 86 -2 97 -19 102 -15 4
-11 11 28 48 47 44 56 46 63 10z m1816 2 c2 -17 10 -27 20 -28 9 -1 28 -2 42
-3 14 0 31 -5 39 -10 21 -13 -4 -23 -49 -19 -21 2 -41 -1 -45 -7 -12 -19 -7
-200 5 -215 7 -8 28 -15 46 -15 33 0 45 -12 23 -25 -5 -4 -31 -7 -56 -8 -40 0
-50 4 -70 29 -21 26 -23 39 -23 132 0 94 -2 104 -19 109 -17 4 -15 10 22 47
48 48 61 51 65 13z m-1118 13 c0 -5 -4 -10 -10 -10 -5 0 -10 5 -10 10 0 6 5
10 10 10 6 0 10 -4 10 -10z m-2880 -45 c12 -14 15 -14 36 0 38 25 97 19 128
-11 24 -25 26 -33 26 -118 0 -109 6 -133 32 -139 40 -11 6 -25 -57 -25 -65 0
-96 14 -56 25 20 5 21 12 21 102 0 71 -4 102 -16 119 -18 26 -59 29 -92 6 -20
-14 -22 -23 -22 -118 0 -97 1 -104 21 -109 41 -11 7 -27 -56 -27 -62 0 -97 16
-57 27 25 6 31 34 28 131 -2 55 -7 78 -19 87 -19 14 -11 27 28 47 39 21 40 21
55 3z m490 -2 c36 -25 49 -45 50 -75 l0 -27 -92 -3 -93 -3 -3 -52 c-3 -48 -1
-53 31 -77 40 -31 65 -32 117 -7 22 11 40 16 40 12 0 -14 -45 -49 -83 -65 -37
-15 -41 -15 -91 9 -66 31 -86 64 -86 146 0 69 21 113 69 143 35 21 110 20 141
-1z m985 -8 c24 -23 25 -30 25 -140 0 -110 1 -115 21 -115 12 0 19 -5 17 -12
-7 -20 -51 -26 -80 -11 -23 11 -33 10 -73 -7 -41 -18 -49 -18 -74 -6 -14 8
-33 26 -41 40 -12 24 -11 29 7 54 24 33 89 72 121 72 44 0 52 92 11 118 -27
17 -55 0 -74 -43 -15 -37 -41 -46 -52 -19 -9 23 8 45 53 71 53 31 108 30 139
-2z m1102 -1 c48 -37 73 -81 73 -132 0 -50 -17 -87 -57 -123 -90 -81 -231 -37
-263 82 -17 61 10 131 63 170 55 40 134 41 184 3z m491 3 c2 -10 1 -25 -2 -34
-5 -13 -11 -11 -31 11 -32 34 -72 35 -85 1 -13 -35 -4 -53 40 -75 65 -33 100
-69 100 -102 0 -44 -17 -67 -64 -88 -40 -17 -47 -17 -90 -3 -41 14 -46 19 -46
45 l0 29 37 -30 c21 -17 45 -31 53 -31 21 0 60 36 60 55 0 16 -75 75 -96 75
-22 0 -54 51 -54 85 0 25 8 40 31 60 27 22 39 26 88 23 44 -2 56 -7 59 -21z
m552 -103 c4 -94 9 -124 22 -137 22 -22 60 -22 87 1 24 19 25 27 23 134 -2 74
-3 78 -27 84 -32 8 -25 15 27 31 66 19 68 16 68 -121 0 -91 4 -127 15 -143 14
-20 13 -21 -28 -32 -35 -9 -44 -8 -54 5 -10 14 -16 13 -52 -4 -39 -19 -44 -19
-81 -5 -21 9 -42 23 -47 32 -4 9 -10 63 -13 121 -5 99 -6 105 -30 117 -23 11
-23 12 -5 18 11 4 29 11 40 15 46 20 50 12 55 -116z m-2743 86 c-9 -24 -8 -39
7 -77 10 -27 21 -58 23 -70 8 -36 29 -27 52 20 25 52 27 104 4 129 -9 10 -14
21 -11 24 3 3 34 4 69 2 59 -3 62 -4 46 -20 -23 -22 -21 -44 6 -117 22 -59 24
-61 40 -43 9 10 17 25 17 33 0 8 4 19 9 25 21 24 29 70 14 97 l-14 27 56 0
c57 0 63 -9 26 -37 -9 -6 -24 -28 -35 -50 -10 -21 -22 -46 -27 -55 -5 -10 -9
-24 -9 -32 0 -8 -3 -16 -7 -18 -5 -1 -17 -25 -28 -53 -12 -27 -27 -50 -34 -50
-11 0 -40 63 -65 137 -6 19 -36 14 -36 -5 0 -19 -60 -137 -70 -137 -6 0 -17
15 -24 33 -8 17 -21 48 -29 67 -9 19 -25 60 -37 90 -12 31 -35 67 -53 82 l-32
27 77 1 76 0 -11 -30z m813 25 c0 -3 -5 -14 -12 -24 -12 -20 -3 -62 33 -144
18 -42 25 -38 52 23 39 91 40 98 23 125 l-16 25 55 0 c30 0 55 -3 55 -7 0 -5
-12 -19 -26 -32 -23 -22 -74 -119 -74 -141 0 -6 -4 -10 -10 -10 -5 0 -10 -7
-10 -15 0 -21 -116 -259 -134 -274 -26 -21 -61 -10 -64 22 -3 22 0 27 20 27
37 0 68 11 68 24 0 6 9 29 20 51 11 22 20 47 20 57 0 27 -86 231 -109 256 -36
41 -35 42 38 42 39 0 71 -2 71 -5z m-1605 -145 c0 -78 -2 -85 -20 -85 -18 0
-20 8 -23 65 -4 82 3 112 26 108 14 -3 17 -16 17 -88z m3259 74 c12 -32 6 -94
-10 -101 -34 -13 -65 60 -41 98 14 23 43 25 51 3z m176 -70 c0 -62 -3 -85 -12
-82 -8 3 -12 31 -13 79 -1 78 0 89 16 89 5 0 9 -39 9 -86z m198 16 c2 -71 -7
-96 -32 -87 -13 5 -16 22 -16 82 0 73 1 76 23 73 20 -3 22 -9 25 -68z m178 34
c7 -38 1 -121 -10 -132 -14 -14 -26 25 -26 89 0 36 3 69 7 72 14 14 22 6 29
-29z m-1626 -17 c0 -14 -6 -24 -15 -24 -9 0 -15 10 -15 24 0 14 6 23 15 23 9
0 15 -9 15 -23z m855 3 c3 -5 1 -10 -4 -10 -6 0 -11 5 -11 10 0 6 2 10 4 10 3
0 8 -4 11 -10z m-1863 -27 c-7 -3 -22 -22 -32 -44 -11 -21 -25 -39 -31 -39 -8
0 -7 5 1 15 7 8 10 15 7 15 -3 0 -1 14 4 30 9 24 17 30 37 29 15 0 21 -3 14
-6z m318 -13 c0 -11 5 -20 10 -20 6 0 10 -12 10 -26 0 -22 -2 -23 -14 -12 -18
19 -31 78 -17 78 6 0 11 -9 11 -20z m-900 -16 c0 -12 -45 -43 -62 -44 -28 0
-21 25 10 37 32 13 52 15 52 7z m1587 -30 c-3 -3 -12 -4 -19 -1 -8 3 -5 6 6 6
11 1 17 -2 13 -5z m506 -6 c12 -6 29 -14 37 -18 8 -4 20 -31 27 -61 10 -47 10
-52 -2 -35 -8 11 -23 20 -32 21 -26 2 -44 15 -37 26 3 6 -4 8 -18 4 -13 -3
-31 2 -42 10 -16 12 -18 19 -8 40 13 27 39 32 75 13z m421 -173 c9 -14 13 -25
8 -25 -5 0 -19 11 -32 25 -18 19 -20 25 -8 25 9 0 23 -11 32 -25z"/>
<path d="M840 7647 c-84 -41 -126 -146 -107 -269 13 -88 50 -139 121 -166 52
-20 57 -20 98 -5 57 22 85 48 111 103 30 66 34 152 8 221 -23 60 -73 119 -102
119 -10 0 -21 5 -24 10 -10 16 -57 11 -105 -13z m147 -49 c67 -70 83 -180 39
-266 -28 -56 -38 -65 -87 -81 -59 -19 -132 23 -158 92 -19 49 -13 156 10 204
29 60 61 83 118 83 40 0 52 -5 78 -32z"/>
<path d="M3208 7573 c6 -2 18 -2 25 0 6 3 1 5 -13 5 -14 0 -19 -2 -12 -5z"/>
<path d="M1719 7467 c-21 -16 -37 -49 -32 -64 10 -28 123 -3 123 26 0 40 -57
64 -91 38z"/>
<path d="M2703 7314 c-58 -29 -57 -94 1 -94 43 0 56 16 56 67 0 48 -7 51 -57
27z"/>
<path d="M3768 7455 c-14 -14 -31 -46 -38 -72 -12 -41 -11 -52 6 -101 23 -65
58 -92 100 -77 83 30 101 197 27 255 -34 27 -65 25 -95 -5z m76 -51 c4 -10 2
-13 -7 -9 -6 4 -4 0 6 -8 9 -8 17 -26 17 -41 0 -28 -2 -29 -38 -19 -19 5 -23
11 -20 34 3 15 1 26 -4 23 -10 -6 -11 20 -1 29 12 13 41 7 47 -9z"/>
<path d="M4320 7950 c-209 -3 -285 -7 -241 -12 81 -10 483 -9 536 0 77 14 8
17 -295 12z"/>
<path d="M3135 7880 c3 -5 26 -10 51 -10 24 0 44 5 44 10 0 6 -23 10 -51 10
-31 0 -48 -4 -44 -10z"/>
<path d="M3276 7861 c-5 -8 16 -11 73 -11 44 0 83 -4 86 -10 4 -6 54 -10 117
-10 61 0 109 2 107 4 -2 3 -60 9 -129 15 -69 6 -153 14 -186 17 -41 4 -64 3
-68 -5z"/>
<path d="M3685 7830 c-4 -6 5 -10 19 -10 14 0 26 5 26 10 0 6 -9 10 -19 10
-11 0 -23 -4 -26 -10z"/>
<path d="M5717 7533 c-76 -33 -82 -38 -85 -70 -2 -24 2 -35 17 -45 18 -11 21
-23 21 -83 0 -59 -3 -72 -20 -82 -35 -23 -42 -48 -19 -77 l20 -25 284 2 c262
2 285 4 304 22 21 18 22 18 62 -3 48 -26 126 -29 168 -8 30 16 91 80 91 97 0
5 -11 21 -25 35 l-25 25 -28 -19 c-58 -41 -101 -40 -121 5 -17 37 -3 43 97 43
79 0 83 1 94 25 16 36 -4 91 -50 133 -33 30 -39 32 -109 32 -88 0 -118 -16
-164 -89 -25 -40 -29 -43 -29 -21 0 28 -27 73 -56 95 -24 18 -145 20 -162 3
-9 -9 -17 -9 -34 0 -35 18 -192 21 -231 5z m51 -50 c9 -16 11 -16 36 0 34 23
88 21 119 -3 31 -25 36 -25 67 0 38 30 101 27 134 -6 24 -25 26 -33 26 -118 0
-110 6 -132 33 -140 34 -9 12 -19 -49 -22 -64 -4 -103 9 -66 20 21 7 22 14 22
107 0 86 -3 102 -20 119 -24 24 -57 26 -88 4 -20 -14 -22 -23 -22 -118 0 -98
1 -104 22 -109 36 -10 11 -21 -52 -23 -58 -2 -88 10 -56 22 24 9 23 205 0 229
-21 20 -62 17 -91 -9 -21 -17 -23 -29 -23 -107 0 -88 11 -119 43 -119 7 0 6
-4 -3 -10 -16 -10 -102 -12 -133 -4 -22 7 -12 24 14 24 18 0 19 8 19 101 0 85
-3 104 -17 114 -15 11 -15 15 -4 29 7 9 22 16 32 16 10 0 21 5 24 10 9 15 23
12 33 -7z m682 2 c33 -17 65 -69 56 -91 -4 -10 -22 -14 -61 -14 -61 0 -70 10
-25 27 17 6 30 15 30 20 0 18 -41 53 -62 53 -46 0 -90 -72 -52 -87 12 -4 11
-8 -8 -17 -31 -15 -34 -46 -9 -94 27 -52 69 -70 120 -52 20 7 39 17 42 22 4 6
9 6 13 -1 9 -14 -35 -52 -79 -67 -27 -9 -43 -9 -70 0 -69 24 -105 77 -105 156
0 61 18 99 62 134 39 30 102 35 148 11z m-590 -74 c5 -11 10 -46 10 -79 0 -63
-14 -87 -44 -76 -13 5 -16 21 -16 78 0 87 24 124 50 77z m194 3 c3 -9 6 -46 6
-84 0 -53 -3 -69 -16 -74 -31 -12 -44 13 -44 83 0 65 10 91 36 91 6 0 15 -7
18 -16z m326 -24 c0 -5 -5 -10 -11 -10 -5 0 -7 5 -4 10 3 6 8 10 11 10 2 0 4
-4 4 -10z"/>
<path d="M7169 7536 c-44 -23 -96 -29 -103 -11 -7 18 -53 20 -127 4 -39 -9
-57 -8 -75 1 -25 14 -122 7 -154 -10 -40 -21 -31 -90 10 -90 19 0 20 -7 20
-100 0 -100 0 -100 34 -138 34 -36 36 -37 123 -43 64 -4 97 -2 120 8 17 8 44
13 60 11 24 -3 28 -7 29 -37 1 -25 -7 -43 -27 -64 -32 -33 -34 -39 -19 -68 10
-17 22 -19 113 -19 67 0 107 4 115 12 19 19 14 56 -8 68 -57 30 -44 90 19 90
39 0 61 9 114 44 95 64 88 257 -12 323 -27 19 -48 23 -107 23 -40 0 -78 2 -86
5 -7 3 -25 -1 -39 -9z m-339 -153 c6 -127 22 -163 68 -163 16 0 38 9 50 20 19
18 22 31 22 101 0 85 -10 119 -37 119 -9 0 -13 3 -9 7 11 12 89 33 98 27 4 -3
8 -58 8 -122 0 -92 4 -123 16 -141 12 -17 13 -26 5 -34 -6 -6 -11 -8 -11 -5 0
4 -14 3 -32 -2 -24 -8 -34 -6 -43 6 -10 15 -15 14 -53 -5 l-42 -21 -39 20
c-22 11 -42 23 -45 28 -2 4 -6 46 -7 92 -3 106 -9 132 -38 146 -22 11 -21 12
21 27 23 8 48 14 53 13 6 -1 12 -52 15 -113z m410 105 c29 18 91 15 127 -8 78
-47 93 -186 26 -250 -36 -35 -118 -63 -143 -50 -45 24 -53 15 -48 -59 2 -50 9
-75 22 -90 11 -12 17 -21 15 -22 -22 -2 -139 -3 -139 -1 0 2 9 15 20 29 18 24
20 41 20 203 0 146 -3 180 -15 190 -24 20 -17 36 23 52 27 10 42 12 55 4 12
-8 23 -7 37 2z m-310 -133 c0 -60 -3 -77 -16 -82 -24 -9 -34 15 -34 90 0 65 1
67 25 67 24 0 25 -2 25 -75z m177 -1 c1 -27 -1 -60 -3 -73 -9 -42 -26 -7 -26
51 1 79 1 80 15 75 7 -2 13 -24 14 -53z"/>
<path d="M7220 7440 c-20 -20 -22 -30 -18 -116 3 -100 7 -107 57 -121 59 -15
117 65 108 150 -6 67 -33 101 -85 105 -31 3 -46 -2 -62 -18z m94 -32 c31 -44
13 -149 -27 -156 -33 -7 -47 17 -47 80 0 33 5 68 10 79 14 26 45 24 64 -3z"/>
<path d="M3338 7113 c7 -3 16 -2 19 1 4 3 -2 6 -13 5 -11 0 -14 -3 -6 -6z"/>
<path d="M3810 7074 c0 -8 5 -12 10 -9 6 3 10 10 10 16 0 5 -4 9 -10 9 -5 0
-10 -7 -10 -16z"/>
<path d="M4972 7078 c2 -6 10 -14 16 -16 7 -2 10 2 6 12 -7 18 -28 22 -22 4z"/>
<path d="M4830 7026 c0 -9 5 -16 10 -16 6 0 10 4 10 9 0 6 -4 13 -10 16 -5 3
-10 -1 -10 -9z"/>
<path d="M2175 6990 c-17 -18 -35 -28 -44 -25 -20 8 -81 -26 -81 -45 0 -8 -9
-28 -20 -45 -27 -39 -94 -180 -108 -225 -45 -145 -64 -255 -71 -402 -6 -149
-8 -157 -34 -191 -15 -20 -27 -39 -27 -44 0 -4 -18 -34 -40 -67 -22 -32 -40
-63 -40 -67 0 -5 -7 -9 -15 -9 -10 0 -15 11 -15 35 0 19 5 35 10 35 6 0 10 14
10 31 0 16 11 55 25 85 14 30 25 60 25 68 0 7 3 16 7 20 24 23 52 166 33 166
-19 0 -50 -20 -50 -32 0 -7 -19 -59 -42 -117 -23 -58 -45 -124 -49 -146 -4
-22 -14 -65 -23 -95 -19 -69 -35 -181 -41 -285 -5 -107 -15 -169 -27 -176 -5
-4 -11 -19 -13 -35 -4 -39 -36 -157 -45 -167 -7 -8 -21 203 -24 358 -1 74 -3
80 -23 83 -31 5 -35 -21 -31 -196 2 -120 1 -144 -9 -122 -18 43 -25 251 -14
400 16 207 37 318 96 495 38 114 68 176 104 218 44 49 40 98 -7 82 -17 -6 -54
-59 -87 -125 -10 -19 -23 -42 -30 -50 -7 -8 -15 -26 -18 -40 -9 -38 -47 -153
-58 -172 -5 -10 -9 -28 -9 -41 0 -30 -10 -40 -25 -27 -9 8 -12 3 -9 -21 2 -18
9 -38 14 -45 7 -7 7 -15 2 -18 -19 -11 -32 -147 -36 -364 -2 -84 -6 -156 -9
-159 -4 -3 0 -18 8 -32 7 -15 16 -54 18 -87 2 -32 9 -72 15 -89 6 -16 19 -59
28 -95 18 -68 63 -191 92 -248 11 -23 12 -36 5 -40 -6 -4 -14 -17 -17 -30 -6
-18 -12 -21 -28 -16 -17 5 -20 3 -15 -10 6 -16 -40 -73 -50 -62 -3 3 -5 52 -6
110 0 58 -4 106 -9 106 -4 0 -8 21 -8 48 -1 66 -25 235 -35 253 -10 15 -21 81
-31 184 -4 33 -10 62 -15 65 -5 3 -9 76 -10 161 -2 157 5 193 37 212 16 9 19
43 4 52 -15 9 -68 -32 -86 -66 -13 -25 -18 -28 -30 -18 -13 11 -14 8 -9 -17
11 -47 14 -56 23 -50 4 2 14 1 22 -4 11 -7 14 -28 12 -87 -3 -84 12 -211 48
-413 21 -115 30 -178 40 -260 5 -47 12 -95 15 -108 5 -21 -18 -213 -31 -254
-3 -10 -11 -18 -19 -18 -26 0 -94 -82 -118 -143 -14 -34 -48 -110 -76 -169
-28 -59 -51 -112 -51 -118 0 -5 -4 -10 -9 -10 -5 0 -11 -10 -14 -21 -4 -14
-11 -20 -20 -16 -18 7 -13 -19 15 -83 21 -47 53 -96 143 -220 55 -76 67 -117
41 -139 -11 -9 -22 -3 -55 28 -41 40 -216 166 -245 177 -11 4 -16 1 -16 -10 0
-9 4 -16 9 -16 9 0 138 -86 157 -104 6 -6 26 -22 46 -35 19 -14 46 -45 59 -70
13 -25 27 -48 30 -51 4 -3 36 -50 71 -105 36 -55 76 -110 88 -123 l22 -23 -23
-25 c-49 -53 -129 -17 -263 118 -43 44 -95 87 -115 95 -20 9 -70 35 -112 59
-46 27 -88 44 -107 44 -39 0 -42 -15 -6 -24 25 -7 26 -8 8 -20 -40 -26 -100
-39 -124 -26 -20 11 -33 7 -101 -26 -43 -22 -78 -42 -78 -46 -1 -12 27 -10 34
2 3 6 15 10 26 10 10 0 19 4 19 8 0 4 15 14 34 20 26 10 41 10 62 1 16 -6 38
-15 49 -20 11 -4 47 -17 80 -29 33 -12 76 -31 95 -44 52 -34 141 -86 146 -86
2 0 32 -13 67 -30 35 -16 78 -33 96 -36 62 -13 61 -55 -2 -128 l-34 -38 -89
22 c-49 12 -117 35 -152 51 -34 16 -83 34 -109 39 -25 6 -78 25 -117 43 -39
19 -86 40 -103 48 -18 7 -33 18 -33 22 0 5 -4 5 -10 2 -6 -4 -2 -15 10 -27 30
-32 25 -45 -15 -40 -21 3 -35 0 -35 -7 0 -6 14 -11 30 -11 17 0 38 -4 48 -9 9
-5 85 -30 167 -56 83 -25 160 -50 173 -56 13 -5 32 -9 43 -9 36 0 79 -29 79
-53 0 -12 -4 -27 -8 -33 -15 -22 -109 -39 -222 -39 -93 0 -125 4 -170 21 -34
13 -79 22 -118 22 -35 1 -70 6 -78 13 -16 13 -19 -2 -3 -18 7 -7 3 -19 -15
-39 -50 -57 -59 -63 -92 -66 -19 -2 -34 -7 -34 -13 0 -14 42 -12 68 3 35 20
38 8 12 -43 -19 -37 -27 -44 -45 -39 -18 4 -23 -1 -33 -34 -7 -21 -23 -56 -37
-76 -24 -36 -25 -39 -11 -79 9 -26 15 -34 16 -21 0 37 22 44 146 45 65 1 134
6 151 12 25 8 36 8 45 -1 7 -7 21 -12 31 -12 27 0 253 -78 312 -107 74 -38
215 -152 215 -175 0 -4 -12 -8 -27 -8 -26 -1 -27 -2 -10 -14 10 -8 49 -24 87
-36 60 -19 74 -21 100 -10 26 11 33 10 49 -4 9 -9 29 -16 44 -16 14 0 29 -4
32 -10 3 -5 15 -10 26 -10 31 0 13 18 -25 25 -18 4 -44 18 -57 32 -67 70 -125
123 -135 123 -6 0 -19 10 -30 21 -30 34 -221 159 -267 175 -41 15 -168 20
-188 8 -5 -3 -21 1 -34 10 -13 9 -42 16 -64 16 -22 0 -43 5 -46 10 -3 6 -15
10 -26 10 -20 0 -87 39 -126 74 -15 13 -23 31 -23 52 l0 33 67 -5 c38 -3 106
-9 153 -15 47 -5 145 -9 219 -9 137 0 185 -9 291 -57 35 -16 209 -153 245
-193 22 -24 128 -80 152 -80 10 0 13 6 9 16 -7 18 -3 28 110 260 46 95 97 185
112 202 l28 30 131 0 c73 1 140 5 150 11 10 5 38 15 63 22 25 7 56 21 69 31
31 23 51 23 51 -2 0 -22 -90 -158 -159 -240 -123 -146 -236 -240 -380 -312
-102 -52 -94 -61 22 -28 40 12 90 26 112 32 45 13 146 61 225 108 29 17 57 27
61 23 5 -5 -16 -64 -46 -131 -30 -68 -55 -129 -55 -137 0 -8 -4 -16 -9 -19 -5
-4 -30 -49 -55 -101 -51 -107 -82 -142 -135 -151 -20 -3 -51 -15 -69 -25 -39
-22 -58 -24 -65 -6 -3 6 -6 -14 -6 -45 -1 -31 3 -67 9 -80 9 -21 28 -123 66
-353 18 -110 29 -190 43 -320 29 -265 28 -259 95 -359 33 -50 78 -106 98 -124
20 -18 38 -43 40 -55 2 -12 12 -24 25 -27 12 -3 52 -34 90 -70 l68 -65 -3 -85
c-2 -58 0 -82 7 -75 22 22 42 255 22 255 -11 0 -2 38 10 46 5 2 25 -10 44 -28
31 -28 39 -45 55 -118 36 -163 51 -296 57 -502 l6 -208 1887 0 1887 0 7 82 c3
46 16 133 29 193 19 93 25 112 45 120 25 11 28 23 8 39 -11 9 -8 41 16 191 16
99 33 195 39 214 6 18 11 86 11 150 0 66 6 133 13 156 7 22 11 69 10 105 -2
40 3 82 12 110 13 36 14 71 9 175 -4 72 -13 164 -20 205 -8 43 -10 87 -5 105
4 16 13 49 19 72 14 49 16 45 -80 154 -122 138 -246 258 -320 308 -19 13 -46
34 -60 47 -14 12 -36 24 -49 26 -13 1 -29 12 -35 23 -11 19 -24 33 -76 78
-161 141 -270 240 -266 244 3 3 44 -8 93 -25 48 -16 113 -34 143 -41 30 -6 84
-19 120 -28 38 -10 98 -16 145 -15 75 1 78 0 50 -13 -27 -12 -14 -13 125 -13
137 0 150 2 116 12 -31 10 -36 14 -22 19 10 4 34 7 54 7 58 0 133 24 230 73
49 25 98 44 108 44 11 -1 22 8 27 23 8 21 4 35 -22 77 -26 43 -32 64 -36 129
-3 44 -9 95 -15 114 -5 19 -10 48 -10 64 0 19 -4 26 -9 21 -23 -23 -9 -253 15
-262 9 -3 14 -22 14 -56 0 -56 -12 -55 -28 3 -9 35 -10 35 -19 10 l-10 -25
-16 31 c-8 16 -25 84 -37 149 -22 121 -40 169 -40 106 0 -19 11 -89 25 -158
29 -143 28 -135 26 -149 -3 -27 -229 -51 -330 -35 -86 13 -107 25 -59 35 41 8
141 56 134 64 -3 3 -16 1 -29 -5 -61 -30 -98 -38 -162 -37 -72 1 -103 11 -142
47 -28 25 -29 37 -5 37 39 0 193 67 207 90 14 23 -4 20 -66 -9 -67 -31 -160
-61 -188 -61 -20 0 -77 55 -64 63 4 2 40 10 78 16 156 27 224 45 307 85 48 22
87 45 88 50 0 4 -10 5 -22 1 -80 -26 -409 -42 -487 -24 -59 14 -87 46 -111
124 -7 22 -23 63 -36 91 -13 28 -24 61 -24 73 0 12 -10 41 -21 64 -12 23 -30
70 -40 105 l-18 64 26 -7 c14 -3 32 -13 40 -21 9 -8 28 -18 44 -21 16 -3 32
-10 35 -14 3 -5 14 -9 25 -9 11 0 31 -7 45 -16 18 -12 28 -14 36 -6 8 8 -5 15
-46 27 -51 15 -75 34 -43 35 13 1 -52 60 -66 60 -13 0 -110 79 -121 97 -14 26
-27 130 -33 268 -5 130 -13 156 -41 133 -10 -9 -13 -39 -11 -121 2 -85 0 -111
-12 -118 -11 -7 -9 -10 9 -15 17 -5 20 -9 11 -20 -8 -10 -7 -17 5 -29 9 -9 16
-24 16 -33 0 -13 -8 -8 -31 16 -16 17 -34 32 -38 32 -5 0 -11 8 -15 18 -3 9
-10 24 -15 32 -24 40 -33 71 -27 94 5 19 3 26 -9 26 -11 0 -15 11 -15 44 0 24
-3 51 -6 60 -8 22 -42 20 -47 -1 -2 -11 -7 -1 -12 22 -4 22 -13 47 -20 55 -7
8 -15 37 -19 65 -3 27 -11 54 -16 59 -6 6 -10 25 -10 42 0 18 -4 36 -10 39 -5
3 -10 22 -10 41 0 19 -7 46 -16 59 -9 14 -20 55 -25 93 -9 65 -29 183 -50 287
-5 28 -14 79 -19 115 -5 36 -14 90 -20 120 -16 78 -21 117 -14 103 3 -7 11
-13 18 -13 7 0 12 -15 13 -36 1 -20 6 -40 13 -44 14 -9 40 -58 40 -76 0 -8 5
-14 12 -14 6 0 9 -3 6 -6 -4 -3 10 -23 30 -43 59 -61 111 -121 122 -142 6 -10
17 -19 24 -19 7 0 19 -11 26 -25 7 -13 29 -35 49 -48 20 -14 53 -40 74 -59
l37 -34 -6 -91 c-5 -59 -3 -92 4 -97 11 -7 32 74 32 127 0 57 16 60 86 14 76
-50 76 -58 11 -144 -23 -31 -53 -71 -67 -89 -15 -20 -34 -34 -47 -34 -26 0
-27 3 -14 46 5 18 5 37 0 45 -6 10 -9 3 -10 -21 -4 -72 -6 -86 -17 -107 -18
-34 -15 -63 7 -63 12 0 26 15 40 45 12 25 26 45 31 45 6 0 10 6 10 13 0 6 12
26 26 42 14 17 39 49 55 72 39 56 57 65 100 51 50 -17 202 -79 214 -88 23 -17
168 -90 178 -90 7 0 -8 13 -33 28 l-45 27 33 3 c43 4 41 22 -2 22 -19 0 -37 4
-41 9 -3 5 -19 13 -37 16 -36 8 -111 48 -137 73 -10 9 -34 32 -54 50 -24 21
-37 41 -37 57 0 22 -3 24 -31 18 -28 -5 -36 0 -87 53 -105 108 -102 101 -102
273 0 165 -4 156 62 151 36 -2 45 18 11 26 -47 11 -73 32 -73 60 0 21 -4 24
-20 19 -16 -5 -19 -3 -13 11 4 11 2 15 -4 11 -6 -4 -13 10 -16 36 -4 29 -14
48 -31 62 -14 12 -26 27 -26 35 -1 32 -70 87 -70 56 0 -7 9 -39 20 -71 11 -32
20 -68 20 -80 0 -11 5 -26 11 -32 19 -19 -10 -26 -36 -9 -13 9 -31 16 -38 16
-27 0 -50 37 -44 72 3 18 3 27 0 20 -7 -19 -23 -4 -23 23 0 13 -4 27 -10 30
-5 3 -10 16 -10 29 0 12 -5 27 -10 32 -6 6 -13 21 -15 34 -2 13 -9 28 -15 34
-5 5 -10 18 -10 28 0 10 -4 18 -10 18 -5 0 -10 14 -10 30 0 17 -4 30 -10 30
-5 0 -10 11 -10 25 0 14 -4 25 -9 25 -5 0 -13 9 -16 20 -7 24 -33 27 -41 5 -4
-9 -2 -28 4 -43 6 -15 22 -58 37 -97 14 -38 30 -78 36 -89 8 -14 6 -23 -12
-42 -23 -24 -17 -32 11 -14 18 11 30 -5 30 -42 0 -16 5 -28 10 -28 6 0 10 -9
10 -21 0 -11 -3 -19 -8 -17 -87 38 -110 52 -105 67 4 13 3 13 -5 2 -8 -11 -15
-10 -41 5 -17 10 -31 24 -31 30 0 7 -8 10 -17 8 -23 -6 -93 61 -93 89 0 19 -9
47 -50 152 -26 65 -36 85 -42 85 -7 0 -29 44 -42 83 -8 23 -40 18 -44 -7 -4
-18 14 -59 56 -129 12 -21 20 -42 17 -46 -2 -5 2 -14 10 -21 8 -7 15 -22 15
-34 0 -11 7 -33 14 -48 8 -16 12 -28 9 -28 -14 0 -103 73 -103 86 0 7 -6 11
-13 8 -7 -2 -25 9 -40 26 -15 16 -31 30 -36 30 -15 0 -22 32 -10 46 8 10 8 14
0 14 -6 0 -11 -4 -11 -10 0 -18 -26 -10 -49 14 -13 14 -20 29 -16 35 3 6 0 11
-8 11 -13 0 -56 43 -129 128 -29 33 -38 68 -15 59 10 -4 12 3 9 24 -5 36 -22
39 -22 4 0 -38 -11 -31 -52 33 -26 40 -36 65 -32 82 3 18 2 20 -3 7 -8 -16 -9
-16 -23 1 -8 9 -22 31 -30 47 -8 17 -29 54 -47 83 -18 29 -33 57 -33 62 0 6
-7 10 -15 10 -9 0 -15 -9 -15 -24 0 -14 -4 -28 -10 -31 -14 -9 -12 -27 2 -23
7 3 23 -8 35 -23 23 -27 31 -55 13 -44 -5 3 -10 -1 -10 -11 0 -13 -5 -11 -20
9 -11 14 -20 32 -20 40 0 9 -5 19 -10 22 -13 8 -52 88 -49 101 1 5 1 16 -1 24
-1 11 -4 9 -9 -5 -8 -18 -11 -15 -27 20 -11 22 -23 43 -28 46 -4 4 -5 21 -1
40 7 32 7 32 -11 15 -17 -18 -18 -18 -31 0 -13 17 -14 14 -9 -25 3 -24 11 -51
19 -60 8 -9 20 -31 28 -48 8 -18 17 -33 21 -33 5 0 8 -7 8 -15 0 -8 16 -38 35
-65 19 -27 35 -57 35 -65 0 -8 5 -15 10 -15 6 0 10 -8 10 -17 0 -10 6 -29 13
-43 8 -14 33 -62 57 -108 39 -73 43 -85 31 -103 -9 -15 -10 -24 -2 -32 8 -8
11 -6 11 6 0 9 5 17 11 17 7 0 9 -11 6 -30 -5 -22 -3 -30 8 -30 10 0 15 -11
15 -36 0 -19 4 -33 9 -30 4 3 11 -25 15 -62 9 -84 13 -111 20 -142 4 -14 -2
-7 -13 15 -11 22 -20 52 -20 67 -1 15 -5 30 -11 33 -5 3 -10 17 -10 31 0 13
-4 32 -9 42 -5 9 -14 31 -21 47 -7 17 -18 44 -26 60 -8 17 -17 45 -20 62 -4
18 -13 38 -20 44 -8 6 -14 17 -14 24 0 15 -61 138 -72 146 -5 3 -6 22 -3 41 4
22 3 38 -4 42 -7 5 -11 -3 -11 -21 0 -21 -3 -25 -10 -13 -5 8 -6 26 -3 40 6
22 4 23 -9 12 -11 -9 -18 -10 -23 -2 -9 14 -25 3 -25 -17 0 -23 42 -113 52
-113 4 0 8 -9 8 -20 0 -21 16 -55 38 -78 6 -7 12 -19 12 -27 0 -7 4 -15 9 -17
6 -1 11 -14 13 -28 2 -14 11 -40 21 -59 9 -18 14 -37 11 -42 -3 -5 -1 -9 4 -9
12 0 34 -49 26 -61 -4 -6 -11 -6 -19 1 -20 17 -25 -10 -25 -130 0 -111 -6
-152 -20 -130 -4 7 -6 -16 -5 -51 2 -35 -1 -82 -7 -104 -5 -22 -11 -62 -14
-89 -4 -49 -23 -106 -35 -106 -4 0 -12 7 -19 15 -7 8 -17 15 -22 15 -8 0 -67
38 -78 51 -3 3 -19 14 -37 24 -37 22 -49 45 -31 57 8 5 4 6 -12 3 -20 -5 -33
2 -65 35 -21 22 -43 40 -47 40 -5 0 -18 9 -30 20 -12 11 -19 20 -16 20 4 0
-13 19 -37 43 -33 31 -45 51 -45 72 0 44 -16 199 -29 280 -11 74 -17 104 -52
255 -12 52 -22 108 -22 123 0 16 -3 23 -7 17 -9 -15 -20 11 -20 50 0 17 -7 33
-16 38 -11 6 -15 17 -12 30 3 12 0 23 -6 25 -7 3 -17 22 -24 43 -6 22 -28 70
-47 108 -24 49 -31 72 -24 77 7 4 9 14 4 25 -8 18 -8 18 -12 2 -8 -31 -23 -19
-35 26 -6 25 -15 43 -20 40 -4 -3 -8 -1 -8 5 0 17 -46 61 -64 61 -18 0 -22
-25 -6 -35 6 -3 10 -15 10 -25 0 -10 3 -20 8 -22 21 -9 54 -72 49 -95 -3 -17
-1 -21 6 -14 17 17 93 -151 144 -314 8 -27 19 -59 23 -70 5 -11 13 -40 19 -65
5 -25 17 -75 26 -113 37 -158 66 -387 49 -387 -12 1 -54 67 -54 85 0 8 -4 17
-10 20 -5 3 -10 24 -10 46 0 24 -4 38 -10 34 -5 -3 -10 2 -10 12 0 10 -12 47
-26 83 -15 36 -30 74 -34 85 -21 53 -53 115 -61 121 -13 8 -11 42 4 47 7 4 6
6 -5 6 -9 1 -23 13 -31 29 -8 15 -29 54 -47 87 -19 33 -33 71 -32 85 1 18 -1
21 -7 11 -7 -11 -11 -10 -20 7 -8 15 -8 21 1 24 7 3 -2 13 -20 23 -18 11 -32
24 -32 30 0 5 -11 23 -23 39 -24 29 -47 29 -47 0 0 -20 50 -106 67 -117 7 -4
13 -15 13 -23 0 -8 11 -32 25 -52 14 -20 25 -42 25 -49 0 -7 4 -13 8 -13 4 0
13 -12 19 -27 7 -16 16 -35 21 -43 22 -37 32 -61 32 -75 0 -8 5 -15 10 -15 6
0 10 -8 10 -19 0 -10 10 -38 23 -62 13 -24 28 -57 35 -74 53 -146 72 -202 72
-217 0 -10 16 -40 35 -67 19 -26 35 -51 35 -55 0 -3 16 -29 36 -57 35 -51 38
-67 10 -56 -10 4 -13 13 -9 23 4 11 3 15 -5 11 -13 -9 -52 44 -52 72 0 12 -6
21 -12 21 -17 1 -105 130 -114 167 -4 15 -12 35 -19 43 -18 21 -55 110 -47
110 4 0 -1 5 -10 11 -10 5 -18 19 -18 29 0 11 -4 20 -10 20 -5 0 -10 11 -10
25 0 15 -6 25 -14 25 -8 0 -17 13 -21 29 -3 16 -13 35 -21 42 -8 6 -14 21 -14
34 0 12 -9 30 -19 39 -11 10 -25 32 -32 49 -7 18 -15 34 -19 37 -19 17 -38 61
-34 81 2 13 2 18 -2 12 -7 -17 -27 -17 -22 -1 3 7 -6 21 -19 31 -13 10 -23 22
-23 27 0 5 -11 26 -25 47 -14 21 -31 46 -38 57 -6 10 -19 26 -28 35 -33 34
-69 89 -69 105 0 11 -6 16 -17 14 -24 -4 -30 -60 -9 -78 9 -7 16 -18 16 -24 0
-6 9 -17 20 -24 11 -7 20 -17 20 -23 0 -6 9 -22 20 -36 12 -16 18 -35 15 -47
-3 -12 -2 -15 1 -8 5 10 9 10 20 1 8 -6 14 -16 14 -21 0 -5 14 -26 31 -47 23
-30 29 -44 23 -65 -4 -16 -2 -26 5 -26 6 0 11 6 11 13 0 7 7 3 15 -7 8 -11 13
-28 10 -37 -4 -11 1 -22 12 -28 11 -5 25 -22 33 -38 8 -15 22 -40 32 -55 20
-29 22 -38 10 -38 -5 0 -15 11 -22 25 -14 26 -60 36 -60 13 0 -6 25 -54 55
-106 39 -66 54 -101 50 -116 -5 -16 -4 -18 4 -6 12 18 11 19 55 -63 27 -51 34
-75 29 -95 -6 -24 -5 -26 10 -13 14 11 18 9 28 -15 6 -16 27 -63 47 -103 23
-49 31 -76 24 -79 -7 -2 -12 -9 -12 -15 0 -8 4 -7 12 1 20 20 28 14 28 -25 0
-28 3 -34 10 -23 8 12 10 10 10 -8 0 -13 6 -36 14 -50 20 -38 58 -161 54 -173
-2 -6 -12 5 -23 25 -11 20 -28 39 -37 42 -10 3 -18 8 -18 12 0 4 -16 25 -35
47 -19 22 -35 47 -35 57 0 26 -11 48 -25 48 -7 0 -23 16 -36 35 -13 19 -27 35
-31 35 -5 0 -8 11 -8 25 0 18 -5 25 -18 25 -11 0 -33 20 -52 48 -19 26 -49 63
-67 82 -18 19 -33 43 -33 53 0 9 -5 17 -12 17 -12 0 -148 137 -148 149 0 3 -9
12 -20 19 -11 7 -20 21 -20 33 0 11 -4 17 -10 14 -6 -4 -25 8 -43 25 -18 17
-46 37 -63 45 -17 7 -41 25 -53 41 -32 41 -48 20 -31 -42 7 -26 13 -53 13 -60
0 -7 3 -11 7 -9 4 2 24 -33 45 -78 22 -45 41 -84 45 -87 10 -10 40 -72 40 -84
0 -7 9 -21 19 -30 11 -10 17 -24 14 -32 -3 -8 0 -14 5 -14 11 0 122 -138 122
-151 0 -4 14 -21 30 -37 17 -17 30 -38 30 -46 0 -27 -36 -18 -61 15 -13 17
-36 45 -52 62 -15 18 -25 38 -22 45 3 8 -2 12 -12 10 -10 -2 -19 5 -21 15 -4
21 -25 49 -59 80 -13 11 -23 27 -23 34 0 8 -20 44 -45 81 -25 37 -45 76 -45
87 0 11 -7 29 -15 39 -8 11 -15 27 -15 37 0 9 -7 22 -15 29 -8 7 -18 30 -21
51 -4 22 -10 39 -14 39 -5 0 -11 18 -15 40 -4 22 -10 42 -15 45 -5 3 -11 23
-15 46 -4 22 -13 53 -21 67 -18 35 -18 62 1 98 8 17 16 45 17 64 7 80 -40 19
-116 -150 -6 -14 -13 -27 -17 -30 -3 -3 -11 -21 -19 -40 -14 -36 -22 -48 -51
-78 -9 -9 -19 -30 -23 -47 -4 -16 -13 -36 -19 -44 -12 -14 -19 -32 -57 -141
-12 -36 -31 -87 -41 -114 -24 -62 -27 -181 -4 -172 8 3 21 8 29 12 10 4 15
-10 20 -53 4 -32 9 -76 12 -98 l5 -40 -17 30 c-9 17 -20 44 -23 60 -5 23 -13
31 -34 33 -17 2 -28 -2 -28 -10 -18 -152 -13 -393 8 -413 7 -8 13 -19 13 -25
0 -9 -42 34 -73 75 -4 5 -21 27 -37 49 -31 40 -37 61 -20 71 6 3 10 31 10 62
0 31 5 71 12 89 10 28 8 36 -18 75 -16 24 -36 57 -44 72 -17 33 -51 72 -68 78
-13 4 -19 218 -7 279 3 19 7 67 9 105 3 72 21 182 37 223 5 13 9 34 9 48 0 14
7 38 15 54 9 17 12 30 8 30 -4 0 3 9 15 20 23 21 26 37 16 64 -8 21 -41 20
-53 -1 -17 -31 -25 -5 -11 39 7 24 14 49 16 56 2 7 9 10 15 6 8 -5 10 1 7 18
-3 18 4 37 23 63 16 21 26 42 23 47 -4 5 5 22 18 36 13 15 35 44 49 64 13 21
30 38 37 38 7 0 12 13 12 30 0 40 -27 40 -65 0z m-145 -437 c0 -10 -7 -31 -15
-47 -8 -15 -15 -39 -15 -52 0 -12 -4 -25 -9 -28 -5 -3 -12 -23 -15 -43 -3 -21
-8 -49 -10 -63 -7 -40 -18 -133 -19 -160 -1 -14 -6 -23 -12 -20 -5 3 -9 14 -7
25 1 11 6 52 11 90 7 55 36 188 67 303 5 18 24 14 24 -5z m518 -254 c44 -144
142 -357 232 -504 101 -166 290 -380 420 -478 74 -55 142 -102 187 -127 45
-25 57 -50 47 -98 -7 -37 13 -53 25 -20 5 13 6 29 4 36 -7 17 1 15 41 -8 20
-11 38 -15 41 -10 4 6 16 3 31 -6 26 -17 32 -54 15 -96 -5 -13 -15 -50 -22
-83 -18 -89 -153 -355 -180 -355 -4 0 -8 23 -7 50 0 28 4 50 9 50 11 0 12 80
0 98 -10 16 -24 -58 -15 -81 3 -8 -2 -17 -11 -21 -9 -3 -14 -10 -11 -15 7 -11
-44 -181 -74 -243 -20 -43 -62 -87 -211 -222 -42 -38 -49 -47 -29 -42 14 4 41
10 60 13 38 7 96 43 149 92 18 17 35 31 38 31 3 0 14 11 25 25 25 31 43 33 33
3 -17 -57 -35 -219 -30 -278 9 -110 16 -164 24 -190 5 -14 14 -50 21 -80 7
-30 16 -62 20 -70 4 -8 18 -40 31 -70 22 -54 93 -170 134 -220 26 -32 69 -75
128 -126 26 -23 47 -45 47 -49 0 -7 118 -147 133 -156 23 -15 -4 -48 -83 -101
-47 -32 -116 -74 -155 -94 -132 -69 -155 -85 -155 -107 -1 -29 -51 -94 -70
-90 -15 3 -39 47 -67 123 -7 19 -13 61 -13 94 0 48 2 56 13 47 8 -6 16 -8 20
-5 8 9 -20 82 -44 112 -11 15 -42 59 -67 99 -79 121 -196 249 -274 299 -21 13
-52 41 -70 61 -18 21 -46 51 -61 67 -27 27 -28 30 -10 40 10 6 36 13 58 16 22
3 38 9 35 14 -7 13 -74 9 -180 -10 -95 -17 -140 -32 -140 -46 0 -11 101 -6
139 7 20 7 23 5 18 -8 -4 -11 -2 -14 9 -10 10 4 12 0 8 -11 -3 -9 -10 -16 -16
-16 -9 0 -62 -111 -82 -173 -3 -11 -11 -15 -17 -11 -8 4 -9 3 -5 -4 6 -11 -40
-93 -56 -100 -5 -2 -8 -9 -8 -16 0 -6 -9 -18 -20 -26 -11 -8 -32 -34 -47 -57
-15 -24 -33 -43 -40 -43 -20 0 -16 17 12 44 21 21 23 29 15 50 -14 39 -31 32
-70 -29 -19 -30 -43 -58 -52 -61 -10 -3 -18 -10 -18 -15 0 -6 -18 -29 -40 -51
-22 -23 -40 -36 -40 -30 0 7 -5 12 -11 12 -6 0 -9 -7 -5 -15 8 -23 -79 -106
-107 -101 -12 1 -16 1 -9 -1 9 -3 2 -16 -22 -39 -19 -19 -39 -34 -44 -34 -5 0
-17 -9 -27 -20 -10 -11 -24 -20 -32 -20 -18 0 13 44 43 60 12 7 31 30 44 52
12 22 28 42 36 45 8 3 14 11 14 18 0 19 37 48 51 39 9 -5 10 -2 6 8 -3 10 6
32 23 55 16 21 30 46 30 55 0 9 3 18 8 20 4 2 23 35 43 73 20 39 45 86 57 106
28 50 38 70 50 99 20 49 24 65 26 103 l1 37 -45 -6 c-25 -3 -77 -12 -116 -18
-38 -6 -81 -9 -95 -5 -13 4 -19 7 -14 8 6 1 26 16 46 34 19 17 50 45 69 61 58
48 102 124 108 182 4 46 1 55 -24 84 -24 27 -34 31 -61 27 -18 -3 -53 -22 -79
-41 -26 -20 -54 -36 -63 -36 -19 0 -88 -24 -97 -33 -4 -4 -15 -7 -25 -7 -23 0
-111 -47 -177 -94 -31 -23 -61 -36 -81 -36 -24 0 -31 -4 -31 -19 0 -27 -38
-38 -58 -17 -24 23 -4 51 36 51 16 0 28 3 26 6 -2 4 5 18 16 31 22 29 18 38
-17 38 -13 0 -21 4 -18 10 4 6 -5 7 -24 4 -17 -4 -47 -3 -68 1 -63 12 -13 28
61 20 50 -5 65 -3 75 9 8 9 19 16 25 16 6 0 21 7 33 15 20 14 21 18 9 69 -7
29 -23 68 -36 86 -31 43 -32 77 -3 95 42 28 64 0 68 -85 2 -50 20 -111 50
-177 1 -2 28 8 61 21 l59 25 -2 42 c-1 23 -8 49 -16 58 -22 25 -66 109 -60
114 3 3 -12 17 -34 30 -21 14 -58 43 -83 66 -44 41 -67 49 -85 32 -6 -5 -21
-11 -35 -13 -16 -2 -26 -10 -28 -23 -2 -11 -10 -35 -19 -54 -11 -24 -12 -36
-4 -44 21 -21 12 -37 -20 -37 -38 0 -65 -14 -105 -56 -20 -22 -41 -34 -57 -34
-14 0 -29 -4 -32 -10 -3 -5 -11 -10 -16 -10 -18 0 10 39 65 91 29 27 63 70 75
94 12 25 26 47 32 50 32 20 -22 35 -59 16 -91 -48 -292 -141 -305 -141 -18 0
-29 24 -20 48 29 74 231 312 266 312 24 0 28 15 17 62 -6 24 -13 52 -15 63
-13 54 -17 170 -7 222 6 32 14 74 17 93 3 19 12 41 19 50 7 8 17 31 21 50 4
19 11 51 15 70 4 19 15 71 24 115 29 144 39 186 47 191 9 5 41 -14 105 -62 23
-17 62 -36 87 -44 26 -7 52 -19 58 -26 6 -8 20 -14 30 -14 11 0 19 -4 19 -10
0 -20 38 -10 44 13 l7 22 11 -22 c6 -13 15 -23 20 -23 4 0 8 -5 8 -11 0 -19
92 -163 153 -237 77 -95 216 -232 234 -232 19 0 10 14 -51 77 -27 29 -56 65
-63 80 -17 35 -32 60 -59 98 -30 42 -66 116 -60 122 2 3 51 -17 108 -44 141
-68 176 -83 193 -83 8 0 15 -4 15 -10 0 -5 -20 -10 -45 -10 -64 0 -55 -33 13
-46 18 -4 29 -11 26 -16 -9 -14 13 -35 44 -43 15 -3 48 -19 74 -35 25 -16 49
-26 52 -23 3 3 27 -6 53 -19 26 -14 75 -33 108 -42 33 -10 67 -22 75 -27 8 -5
25 -13 38 -19 12 -5 22 -15 22 -21 0 -6 6 -9 14 -6 8 3 29 -5 47 -19 18 -13
38 -24 43 -23 6 0 5 3 -1 6 -7 2 -13 14 -13 25 0 18 4 19 43 13 23 -3 50 -9
60 -12 15 -4 17 0 12 20 -5 19 -2 25 15 30 13 3 20 11 17 19 -2 7 -11 11 -18
8 -8 -2 -43 -4 -79 -4 -55 0 -77 6 -141 37 -89 43 -129 72 -129 93 0 8 -6 14
-12 12 -17 -4 -95 45 -80 50 17 5 15 22 -3 22 -8 0 -15 5 -15 11 0 5 -4 7 -10
4 -5 -3 -10 1 -10 9 0 9 -5 16 -11 16 -5 0 -27 11 -47 25 -42 28 -62 32 -62
10 0 -8 -7 -15 -16 -15 -28 0 -215 106 -260 146 -44 40 -73 156 -81 328 -6
122 -5 128 13 125 10 -2 30 -25 44 -50 55 -101 64 -116 105 -169 40 -51 84
-96 113 -113 20 -13 -2 35 -42 91 -20 27 -36 54 -36 60 0 6 -21 52 -46 101
-35 70 -49 113 -60 183 -9 51 -20 95 -25 99 -7 4 -7 21 0 50 6 24 18 85 27
134 9 50 28 117 41 150 36 86 87 189 96 193 4 2 7 8 7 13 0 18 33 60 44 56 6
-2 17 -23 24 -48z m1726 -73 c-3 -9 -1 -16 6 -16 27 0 57 -55 51 -95 -2 -15 0
-17 11 -7 12 10 17 7 29 -16 8 -15 20 -33 27 -40 6 -7 12 -17 12 -22 0 -4 17
-26 39 -48 21 -21 40 -44 42 -50 2 -6 30 -38 63 -72 32 -35 59 -69 60 -76 3
-18 16 -31 16 -16 0 7 4 12 10 12 5 0 7 -13 4 -29 -5 -23 -2 -32 15 -40 25
-14 28 1 5 24 -9 9 -14 19 -10 22 5 5 108 -83 126 -108 3 -4 30 -24 60 -45 30
-20 57 -41 58 -46 2 -4 10 -8 18 -8 7 0 19 -8 25 -19 7 -10 20 -16 29 -14 9 2
27 -7 41 -21 13 -14 32 -26 42 -26 9 0 17 -4 17 -10 0 -5 6 -10 14 -10 8 0 18
-5 22 -11 8 -13 -55 -2 -70 12 -6 5 -18 9 -27 9 -9 0 -19 6 -22 14 -8 21 -69
30 -80 11 -12 -22 -18 -20 -100 35 -41 28 -80 50 -86 50 -6 0 -11 5 -11 11 0
14 -26 40 -33 33 -3 -3 -13 2 -24 10 -10 9 -27 22 -38 30 -15 11 -17 17 -7 28
12 15 7 28 -10 28 -5 0 -7 -4 -3 -9 3 -5 1 -12 -4 -15 -11 -7 -171 163 -171
182 0 5 -8 16 -19 26 -17 15 -43 64 -76 141 -7 17 -29 68 -49 113 -20 46 -36
97 -36 114 l0 31 20 -26 c11 -14 17 -32 14 -41z m-1025 -161 c0 -5 -6 1 -14
15 -8 14 -14 30 -14 35 0 6 6 -1 14 -15 8 -14 14 -29 14 -35z m-397 -7 c86
-83 189 -196 353 -389 191 -226 235 -292 235 -353 0 -41 -18 -40 -78 5 -77 59
-279 260 -339 339 -127 168 -278 450 -240 450 7 0 38 -24 69 -52z m-917 -93
c-2 -70 -6 -129 -9 -132 -3 -4 -6 9 -7 28 -3 170 0 241 10 235 4 -3 7 -62 6
-131z m-54 23 c6 -64 -1 -109 -16 -115 -8 -2 -28 5 -45 17 -35 25 -34 39 7
103 31 50 50 48 54 -5z m-50 -140 c21 -11 42 -33 47 -47 6 -14 18 -96 27 -181
10 -85 26 -184 36 -219 10 -36 16 -68 14 -71 -3 -4 -21 -10 -40 -13 -65 -11
-121 24 -182 112 -2 2 -12 -4 -23 -14 -28 -25 -53 -4 -46 39 3 17 8 69 11 116
7 93 18 144 45 205 10 22 23 52 29 68 13 33 31 34 82 5z m-141 -12 c0 -12 -7
-30 -15 -40 -14 -19 -15 -17 -15 20 0 30 4 41 15 41 9 0 15 -9 15 -21z m2583
-61 c9 -31 17 -62 17 -69 0 -8 6 -19 14 -25 8 -7 13 -30 13 -61 0 -28 5 -56
11 -62 7 -7 12 -29 12 -49 0 -21 5 -41 10 -44 6 -3 10 -34 9 -68 0 -34 -3 -56
-6 -49 -2 6 -13 12 -24 12 -10 0 -19 7 -19 15 0 8 -7 15 -16 15 -13 0 -15 -6
-8 -27 4 -16 8 -63 9 -105 0 -65 -2 -78 -15 -78 -30 0 -70 25 -70 44 0 11 -5
16 -14 13 -27 -11 -27 -15 10 178 8 44 20 155 26 248 6 92 14 167 17 167 4 0
15 -25 24 -55z m208 -58 c32 -34 59 -65 59 -69 0 -5 7 -8 15 -8 8 0 14 -3 14
-7 -1 -5 -1 -16 0 -27 1 -15 4 -16 15 -7 11 9 16 9 21 0 4 -6 1 -16 -6 -21
-10 -7 -7 -8 12 -4 19 4 33 -2 58 -24 18 -17 35 -30 39 -30 4 0 20 -13 35 -30
16 -16 35 -30 42 -30 14 0 86 -38 95 -51 3 -3 22 -12 42 -18 31 -10 39 -19 47
-49 5 -20 10 -53 9 -73 0 -20 5 -46 11 -58 14 -24 40 -154 48 -228 3 -29 9
-53 13 -53 4 0 11 -44 15 -97 3 -54 10 -107 16 -118 14 -31 37 -181 32 -209
-4 -17 -1 -26 7 -26 7 0 10 -8 8 -18 -3 -11 1 -30 8 -43 7 -13 13 -38 14 -55
0 -16 7 -39 15 -50 17 -23 19 -34 5 -34 -6 0 -16 12 -23 28 -6 15 -20 36 -29
46 -10 11 -18 30 -18 43 0 13 -4 23 -8 23 -5 0 -17 18 -27 40 -10 22 -22 40
-27 40 -4 0 -8 8 -8 17 0 20 -51 126 -62 131 -5 2 -8 10 -8 19 0 20 -34 12
-38 -10 -4 -20 28 -97 40 -97 4 0 8 -9 8 -20 0 -11 14 -46 30 -77 17 -31 30
-72 31 -92 0 -27 2 -31 8 -17 5 14 10 16 15 8 4 -7 4 -16 1 -22 -3 -5 5 -22
19 -37 15 -15 26 -33 26 -40 0 -7 5 -13 10 -13 6 0 10 -7 10 -15 0 -8 4 -15 9
-15 5 0 13 -12 19 -27 5 -16 39 -59 76 -97 36 -38 66 -74 66 -79 0 -11 -24 7
-61 48 -86 93 -99 109 -99 121 0 7 -4 14 -9 16 -11 4 -91 105 -91 114 0 4 -6
15 -14 23 -26 29 -76 133 -69 143 3 6 0 16 -8 22 -19 15 -39 52 -39 71 0 8 -4
15 -10 15 -5 0 -10 5 -10 11 0 6 -7 27 -16 47 -9 21 -20 46 -25 57 -4 11 -13
40 -20 65 -6 25 -16 51 -21 58 -6 7 -8 31 -5 54 3 26 2 37 -3 28 -14 -23 -18
-10 -23 70 -3 41 -14 98 -25 125 -11 28 -23 63 -27 79 -8 40 -30 18 -27 -28 4
-52 -13 -86 -42 -86 -39 0 -56 10 -56 34 0 12 -4 26 -9 32 -11 11 -20 71 -29
196 -4 53 -10 100 -14 104 -5 4 -17 -1 -29 -12 -19 -17 -21 -26 -15 -84 9
-103 15 -152 22 -172 14 -46 14 -66 -2 -72 -9 -4 -22 -2 -28 3 -6 5 -22 11
-36 13 l-25 3 -1 290 c0 202 -4 297 -12 312 -7 12 -12 39 -12 60 1 32 2 35 11
20 6 -10 37 -46 70 -80z m-2535 -31 c2 -25 0 -46 -5 -46 -13 0 -21 27 -21 73
0 56 21 34 26 -27z m108 -95 c22 -9 22 -11 13 -75 l-10 -66 -19 30 c-11 19
-18 50 -18 83 0 29 -5 58 -11 64 -6 6 -8 17 -3 24 5 9 11 3 16 -19 5 -20 18
-36 32 -41z m1515 -53 c6 -13 22 -38 35 -55 22 -31 24 -40 20 -139 -1 -59 -5
-109 -9 -112 -3 -3 -5 4 -5 15 0 11 -7 37 -15 56 -8 20 -15 55 -15 77 0 23 -5
40 -11 40 -7 0 -9 12 -5 33 3 20 0 39 -9 51 -16 21 -20 56 -7 56 5 0 14 -10
21 -22z m88 8 c-3 -7 0 -19 6 -25 8 -8 8 -11 0 -11 -14 0 -43 28 -43 41 0 5 9
9 21 9 14 0 19 -5 16 -14z m-555 -50 c-2 -9 1 -15 6 -14 16 5 92 -62 92 -82 0
-30 -40 -11 -92 46 -37 39 -45 53 -36 62 16 16 34 9 30 -12z m632 -21 c14 -13
26 -29 26 -34 0 -6 7 -8 15 -5 17 7 18 3 9 -20 -3 -9 -11 -16 -17 -16 -12 0
-87 79 -87 92 0 16 27 8 54 -17z m-1754 -26 c0 -18 -4 -28 -10 -24 -5 3 -10
20 -10 36 0 18 4 28 10 24 6 -3 10 -20 10 -36z m-330 1 c0 -21 -15 -27 -25
-10 -7 12 2 30 16 30 5 0 9 -9 9 -20z m2217 -88 c34 -31 67 -56 73 -54 5 2 13
-3 16 -12 3 -9 13 -16 21 -16 7 0 26 -11 41 -25 15 -14 35 -25 44 -25 10 0 18
-7 18 -15 0 -8 7 -15 15 -15 8 0 15 -4 15 -10 0 -14 -12 -13 -46 4 -16 8 -47
22 -69 32 -22 10 -44 23 -50 29 -17 20 -89 71 -109 78 -12 5 -17 14 -13 27 6
23 -12 39 -23 20 -5 -8 -10 -8 -14 -2 -7 11 2 42 13 42 4 0 35 -26 68 -58z
m-1871 0 c-11 -10 -15 4 -8 28 l7 25 3 -23 c2 -13 1 -26 -2 -30z m1709 18 c12
0 30 -27 27 -42 -1 -5 3 -8 9 -8 12 0 101 -69 107 -82 2 -5 13 -8 24 -8 12 0
22 -8 25 -20 4 -14 11 -19 23 -15 22 7 160 -83 160 -105 0 -19 -24 -87 -33
-96 -4 -4 -7 -17 -7 -29 0 -11 -4 -25 -9 -31 -5 -5 -11 -18 -14 -29 -4 -15 -5
-13 -6 8 -1 19 -6 27 -19 27 -15 0 -22 -13 -31 -57 -7 -32 -17 -68 -22 -81 -5
-13 -9 -34 -9 -47 0 -16 -6 -25 -15 -25 -12 0 -13 -4 -4 -18 9 -14 3 -29 -32
-82 -24 -36 -51 -74 -61 -84 -10 -11 -18 -23 -18 -28 0 -4 -9 -8 -20 -8 -12 0
-20 -7 -20 -16 0 -13 -7 -15 -32 -10 -31 5 -32 5 -14 -9 11 -8 18 -16 15 -18
-14 -11 -105 -49 -120 -50 -11 -1 -19 -5 -19 -9 0 -4 -11 -8 -25 -8 -14 0 -25
5 -25 10 0 6 -4 10 -10 10 -13 0 -13 -50 0 -70 7 -12 12 -12 22 -2 6 6 25 12
40 12 16 0 37 5 48 10 11 6 29 15 40 20 11 6 26 10 34 10 8 0 17 7 20 16 4 11
14 15 30 12 17 -4 23 -1 19 9 -3 9 3 13 21 13 14 0 26 4 26 10 0 16 44 22 74
10 15 -5 36 -20 46 -33 10 -12 22 -18 27 -14 4 5 -7 21 -24 36 -18 15 -33 31
-33 36 0 17 44 55 63 55 13 0 17 5 13 15 -3 9 0 15 9 15 11 0 14 -10 12 -39
-1 -22 -5 -42 -8 -45 -10 -11 2 -290 14 -311 6 -11 12 -46 13 -79 2 -32 7 -63
13 -69 6 -6 11 -20 11 -32 0 -11 7 -28 14 -38 8 -10 12 -26 9 -36 -3 -10 0
-22 6 -25 6 -4 11 -19 11 -34 0 -15 7 -40 15 -56 8 -15 15 -35 15 -44 0 -9 10
-26 22 -39 16 -18 18 -22 6 -18 -9 4 -25 19 -35 33 -17 26 -19 31 -22 52 0 6
-7 10 -15 10 -12 0 -46 56 -47 77 0 5 -8 16 -16 26 -9 9 -13 20 -10 23 3 4 -3
24 -14 45 -11 22 -16 39 -12 39 4 0 2 5 -5 12 -17 17 -15 45 4 56 15 8 15 10
0 15 -10 4 -16 1 -16 -8 0 -8 -7 -15 -15 -15 -11 0 -15 11 -14 43 1 23 -3 52
-9 64 -7 12 -12 33 -12 47 0 16 -9 31 -24 41 -22 15 -23 21 -20 95 3 74 1 80
-17 80 -12 0 -23 -10 -30 -27 -12 -33 -10 -234 3 -250 6 -8 5 -19 -2 -33 -7
-12 -9 -31 -6 -43 3 -12 0 -27 -6 -34 -8 -10 -8 -17 -1 -24 7 -7 16 -4 26 12
16 21 17 22 23 3 46 -141 112 -247 234 -373 9 -9 40 -38 70 -64 l54 -49 -29
-86 c-16 -48 -33 -96 -39 -107 -5 -11 -13 -28 -18 -37 -4 -10 -8 -25 -8 -33 0
-8 -4 -15 -9 -15 -5 0 -11 -10 -15 -22 -3 -13 -30 -53 -61 -90 l-55 -66 -30
15 c-17 8 -30 19 -30 25 0 6 -3 8 -7 5 -3 -4 4 -18 16 -31 23 -24 23 -24 3
-35 -17 -9 -23 -6 -36 14 -9 13 -16 27 -16 29 0 3 -18 24 -40 48 -22 24 -43
53 -46 66 -3 12 -10 22 -15 22 -5 0 -9 9 -9 20 0 11 -7 23 -15 26 -8 4 -15 15
-15 25 0 10 -4 19 -9 19 -5 0 -12 18 -16 41 -4 22 -14 43 -22 46 -8 3 -12 12
-9 19 3 8 -5 23 -17 34 -19 18 -20 23 -9 41 8 12 10 24 6 27 -4 4 -9 1 -11 -6
-7 -19 -23 -4 -23 22 0 12 -4 26 -10 32 -5 5 -10 29 -12 54 -3 44 -20 69 -45
70 -20 0 -16 -81 7 -128 25 -50 26 -70 5 -52 -8 7 -15 20 -15 29 0 9 -4 21 -8
27 -12 13 -35 122 -28 133 3 5 -1 14 -9 21 -10 9 -15 32 -15 74 0 34 -4 66
-10 72 -5 5 -10 80 -12 167 -2 153 -3 158 -22 155 -17 -2 -22 -13 -28 -53 -5
-27 -6 -72 -3 -100 2 -27 7 -84 10 -125 9 -114 25 -211 41 -253 8 -20 14 -46
14 -57 0 -11 9 -40 21 -65 11 -24 18 -48 15 -53 -3 -6 1 -15 9 -22 8 -7 15
-19 15 -26 0 -7 9 -28 20 -46 26 -43 26 -68 0 -35 -11 14 -20 32 -20 41 0 10
-6 13 -17 9 -10 -3 -15 -3 -11 2 4 4 -1 20 -12 35 -11 16 -20 33 -20 39 0 7
-7 14 -15 17 -8 4 -15 12 -15 20 0 15 -16 48 -37 74 -22 30 -76 270 -76 340 1
148 14 276 31 312 11 21 18 48 15 58 -4 14 0 20 11 20 9 0 16 6 16 13 0 8 9
24 20 37 11 13 20 27 20 33 0 5 7 6 15 3 52 -21 51 -21 33 0 -18 21 -19 17 34
114 9 17 15 37 12 44 -3 7 4 34 16 60 11 26 20 60 20 76 0 15 6 33 14 39 9 8
12 26 8 60 -2 29 1 57 9 72 7 13 12 33 11 45 -2 11 2 33 8 48 8 22 15 27 31
23 11 -3 34 -1 51 4 19 5 36 5 43 -1 6 -5 24 -8 40 -6 17 2 40 -4 53 -12 13
-9 49 -17 80 -18 31 -2 59 -9 61 -15 6 -19 19 11 14 31 -5 19 -31 30 -75 30
-16 0 -28 4 -28 9 0 5 -15 11 -32 14 -46 7 -162 48 -166 59 -2 4 -12 8 -22 8
-20 0 -34 26 -19 36 6 3 6 10 1 17 -12 15 -20 107 -10 107 5 0 9 26 9 58 1 31
3 49 6 40 2 -10 10 -18 18 -18z m-460 -10 c3 -11 11 -20 16 -20 5 0 18 -8 28
-17 10 -10 30 -27 43 -38 38 -32 44 -47 14 -35 -25 9 -43 23 -89 66 -12 12
-32 24 -45 28 -19 6 -21 10 -11 22 16 20 37 17 44 -6z m-1195 -51 c0 -19 -23
-20 -42 -2 -19 20 -19 20 11 15 17 -2 31 -8 31 -13z m-460 -44 c0 -30 -7 -73
-16 -95 -9 -22 -13 -47 -10 -56 8 -20 -12 -96 -23 -90 -13 9 6 226 20 226 5 0
9 16 9 35 0 19 5 35 10 35 6 0 10 -25 10 -55z m370 19 c0 -2 -9 -4 -21 -4 -11
0 -18 4 -14 10 5 8 35 3 35 -6z m3251 -20 c46 -21 93 -37 104 -38 11 -1 26
-14 35 -31 8 -16 19 -33 24 -36 5 -4 5 -12 2 -18 -4 -6 -2 -11 3 -11 6 0 11
-6 11 -14 0 -8 7 -16 15 -20 8 -3 15 -13 15 -22 0 -9 8 -24 19 -33 10 -9 26
-32 36 -51 10 -19 24 -39 31 -43 8 -4 14 -17 14 -27 0 -11 7 -20 15 -20 9 0
19 -8 22 -17 4 -10 28 -40 55 -67 42 -42 63 -76 41 -64 -5 3 -23 10 -40 17
-18 7 -33 20 -33 28 0 10 -6 12 -21 8 -14 -5 -19 -3 -15 4 4 6 -4 13 -18 17
-14 3 -28 15 -31 25 -4 10 -10 19 -15 19 -11 0 -198 180 -187 180 4 0 -11 16
-33 36 -22 20 -38 39 -37 43 1 3 -11 20 -26 36 -16 17 -35 44 -42 61 -8 17
-21 36 -29 44 -17 13 -21 30 -8 30 5 0 46 -16 93 -36z m-840 -27 c-13 -13 -21
5 -14 33 l6 24 9 -24 c5 -14 5 -27 -1 -33z m-881 10 c0 -5 -4 -5 -10 -2 -5 3
-10 14 -10 23 0 15 2 15 10 2 5 -8 10 -19 10 -23z m-1453 -9 c-3 -7 -5 -2 -5
12 0 14 2 19 5 13 2 -7 2 -19 0 -25z m133 -59 c0 -5 5 -9 11 -9 12 0 69 -54
69 -67 0 -4 22 -23 48 -41 43 -31 44 -33 17 -27 -16 4 -34 13 -38 21 -4 8 -15
14 -23 14 -21 0 -52 20 -101 67 -36 33 -46 50 -50 85 l-5 43 36 -39 c20 -21
36 -42 36 -47z m1230 51 c0 -5 6 -10 13 -10 8 0 24 -9 37 -20 13 -11 28 -20
33 -20 6 0 8 -2 5 -5 -7 -8 -58 16 -58 27 0 4 -11 8 -25 8 -16 0 -25 6 -25 15
0 8 5 15 10 15 6 0 10 -4 10 -10z m970 -60 c0 -40 -13 -53 -24 -25 -5 15 9 65
19 65 3 0 5 -18 5 -40z m1097 -17 c1 -37 -1 -41 -13 -29 -8 8 -14 21 -14 29 0
9 -5 17 -12 19 -17 6 1 30 20 26 12 -2 17 -15 19 -45z m-1306 11 c11 -14 10
-15 -11 -12 -13 1 -25 9 -28 16 -5 17 23 15 39 -4z m-581 -34 c8 -5 11 -10 5
-10 -5 0 -17 5 -25 10 -8 5 -10 10 -5 10 6 0 17 -5 25 -10z m605 -53 c15 5 17
2 12 -18 -4 -13 -7 -37 -7 -52 0 -16 -4 -26 -10 -22 -6 4 -10 -5 -10 -20 0
-29 -37 -85 -57 -85 -17 0 -17 -17 0 -23 9 -3 9 -7 -2 -20 -19 -23 -30 -21
-41 8 -11 28 2 114 18 124 5 3 15 26 22 51 7 25 17 54 22 64 10 18 11 18 23 3
8 -11 19 -15 30 -10z m-2041 7 c9 -3 16 -11 16 -16 0 -6 7 -25 16 -44 23 -47
12 -64 -11 -18 -11 21 -26 45 -32 52 -13 13 -17 32 -9 32 2 0 11 -3 20 -6z
m2116 -38 c0 -3 -4 -8 -10 -11 -5 -3 -10 -1 -10 4 0 6 5 11 10 11 6 0 10 -2
10 -4z m73 -39 c-3 -15 0 -13 11 8 12 26 22 21 17 -8 -1 -4 -2 -19 -3 -32 -2
-22 -7 -25 -40 -25 -21 0 -38 5 -38 10 0 6 5 10 11 10 6 0 8 8 4 19 -8 26 15
63 31 50 7 -5 10 -20 7 -32z m141 11 c5 -10 7 -10 12 0 9 18 32 15 46 -8 7
-11 20 -20 29 -20 12 0 18 -12 22 -42 8 -65 40 -193 49 -196 4 -2 8 -17 8 -33
0 -16 5 -29 11 -29 7 0 10 -14 7 -35 -3 -25 0 -35 10 -35 10 0 13 -10 10 -39
-2 -22 1 -39 6 -38 5 1 12 -11 16 -28 4 -16 12 -40 18 -52 10 -19 9 -23 -9
-28 -19 -6 -21 -12 -16 -59 9 -71 17 -228 10 -191 -2 17 -9 35 -14 41 -4 5 -9
36 -10 67 -1 31 -6 57 -11 57 -5 0 -8 17 -7 38 2 33 -44 285 -58 322 -3 8 -8
35 -10 60 -3 25 -9 49 -14 55 -5 5 -9 22 -9 37 0 15 -5 28 -11 28 -5 0 -8 4
-5 9 10 16 -5 41 -25 41 -16 0 -19 -8 -19 -49 0 -28 4 -52 9 -55 9 -6 14 -35
27 -144 5 -36 11 -52 19 -48 13 4 23 -64 31 -208 2 -38 9 -73 14 -76 11 -7 20
-78 25 -195 2 -38 7 -81 12 -95 6 -14 9 -47 8 -75 -2 -27 -4 -86 -5 -130 -2
-44 -6 -84 -9 -90 -6 -10 -10 -40 -12 -77 0 -10 -4 -18 -10 -18 -5 0 -8 3 -7
8 1 4 -8 27 -21 51 -15 29 -20 52 -16 69 5 22 4 24 -9 13 -14 -12 -16 -10 -16
13 0 14 -5 26 -11 26 -8 0 -9 13 -4 38 6 35 6 36 -10 17 -16 -20 -16 -20 -11
4 4 21 -3 45 -37 119 -6 13 -11 47 -10 77 1 41 -2 53 -12 49 -10 -4 -12 0 -8
15 6 24 -14 54 -33 47 -9 -3 -13 14 -16 62 -3 62 -1 70 29 113 18 26 33 50 33
53 0 4 7 15 16 23 15 16 12 61 -5 73 -5 3 -11 28 -14 55 -4 28 -11 73 -16 100
-6 28 -13 66 -17 85 -4 19 -11 41 -17 48 -14 18 -11 145 4 171 15 23 54 28 63
9z m-2094 -8 c0 -5 -2 -10 -4 -10 -3 0 -8 5 -11 10 -3 6 -1 10 4 10 6 0 11 -4
11 -10z m2310 -23 c14 -8 24 -19 22 -26 -3 -14 34 -147 49 -173 5 -10 9 -31 9
-48 0 -18 6 -33 15 -36 8 -4 15 -12 15 -20 0 -8 4 -22 9 -32 26 -50 33 -71 27
-80 -3 -5 1 -18 9 -28 8 -10 15 -31 15 -46 0 -16 4 -28 8 -28 5 0 21 -25 37
-55 15 -30 31 -55 36 -55 5 0 9 -6 9 -14 0 -7 7 -19 15 -26 8 -7 15 -21 15
-31 0 -11 5 -19 10 -19 6 0 18 -17 28 -37 9 -21 25 -45 34 -54 10 -9 18 -19
18 -21 0 -6 69 -85 145 -166 33 -35 60 -67 60 -70 0 -4 5 -6 12 -4 17 4 17
-15 1 -21 -7 -3 -1 -6 15 -6 15 -1 27 -5 27 -11 0 -5 8 -10 18 -11 14 0 14 -2
-3 -9 -18 -8 -17 -9 7 -9 19 -1 29 -8 34 -23 3 -13 13 -31 22 -40 14 -16 13
-20 -3 -38 -17 -19 -17 -20 0 -20 22 0 55 -28 55 -46 0 -17 70 -148 81 -152 5
-2 9 -10 9 -18 0 -8 5 -14 10 -14 6 0 14 -8 17 -17 4 -10 14 -29 22 -42 9 -14
14 -35 13 -48 -2 -13 2 -23 8 -23 6 0 15 -10 20 -22 6 -13 19 -36 29 -53 11
-16 20 -33 20 -37 1 -12 -57 -9 -82 4 -50 26 -58 28 -68 22 -6 -3 -21 -2 -32
4 -12 5 -48 22 -79 37 -34 15 -58 33 -58 42 0 11 -6 14 -27 9 -14 -4 -29 -4
-32 1 -9 12 -42 32 -72 44 -15 6 -29 19 -32 29 -3 10 -29 32 -59 49 -50 28
-118 92 -118 111 0 5 -3 10 -7 12 -18 8 -103 162 -103 186 0 5 -8 24 -17 43
-9 19 -23 77 -29 129 -7 52 -18 120 -24 150 -7 30 -12 73 -13 95 -1 22 -8 46
-14 53 -7 7 -13 26 -13 42 0 16 -4 31 -9 34 -11 7 -22 69 -22 118 0 23 -5 38
-14 42 -8 3 -15 14 -15 24 0 10 -9 45 -21 78 -12 32 -25 75 -29 94 -12 54 -40
153 -47 170 -4 8 -12 39 -18 68 -11 50 -10 52 9 52 12 0 32 -6 46 -13z m-359
-77 c10 -6 19 -19 19 -28 0 -10 8 -28 17 -41 9 -14 20 -45 25 -70 4 -25 12
-66 18 -91 6 -25 15 -74 21 -109 11 -62 10 -67 -17 -119 -35 -66 -108 -142
-194 -201 -85 -57 -150 -94 -157 -87 -3 3 -7 23 -9 44 -3 34 0 41 24 53 43 21
134 79 150 95 8 8 11 18 7 22 -4 4 -10 1 -12 -5 -3 -7 -11 -13 -19 -13 -8 0
-14 -4 -14 -8 0 -5 -16 -14 -35 -22 -19 -8 -35 -17 -35 -20 0 -8 -46 -30 -63
-30 -9 0 -13 26 -14 88 -1 81 0 89 24 114 20 21 24 32 18 55 -16 64 -17 132
-2 148 24 24 39 10 80 -73 44 -91 46 -122 11 -168 -33 -42 -22 -45 17 -3 38
41 39 104 4 169 -14 25 -30 55 -36 68 -7 12 -16 22 -21 22 -4 0 -8 12 -8 26 0
14 4 23 10 19 6 -3 10 -14 10 -23 0 -25 61 -82 87 -82 13 0 23 5 23 10 0 6 -6
10 -13 10 -20 0 -63 51 -71 82 -6 26 6 40 61 72 21 12 48 -71 68 -209 4 -22
11 -58 17 -80 8 -32 12 -36 19 -22 6 11 6 31 0 54 -5 21 -15 72 -21 113 -22
146 -45 187 -94 160 -37 -19 -39 -9 -9 38 17 27 36 42 52 45 14 2 30 5 34 6 5
0 17 -4 28 -9z m-265 -85 c16 -24 15 -27 -10 -60 -15 -19 -33 -35 -41 -35 -9
0 -12 -6 -9 -15 4 -8 1 -15 -5 -15 -6 0 -11 -5 -11 -10 0 -12 -45 -60 -56 -60
-4 0 0 8 8 18 9 9 29 47 46 83 17 37 35 70 41 73 6 4 11 16 11 27 0 25 6 24
26 -6z m1629 -103 c-2 -3 -12 -1 -22 2 -15 6 -15 9 -3 16 13 8 35 -8 25 -18z
m40 -22 c3 -5 2 -10 -4 -10 -5 0 -13 5 -16 10 -3 6 -2 10 4 10 5 0 13 -4 16
-10z m-2204 -48 c-6 -2 -11 -17 -11 -32 0 -34 -69 -139 -87 -133 -10 4 -10 9
0 26 7 12 17 25 23 29 5 4 26 41 45 83 26 58 35 71 37 54 2 -13 -1 -25 -7 -27z
m2294 -12 c8 -13 -1 -13 -26 0 -10 6 -19 15 -19 21 0 11 35 -5 45 -21z m-1768
-132 c-3 -7 -5 -2 -5 12 0 14 2 19 5 13 2 -7 2 -19 0 -25z m-682 12 c3 -5 2
-10 -4 -10 -5 0 -13 5 -16 10 -3 6 -2 10 4 10 5 0 13 -4 16 -10z m55 -60 c0
-6 -7 -13 -15 -16 -8 -4 -15 -11 -15 -17 0 -16 -62 -77 -78 -77 -8 0 1 15 22
33 20 18 36 36 36 40 0 9 33 45 43 46 4 1 7 -4 7 -9z m-1930 -19 c0 -6 -4 -13
-10 -16 -5 -3 -10 1 -10 9 0 9 5 16 10 16 6 0 10 -4 10 -9z m-20 -45 c0 -3 -4
-8 -10 -11 -5 -3 -10 -1 -10 4 0 6 5 11 10 11 6 0 10 -2 10 -4z m1811 -95
c-31 -31 -36 -26 -9 7 13 16 24 25 26 21 2 -4 -6 -17 -17 -28z m1059 -15 c0
-8 -6 -16 -12 -19 -10 -3 -10 -8 1 -21 16 -19 29 -78 38 -171 3 -33 9 -62 14
-66 5 -3 13 -25 18 -50 5 -24 13 -55 17 -69 7 -23 7 -24 -9 -8 -9 9 -17 24
-17 32 0 9 -5 26 -12 39 -24 47 -28 57 -28 74 0 10 -7 27 -15 37 -8 11 -15 30
-15 44 0 13 -4 21 -9 18 -10 -6 -22 42 -24 92 0 17 -4 32 -9 32 -11 0 44 49
55 50 4 0 7 -6 7 -14z m443 -132 c8 -28 14 -66 13 -85 -2 -19 -1 -38 3 -44 3
-5 7 -73 8 -150 3 -130 -3 -182 -28 -240 -4 -11 -13 -40 -19 -64 -6 -24 -22
-61 -36 -82 -13 -22 -22 -39 -19 -39 3 0 1 -9 -6 -21 -7 -14 -14 -18 -21 -11
-8 8 11 53 41 97 14 21 32 85 26 95 -13 22 -35 8 -55 -35 -11 -25 -25 -45 -30
-45 -6 0 -11 -10 -11 -22 -1 -21 -2 -21 -6 -3 -3 11 -10 23 -16 26 -14 9 0 42
16 36 9 -3 11 8 8 40 -2 25 2 50 8 56 6 6 11 24 11 39 0 16 4 36 9 46 13 27
30 84 35 122 3 19 10 51 15 70 6 19 11 58 11 87 0 28 5 64 10 79 7 17 7 31 1
38 -5 6 -7 31 -4 56 7 49 9 46 36 -46z m-544 25 c7 -23 15 -47 18 -55 3 -8 1
-14 -4 -14 -5 0 -14 19 -21 43 -7 23 -15 48 -18 55 -3 6 -2 12 4 12 5 0 14
-18 21 -41z m-55 -31 c9 -17 16 -39 16 -48 0 -10 7 -23 16 -31 9 -7 14 -22 11
-36 -2 -12 0 -20 4 -17 5 3 9 -9 9 -25 0 -22 5 -31 16 -31 12 0 15 -6 11 -21
-3 -12 0 -22 9 -26 8 -3 14 -14 14 -24 0 -10 5 -19 10 -19 6 0 10 -11 10 -25
0 -13 6 -28 14 -32 7 -4 18 -19 25 -33 l12 -25 -17 23 c-9 12 -23 22 -30 22
-8 0 -14 4 -14 9 0 5 -14 22 -31 39 -18 18 -28 35 -24 42 5 9 1 10 -14 5 -12
-4 -21 -2 -21 4 0 6 -13 11 -28 11 -23 0 -31 7 -42 35 -8 19 -17 35 -22 35 -4
0 -8 11 -8 25 0 14 -4 25 -9 25 -5 0 -12 14 -16 30 -4 17 -11 30 -16 30 -18 0
-9 42 11 47 11 3 20 9 20 14 0 5 11 9 25 9 14 0 25 -5 25 -11 0 -5 5 -7 10 -4
15 10 12 23 -7 28 -16 4 -16 5 -1 6 9 0 23 -13 32 -31z m-294 -58 c0 -8 7 -28
15 -44 8 -15 15 -42 14 -60 0 -26 -3 -22 -15 22 -7 29 -18 62 -24 72 -5 10
-10 27 -10 37 0 15 2 16 10 3 5 -8 10 -22 10 -30z m390 -26 c0 -8 -4 -12 -10
-9 -5 3 -10 13 -10 21 0 8 5 12 10 9 6 -3 10 -13 10 -21z m30 -74 c0 -11 -2
-20 -4 -20 -2 0 -6 9 -9 20 -3 11 -1 20 4 20 5 0 9 -9 9 -20z m17 -52 c-3 -7
-5 -2 -5 12 0 14 2 19 5 13 2 -7 2 -19 0 -25z m-357 -44 c0 -8 -4 -14 -10 -14
-5 0 -10 9 -10 19 0 11 -4 23 -10 26 -5 3 -10 12 -10 18 1 17 40 -32 40 -49z
m1439 -1 c2 -2 1 -6 -2 -10 -8 -8 -57 36 -57 50 0 6 12 0 28 -14 15 -13 29
-25 31 -26z m-1049 -16 c0 -5 -4 -5 -10 -2 -5 3 -10 14 -10 23 0 15 2 15 10 2
5 -8 10 -19 10 -23z m-195 -49 c65 -111 74 -132 68 -158 -10 -44 -15 -44 -30
0 -8 24 -25 60 -37 79 -13 20 -25 47 -29 61 -3 14 -9 35 -12 48 -13 39 9 23
40 -30z m-175 32 c0 -5 -4 -10 -10 -10 -5 0 -10 5 -10 10 0 6 5 10 10 10 6 0
10 -4 10 -10z m1450 0 c0 -5 -2 -10 -4 -10 -3 0 -8 5 -11 10 -3 6 -1 10 4 10
6 0 11 -4 11 -10z m-1228 -20 c6 0 59 -50 117 -111 80 -83 106 -116 104 -132
-2 -12 -5 -95 -7 -185 l-4 -163 -43 -57 c-54 -72 -172 -188 -227 -224 -42 -28
-54 -48 -28 -48 13 0 64 35 199 137 31 23 62 43 68 43 8 0 10 -17 5 -57 -12
-98 -32 -204 -45 -238 -5 -11 -21 -58 -36 -105 -26 -80 -55 -152 -76 -192 -5
-10 -9 -24 -9 -32 0 -8 -3 -16 -7 -18 -5 -1 -18 -23 -31 -48 -39 -77 -72 -132
-131 -214 -31 -43 -60 -85 -66 -94 -17 -27 -49 -51 -78 -57 -34 -8 -55 9 -83
63 -10 20 -22 39 -25 42 -4 3 -22 34 -41 70 -69 130 -110 206 -128 235 -10 17
-21 41 -25 53 -12 40 -77 142 -97 153 -14 8 -23 5 -41 -15 -15 -16 -28 -22
-36 -16 -11 6 -9 18 10 59 19 43 31 55 73 76 97 47 285 164 324 202 18 17 52
17 52 -1 0 -14 -65 -92 -120 -143 -19 -18 -31 -35 -27 -39 8 -8 88 63 132 118
30 37 58 48 70 27 4 -6 13 -8 21 -5 7 3 16 1 19 -4 4 -6 10 -10 16 -10 5 0 -2
18 -16 40 -14 22 -25 42 -25 45 0 3 24 40 53 83 29 42 65 103 81 134 15 32 31
60 37 63 5 4 9 13 9 21 0 8 9 36 21 62 32 72 36 83 50 133 10 36 16 45 30 42
10 -3 20 -11 23 -19 3 -8 14 -14 25 -14 11 0 23 -4 26 -10 3 -5 10 -10 16 -10
21 0 6 20 -41 56 -42 32 -50 43 -50 72 0 18 7 46 15 63 16 30 11 52 -20 89
-17 20 -55 89 -54 98 0 4 3 1 6 -5 2 -7 9 -13 15 -13z m1354 -67 c17 -13 36
-23 42 -23 7 0 12 -4 12 -9 0 -5 10 -12 23 -16 18 -6 19 -8 5 -12 -18 -4 -134
64 -142 84 -7 16 21 5 60 -24z m-1026 -44 c0 -5 -4 -9 -10 -9 -5 0 -10 7 -10
16 0 8 5 12 10 9 6 -3 10 -10 10 -16z m357 -23 c-2 -6 7 -22 20 -36 27 -29 34
-71 8 -50 -8 7 -15 19 -15 26 0 8 -4 14 -8 14 -8 0 -32 66 -32 86 0 5 7 0 15
-11 9 -10 14 -24 12 -29z m793 -6 c0 -5 -7 -10 -16 -10 -8 0 -12 5 -9 10 3 6
10 10 16 10 5 0 9 -4 9 -10z m-1110 -66 c0 -8 -4 -14 -10 -14 -5 0 -10 9 -10
21 0 11 5 17 10 14 6 -3 10 -13 10 -21z m388 -46 c17 -17 15 -38 -3 -38 -8 0
-15 4 -15 9 0 5 -3 16 -6 25 -7 19 7 21 24 4z m-118 -8 c0 -5 14 -23 30 -40
17 -17 30 -35 30 -41 0 -6 4 -8 9 -4 16 9 24 -15 11 -30 -9 -11 -9 -15 -1 -15
6 0 11 5 11 10 0 17 19 11 38 -11 9 -12 25 -30 36 -40 11 -11 16 -24 12 -35
-5 -14 -4 -15 9 -4 12 10 15 10 15 0 0 -6 23 -35 52 -63 29 -28 47 -52 40 -55
-7 -2 -12 -9 -12 -15 0 -8 4 -7 12 1 17 17 46 15 44 -4 -1 -12 9 -17 37 -18
27 -2 43 -10 55 -27 9 -13 16 -27 15 -30 -1 -4 6 -5 16 -2 11 3 29 -8 50 -30
18 -18 48 -40 67 -47 19 -8 34 -18 34 -23 0 -5 -7 -7 -15 -4 -8 4 -16 3 -19
-2 -3 -4 14 -7 37 -8 23 0 52 -4 64 -8 31 -10 40 17 16 49 -11 16 -28 25 -45
26 -15 0 -30 5 -33 10 -3 6 1 10 9 10 9 0 16 5 16 10 0 6 -4 10 -9 10 -6 0
-13 -4 -16 -10 -11 -17 -29 -11 -65 24 -20 18 -46 37 -58 40 -17 6 -21 13 -16
28 4 13 2 18 -5 14 -11 -7 -51 14 -51 26 0 5 9 8 21 8 11 0 18 4 14 9 -8 15
15 25 28 12 6 -6 18 -11 27 -11 26 0 70 -24 70 -38 0 -7 5 -10 11 -6 6 3 21 2
32 -4 12 -6 63 -22 112 -37 50 -15 98 -31 107 -36 10 -5 89 -10 175 -11 87 0
142 -3 123 -5 -19 -2 -42 -7 -50 -10 -39 -16 -190 -16 -206 0 -11 11 -36 8
-29 -3 12 -19 -29 -10 -52 12 -20 19 -25 20 -34 8 -5 -8 -8 -24 -7 -35 4 -23
75 -54 130 -54 34 -1 36 -3 32 -27 -4 -22 -2 -25 16 -19 11 3 20 2 20 -3 0
-16 -40 -21 -156 -21 -206 0 -321 14 -355 45 -11 10 -27 14 -40 11 -17 -5 -34
7 -79 51 -31 31 -118 115 -193 187 -76 72 -136 136 -134 145 1 9 -7 16 -21 18
-13 2 -26 10 -29 18 -3 8 -9 11 -14 8 -12 -7 -11 -2 7 41 12 30 18 35 26 24 7
-10 8 -6 4 14 -5 20 -3 27 9 27 8 0 15 -4 15 -10z m-2445 -70 c17 -28 -90
-170 -180 -237 -44 -34 -126 -72 -187 -88 -74 -19 -200 -24 -205 -8 -3 7 20
39 50 70 30 32 70 83 90 113 21 34 55 69 89 92 48 34 64 39 134 44 43 4 86 10
94 15 21 12 108 11 115 -1z m399 -31 c-4 -8 -3 -9 5 -5 6 4 18 2 26 -4 11 -9
12 -16 2 -33 -7 -12 -14 -24 -18 -27 -3 -3 -35 -43 -72 -88 -37 -46 -67 -77
-67 -68 0 9 5 16 11 16 6 0 8 7 5 16 -6 16 8 49 31 72 7 7 13 22 13 32 0 10 4
21 8 24 4 3 14 27 22 55 11 42 15 47 27 35 8 -8 11 -19 7 -25z m806 6 c0 -7 6
-20 13 -27 8 -7 17 -25 20 -40 4 -15 14 -33 22 -42 8 -8 15 -23 15 -34 0 -11
7 -25 15 -32 8 -7 15 -18 15 -24 -1 -18 -30 25 -58 84 -14 30 -32 61 -39 68
-7 7 -13 19 -13 27 0 7 -3 21 -7 31 -4 12 -3 15 5 10 7 -4 12 -13 12 -21z
m1020 1 c0 -13 -7 -27 -16 -30 -8 -3 -13 -10 -10 -15 7 -11 -32 -81 -44 -81
-17 0 -20 18 -7 32 8 7 20 31 27 53 20 62 50 86 50 41z m-140 -93 c0 -5 -5
-15 -10 -23 -8 -12 -10 -11 -10 8 0 12 5 22 10 22 6 0 10 -3 10 -7z m180 -3
c0 -5 -4 -10 -10 -10 -5 0 -10 5 -10 10 0 6 5 10 10 10 6 0 10 -4 10 -10z
m589 -48 c40 -33 42 -36 26 -48 -16 -12 -23 -8 -61 31 -72 73 -49 84 35 17z
m-617 0 c-7 -9 -17 -27 -22 -40 -5 -13 -14 -20 -20 -17 -5 3 -10 -2 -10 -12 0
-10 -11 -31 -24 -48 -21 -26 -25 -28 -31 -13 -5 12 2 28 19 49 14 17 26 35 26
40 0 4 13 15 29 24 23 11 28 20 24 37 -5 19 -3 21 8 10 11 -10 11 -16 1 -30z
m-1027 8 c3 -5 1 -10 -4 -10 -6 0 -11 5 -11 10 0 6 2 10 4 10 3 0 8 -4 11 -10z
m935 5 c0 -14 -32 -65 -40 -65 -13 0 -13 1 6 38 13 28 34 43 34 27z m-21 -174
c-3 -6 -10 -7 -18 -2 -7 5 -10 14 -6 21 9 14 29 -2 24 -19z m-35 -34 c-7 -22
-22 -37 -37 -37 -10 0 1 39 15 57 15 19 30 5 22 -20z m-699 13 c3 -5 1 -10 -4
-10 -6 0 -11 5 -11 10 0 6 2 10 4 10 3 0 8 -4 11 -10z m-549 -128 l46 -75 -23
-43 c-24 -48 -24 -47 35 -176 35 -77 35 -92 -5 -84 -32 6 -65 -6 -87 -33 -22
-28 -131 -211 -137 -232 -8 -24 -35 -25 -36 -1 -4 48 13 231 31 332 34 193 61
307 87 372 19 48 26 43 89 -60z m-801 38 c-3 -5 -13 -10 -21 -10 -8 0 -12 5
-9 10 3 6 13 10 21 10 8 0 12 -4 9 -10z m1525 -24 c0 -3 -4 -8 -10 -11 -5 -3
-10 -1 -10 4 0 6 5 11 10 11 6 0 10 -2 10 -4z m-1560 -15 c0 -5 -7 -12 -16
-15 -24 -9 -28 -7 -14 9 14 17 30 20 30 6z m-40 -35 c0 -3 -4 -8 -10 -11 -5
-3 -10 -1 -10 4 0 6 5 11 10 11 6 0 10 -2 10 -4z m3033 -43 c-18 -7 -16 -23 2
-23 8 0 15 3 15 8 0 4 28 6 62 4 60 -3 63 -5 65 -30 1 -18 15 -39 42 -62 23
-20 41 -39 41 -43 0 -13 -38 -7 -43 7 -3 8 -16 16 -29 18 -16 2 -22 9 -21 23
1 11 0 14 -3 8 -8 -18 -33 -16 -40 2 -4 8 -15 15 -25 15 -10 0 -19 5 -19 10 0
6 -11 10 -24 10 -20 0 -76 40 -76 55 0 3 15 5 33 4 17 0 26 -3 20 -6z m507
-23 c21 -16 43 -30 49 -30 6 0 8 -7 5 -15 -5 -11 1 -15 20 -15 14 0 49 -13 78
-28 29 -16 75 -35 102 -43 27 -8 51 -20 54 -27 2 -8 8 -10 11 -5 7 10 141 -17
141 -28 0 -6 -53 -11 -167 -13 -34 -1 -64 -4 -68 -7 -7 -8 -187 38 -194 49
-15 22 -42 21 -53 -3 -12 -27 -3 -29 -97 20 -16 8 -36 15 -45 15 -9 0 -16 4
-16 9 0 5 -13 14 -30 21 -33 14 -36 20 -18 38 8 8 9 12 1 12 -6 0 -13 -6 -16
-12 -6 -18 -33 -1 -65 40 l-25 32 27 0 c18 0 26 -5 26 -17 0 -15 1 -15 18 0
14 13 38 17 98 17 43 0 86 5 94 10 22 14 29 13 70 -20z m-3590 16 c0 -3 -4 -8
-10 -11 -5 -3 -10 -1 -10 4 0 6 5 11 10 11 6 0 10 -2 10 -4z m2081 -397 c-11
-283 -18 -378 -40 -575 -14 -124 -48 -322 -61 -359 -9 -27 -71 -217 -179 -550
-21 -66 -55 -174 -76 -240 -20 -66 -41 -129 -45 -140 -28 -74 -49 -159 -53
-213 -6 -69 -11 -82 -28 -65 -12 12 -59 121 -59 136 0 4 -9 27 -20 49 -11 23
-20 50 -20 59 0 10 -4 20 -9 23 -5 3 -11 23 -14 43 -6 48 -37 178 -72 308 -33
122 -33 122 -83 370 -22 110 -50 261 -62 335 -11 74 -25 156 -31 182 -9 42 -8
54 11 95 68 150 87 199 100 266 l12 68 47 -78 c25 -43 55 -95 66 -116 11 -20
23 -37 27 -37 5 0 8 -5 8 -12 0 -6 11 -26 26 -45 20 -26 32 -33 60 -33 18 0
34 5 34 10 0 6 6 10 13 10 27 0 152 149 213 255 62 106 154 304 154 330 0 8 4
23 9 33 25 50 31 69 56 176 4 20 9 26 17 18 7 -7 7 -100 -1 -303z m2134 281
c3 -5 12 -7 20 -3 10 3 15 -1 15 -12 0 -9 -4 -14 -9 -11 -5 3 -28 2 -52 -2
-24 -4 -57 -5 -74 -1 l-30 7 33 1 c18 0 40 8 48 16 17 17 40 20 49 5z m-3005
-221 c0 -20 -24 -26 -35 -9 -4 6 -4 17 -1 25 7 20 36 7 36 -16z m-336 -194
c-8 -121 9 -266 39 -335 18 -43 19 -68 17 -520 -2 -509 2 -563 50 -815 6 -33
18 -98 26 -145 8 -47 19 -101 25 -121 14 -44 4 -69 -17 -42 -7 10 -14 29 -14
44 0 14 -4 29 -9 35 -9 9 -31 82 -70 224 -17 65 -35 155 -56 280 -3 19 -10 60
-15 90 -6 30 -14 89 -20 130 -5 41 -16 125 -24 185 -8 61 -18 162 -21 225 -4
63 -11 144 -16 180 -5 36 -9 110 -9 165 -1 55 -5 147 -9 205 -8 97 -3 132 18
150 6 5 22 32 64 112 14 26 28 44 31 41 3 -4 6 -1 6 5 0 7 2 12 5 12 3 0 3
-47 -1 -105z m-294 -909 c15 -51 31 -93 58 -156 6 -14 23 -56 37 -95 15 -38
30 -79 35 -90 24 -56 63 -184 90 -295 32 -132 36 -144 70 -255 32 -104 68
-202 101 -273 16 -35 29 -65 29 -69 0 -17 -65 16 -140 71 -47 35 -114 84 -150
109 -36 26 -114 83 -175 128 -60 44 -188 133 -283 196 l-173 117 -50 -11 c-48
-9 -51 -9 -94 25 -25 19 -45 40 -45 47 0 6 12 22 26 36 106 97 343 375 465
546 15 21 47 46 75 60 l49 22 31 -36 c18 -20 37 -55 44 -77z m-701 -613 c7
-16 18 -39 26 -53 16 -28 20 -66 7 -74 -5 -3 -33 20 -63 50 l-54 55 28 25 c36
31 42 30 56 -3z"/>
<path d="M2480 5485 c-18 -21 -12 -24 61 -35 125 -18 199 -37 289 -74 69 -28
69 -28 145 -71 28 -16 62 -34 76 -42 15 -7 32 -20 39 -28 7 -8 17 -15 22 -15
10 0 54 -33 93 -69 19 -17 55 -35 55 -27 0 2 -39 34 -87 70 -49 36 -92 70 -98
76 -5 5 -19 19 -30 30 -10 11 -31 27 -45 34 -14 7 -52 27 -85 44 -95 49 -226
91 -304 98 -39 4 -74 11 -77 15 -8 14 -40 10 -54 -6z"/>
<path d="M2790 5234 c0 -12 55 -54 70 -54 9 1 2 12 -20 30 -33 29 -50 37 -50
24z"/>
<path d="M2707 5191 c-20 -40 -29 -94 -16 -85 5 3 9 10 9 15 0 6 7 17 15 25
19 20 30 63 19 74 -5 5 -17 -7 -27 -29z"/>
<path d="M3310 5072 c0 -5 7 -15 15 -22 8 -7 15 -8 15 -2 0 5 -7 15 -15 22 -8
7 -15 8 -15 2z"/>
<path d="M3570 5060 c0 -5 5 -10 11 -10 5 0 7 5 4 10 -3 6 -8 10 -11 10 -2 0
-4 -4 -4 -10z"/>
<path d="M3420 4971 c0 -44 4 -82 9 -85 4 -3 9 30 10 73 1 46 -3 82 -9 86 -6
4 -10 -21 -10 -74z"/>
<path d="M3408 4864 c-5 -4 -8 -26 -7 -48 l1 -41 9 33 c11 37 9 68 -3 56z"/>
<path d="M1670 4717 c0 -2 16 -37 36 -78 20 -41 40 -85 44 -99 4 -16 14 -25
26 -25 28 0 20 48 -17 106 -40 62 -89 115 -89 96z"/>
<path d="M3421 4694 c0 -11 3 -14 6 -6 3 7 2 16 -1 19 -3 4 -6 -2 -5 -13z"/>
<path d="M1550 4373 c0 -12 5 -25 10 -28 13 -8 13 15 0 35 -8 12 -10 11 -10
-7z"/>
<path d="M2683 3940 c-24 -10 -43 -25 -43 -32 0 -12 -62 -56 -123 -88 -16 -8
-38 -33 -50 -55 -12 -22 -25 -41 -29 -43 -5 -2 -8 -8 -8 -14 0 -16 171 3 195
22 27 21 82 21 121 1 48 -26 119 -27 155 -3 44 29 79 78 79 110 0 35 -9 43
-75 66 -27 10 -59 21 -70 26 -11 4 -33 13 -48 19 -38 15 -55 14 -104 -9z"/>
<path d="M2545 3430 c3 -5 8 -10 11 -10 2 0 4 5 4 10 0 6 -5 10 -11 10 -5 0
-7 -4 -4 -10z"/>
<path d="M2268 3053 c7 -3 16 -2 19 1 4 3 -2 6 -13 5 -11 0 -14 -3 -6 -6z"/>
<path d="M4655 5660 c-3 -5 -1 -10 4 -10 6 0 11 5 11 10 0 6 -2 10 -4 10 -3 0
-8 -4 -11 -10z"/>
<path d="M4326 5445 c4 -8 7 -15 9 -15 2 0 5 7 9 15 3 9 0 15 -9 15 -9 0 -12
-6 -9 -15z"/>
<path d="M4540 5566 c0 -2 7 -7 16 -10 8 -3 12 -2 9 4 -6 10 -25 14 -25 6z"/>
<path d="M5031 4604 c0 -11 3 -14 6 -6 3 7 2 16 -1 19 -3 4 -6 -2 -5 -13z"/>
<path d="M3960 5080 c0 -5 5 -10 10 -10 6 0 10 5 10 10 0 6 -4 10 -10 10 -5 0
-10 -4 -10 -10z"/>
<path d="M3922 4929 c1 -12 8 -24 15 -26 7 -3 9 3 6 17 -8 29 -25 37 -21 9z"/>
<path d="M3870 4910 c0 -11 4 -20 9 -20 5 0 7 9 4 20 -3 11 -7 20 -9 20 -2 0
-4 -9 -4 -20z"/>
<path d="M3665 4710 c-3 -5 -1 -10 4 -10 6 0 11 5 11 10 0 6 -2 10 -4 10 -3 0
-8 -4 -11 -10z"/>
<path d="M3870 4696 c0 -9 5 -16 10 -16 6 0 10 4 10 9 0 6 -4 13 -10 16 -5 3
-10 -1 -10 -9z"/>
<path d="M3600 4650 c0 -5 5 -10 10 -10 6 0 10 5 10 10 0 6 -4 10 -10 10 -5 0
-10 -4 -10 -10z"/>
<path d="M3760 4560 c0 -5 7 -10 15 -10 8 0 15 5 15 10 0 6 -7 10 -15 10 -8 0
-15 -4 -15 -10z"/>
<path d="M3550 4510 c0 -5 5 -10 10 -10 6 0 10 5 10 10 0 6 -4 10 -10 10 -5 0
-10 -4 -10 -10z"/>
<path d="M3961 4504 c0 -11 3 -14 6 -6 3 7 2 16 -1 19 -3 4 -6 -2 -5 -13z"/>
<path d="M3580 4450 c0 -5 4 -10 9 -10 6 0 13 5 16 10 3 6 -1 10 -9 10 -9 0
-16 -4 -16 -10z"/>
<path d="M3900 4400 c0 -19 3 -21 12 -12 9 9 9 15 0 24 -9 9 -12 7 -12 -12z"/>
<path d="M3460 4340 c0 -5 5 -10 10 -10 6 0 10 5 10 10 0 6 -4 10 -10 10 -5 0
-10 -4 -10 -10z"/>
<path d="M3921 4334 c0 -11 3 -14 6 -6 3 7 2 16 -1 19 -3 4 -6 -2 -5 -13z"/>
<path d="M3945 4260 c-3 -5 -1 -10 4 -10 6 0 11 5 11 10 0 6 -2 10 -4 10 -3 0
-8 -4 -11 -10z"/>
<path d="M3791 4094 c0 -11 3 -14 6 -6 3 7 2 16 -1 19 -3 4 -6 -2 -5 -13z"/>
<path d="M3731 4077 c-14 -26 -22 -217 -9 -217 4 0 8 -26 9 -57 0 -32 5 -80
10 -108 5 -27 15 -79 21 -115 6 -35 17 -70 24 -78 8 -7 14 -20 14 -28 0 -8 4
-22 9 -32 13 -26 31 -86 31 -105 0 -9 11 -28 24 -42 14 -15 28 -39 31 -53 7
-32 33 -65 58 -75 9 -3 17 -4 17 -1 0 4 -62 132 -90 185 -9 17 -22 85 -40 212
-7 44 -11 164 -11 268 1 172 -5 220 -23 173 -3 -9 -7 -100 -8 -202 -1 -164 -2
-178 -10 -112 -5 41 -11 150 -14 243 -4 125 -8 167 -18 167 -7 0 -18 -10 -25
-23z"/>
<path d="M4047 3963 c-3 -5 -2 -15 2 -22 5 -7 11 -9 14 -4 3 5 2 15 -2 22 -5
7 -11 9 -14 4z"/>
<path d="M3658 3664 c-5 -4 -8 -16 -8 -28 0 -14 3 -17 11 -9 6 6 9 19 7 28 -1
9 -6 13 -10 9z"/>
<path d="M3711 3634 c0 -11 3 -14 6 -6 3 7 2 16 -1 19 -3 4 -6 -2 -5 -13z"/>
<path d="M3770 3430 c0 -19 3 -21 12 -12 9 9 9 15 0 24 -9 9 -12 7 -12 -12z"/>
<path d="M4142 5040 c0 -14 2 -19 5 -12 2 6 2 18 0 25 -3 6 -5 1 -5 -13z"/>
<path d="M4114 4960 c0 -11 1 -20 3 -20 1 0 7 9 13 20 8 15 8 20 -3 20 -7 0
-13 -9 -13 -20z"/>
<path d="M4424 4976 c-8 -22 3 -33 18 -18 9 9 9 15 0 24 -9 9 -13 7 -18 -6z"/>
<path d="M4505 4980 c4 -6 11 -8 16 -5 14 9 11 15 -7 15 -8 0 -12 -5 -9 -10z"/>
<path d="M4670 4495 c0 -8 5 -15 10 -15 6 0 10 7 10 15 0 8 -4 15 -10 15 -5 0
-10 -7 -10 -15z"/>
<path d="M4467 4440 c-13 -13 -15 -20 -7 -25 13 -8 30 11 30 33 0 15 -1 15
-23 -8z"/>
<path d="M4415 4340 c-3 -5 -2 -10 4 -10 5 0 13 5 16 10 3 6 2 10 -4 10 -5 0
-13 -4 -16 -10z"/>
<path d="M4592 4315 c0 -16 2 -22 5 -12 2 9 2 23 0 30 -3 6 -5 -1 -5 -18z"/>
<path d="M4425 4280 c-17 -7 -14 -9 13 -9 20 -1 31 3 27 9 -7 12 -13 12 -40 0z"/>
<path d="M4810 4470 c0 -5 5 -10 10 -10 6 0 10 5 10 10 0 6 -4 10 -10 10 -5 0
-10 -4 -10 -10z"/>
<path d="M5395 3710 c-3 -5 1 -10 10 -10 9 0 13 5 10 10 -3 6 -8 10 -10 10 -2
0 -7 -4 -10 -10z"/>
<path d="M5078 3663 c7 -3 16 -2 19 1 4 3 -2 6 -13 5 -11 0 -14 -3 -6 -6z"/>
<path d="M5158 3623 c7 -3 16 -2 19 1 4 3 -2 6 -13 5 -11 0 -14 -3 -6 -6z"/>
<path d="M5110 3575 c0 -8 7 -15 15 -15 9 0 12 6 9 15 -4 8 -10 15 -15 15 -5
0 -9 -7 -9 -15z"/>
<path d="M4295 4470 c-3 -5 1 -10 9 -10 9 0 16 5 16 10 0 6 -4 10 -9 10 -6 0
-13 -4 -16 -10z"/>
<path d="M4681 3604 c0 -11 3 -14 6 -6 3 7 2 16 -1 19 -3 4 -6 -2 -5 -13z"/>
<path d="M4116 4134 c-9 -24 -7 -27 9 -10 17 17 19 26 6 26 -5 0 -12 -7 -15
-16z"/>
<path d="M4045 2900 c3 -5 8 -10 11 -10 2 0 4 5 4 10 0 6 -5 10 -11 10 -5 0
-7 -4 -4 -10z"/>
<path d="M4085 2860 c3 -5 8 -10 11 -10 2 0 4 5 4 10 0 6 -5 10 -11 10 -5 0
-7 -4 -4 -10z"/>
<path d="M3714 2767 c-11 -12 -12 -17 -4 -11 8 6 22 13 30 16 9 3 10 7 3 11
-6 4 -19 -3 -29 -16z"/>
<path d="M4908 3423 c6 -2 18 -2 25 0 6 3 1 5 -13 5 -14 0 -19 -2 -12 -5z"/>
<path d="M5395 3250 c3 -5 13 -10 21 -10 8 0 14 5 14 10 0 6 -9 10 -21 10 -11
0 -17 -4 -14 -10z"/>
<path d="M5448 3203 c6 -2 18 -2 25 0 6 3 1 5 -13 5 -14 0 -19 -2 -12 -5z"/>
<path d="M5225 3180 c-3 -5 -1 -10 4 -10 6 0 11 5 11 10 0 6 -2 10 -4 10 -3 0
-8 -4 -11 -10z"/>
<path d="M5330 3120 c0 -5 5 -10 10 -10 6 0 10 5 10 10 0 6 -4 10 -10 10 -5 0
-10 -4 -10 -10z"/>
<path d="M5335 3080 c3 -5 8 -10 11 -10 2 0 4 5 4 10 0 6 -5 10 -11 10 -5 0
-7 -4 -4 -10z"/>
<path d="M5620 3080 c0 -5 9 -10 21 -10 11 0 17 5 14 10 -3 6 -13 10 -21 10
-8 0 -14 -4 -14 -10z"/>
<path d="M3240 2946 c0 -27 15 -42 25 -26 8 13 -3 50 -16 50 -5 0 -9 -11 -9
-24z"/>
<path d="M5840 2890 c0 -5 5 -10 11 -10 5 0 7 5 4 10 -3 6 -8 10 -11 10 -2 0
-4 -4 -4 -10z"/>
<path d="M4160 7009 c0 -5 9 -9 20 -9 11 0 20 2 20 4 0 2 -9 6 -20 9 -11 3
-20 1 -20 -4z"/>
<path d="M1730 6930 c-19 -16 -38 -26 -41 -24 -4 2 -15 1 -24 -2 -13 -5 -14
-9 -3 -15 10 -7 8 -10 -8 -15 -15 -4 -20 -11 -17 -25 4 -13 0 -19 -10 -19 -9
0 -18 -9 -22 -19 -3 -11 -23 -37 -43 -59 -20 -22 -44 -51 -51 -66 -8 -14 -27
-38 -42 -54 -16 -15 -29 -32 -29 -39 0 -6 -11 -25 -25 -41 -14 -17 -25 -33
-25 -37 0 -9 -59 -94 -89 -127 -13 -15 -47 -40 -75 -54 -48 -25 -50 -25 -64
-8 -13 18 -14 17 -10 -8 4 -20 0 -29 -11 -32 -40 -11 -87 -20 -98 -18 -6 2
-14 -2 -18 -8 -3 -5 -26 -10 -49 -10 -27 0 -48 -6 -56 -15 -7 -8 -29 -15 -49
-15 l-36 0 33 20 c18 11 46 20 62 20 17 0 39 9 50 20 15 15 27 19 47 14 22 -6
25 -4 20 10 -5 11 -1 16 12 16 10 0 30 9 44 20 14 11 30 20 35 20 5 0 12 7 16
15 3 8 12 15 20 15 7 0 16 7 20 15 3 8 12 15 21 15 8 0 15 7 15 15 0 15 -26
21 -32 8 -5 -13 -91 -69 -143 -93 -27 -14 -57 -29 -65 -35 -39 -30 -290 -95
-362 -95 -21 0 -38 -4 -38 -10 0 -15 272 -11 360 5 112 20 170 36 170 45 0 5
13 11 29 15 31 7 93 36 115 54 9 8 18 7 31 -3 16 -11 17 -17 7 -29 -19 -22
-150 -281 -183 -360 -15 -37 -37 -80 -47 -95 -11 -15 -25 -45 -32 -67 -7 -22
-19 -54 -26 -71 -64 -150 -82 -500 -31 -614 l20 -45 9 60 c10 66 2 149 -13
140 -9 -6 -12 55 -9 210 2 114 34 239 75 295 14 19 25 38 25 44 0 17 34 86 42
86 4 0 8 9 8 20 0 11 5 20 10 20 6 0 14 8 17 18 5 14 69 102 108 149 6 6 24
28 40 49 17 20 37 44 45 53 19 21 50 68 50 77 0 3 -9 4 -20 1 -11 -3 -26 1
-34 8 -10 10 -16 11 -25 2 -16 -16 -14 4 5 42 9 18 22 35 30 38 8 3 14 11 14
19 0 14 19 53 30 64 3 3 22 30 43 60 115 171 126 185 146 182 17 -3 21 2 21
22 0 30 56 109 88 125 12 6 22 15 22 21 0 6 11 21 25 34 24 22 33 60 17 70 -4
2 -23 -8 -42 -24z m-410 -694 c0 -16 -18 -31 -27 -22 -8 8 5 36 17 36 5 0 10
-6 10 -14z m-30 -46 c0 -5 -4 -10 -10 -10 -5 0 -10 5 -10 10 0 6 5 10 10 10 6
0 10 -4 10 -10z m-293 -1042 c-3 -7 -5 -2 -5 12 0 14 2 19 5 13 2 -7 2 -19 0
-25z"/>
<path d="M3751 6884 c0 -11 3 -14 6 -6 3 7 2 16 -1 19 -3 4 -6 -2 -5 -13z"/>
<path d="M1740 6840 c0 -5 5 -10 10 -10 6 0 10 5 10 10 0 6 -4 10 -10 10 -5 0
-10 -4 -10 -10z"/>
<path d="M3215 6820 c-4 -6 -3 -16 3 -22 6 -6 12 -6 17 2 4 6 3 16 -3 22 -6 6
-12 6 -17 -2z"/>
<path d="M3450 6805 c0 -20 22 -65 32 -65 4 0 8 -9 8 -20 0 -11 7 -23 15 -26
8 -4 15 -16 15 -28 0 -12 4 -26 10 -32 5 -5 11 -22 12 -37 1 -15 6 -27 10 -27
4 0 8 -9 8 -19 0 -11 5 -23 10 -26 6 -3 10 -16 10 -27 0 -25 17 -83 33 -113 6
-11 14 -40 18 -65 5 -25 13 -67 19 -95 7 -27 14 -75 17 -105 2 -30 9 -59 14
-64 5 -6 9 -75 9 -154 0 -106 3 -141 12 -136 8 5 9 0 4 -17 -16 -51 -18 -70
-12 -95 l7 -27 22 22 c20 20 22 31 23 189 1 101 -2 157 -7 142 -6 -16 -7 7 -5
63 2 48 0 87 -4 87 -5 0 -11 -8 -13 -17 -3 -10 -5 -4 -6 14 0 17 4 35 10 39 7
4 7 9 2 13 -16 11 -42 88 -44 133 -1 23 -10 61 -21 82 -10 22 -18 46 -18 55 0
18 -18 77 -35 111 -6 14 -18 44 -25 68 -7 23 -17 42 -22 42 -4 0 -8 11 -8 24
0 14 -4 28 -10 31 -5 3 -10 17 -10 31 0 16 -4 23 -11 18 -7 -4 -10 -1 -7 7 6
16 -20 38 -44 39 -10 0 -18 -7 -18 -15z"/>
<path d="M3250 6756 c0 -8 7 -16 15 -20 13 -4 14 -2 5 14 -13 23 -20 26 -20 6z"/>
<path d="M3972 6738 c5 -15 28 -18 29 -3 0 6 -7 12 -17 13 -10 3 -15 -1 -12
-10z"/>
<path d="M3280 6711 c0 -5 7 -11 15 -15 8 -3 15 -1 15 3 0 5 -7 11 -15 15 -8
3 -15 1 -15 -3z"/>
<path d="M1660 6675 c-7 -9 -8 -15 -2 -15 5 0 12 7 16 15 3 8 4 15 2 15 -2 0
-9 -7 -16 -15z"/>
<path d="M3590 6675 c0 -8 2 -15 4 -15 2 0 6 7 10 15 3 8 1 15 -4 15 -6 0 -10
-7 -10 -15z"/>
<path d="M3440 6665 c0 -8 4 -15 10 -15 5 0 7 7 4 15 -4 8 -8 15 -10 15 -2 0
-4 -7 -4 -15z"/>
<path d="M3455 6629 c-10 -15 3 -25 16 -12 7 7 7 13 1 17 -6 3 -14 1 -17 -5z"/>
<path d="M4093 6579 c-1 -17 2 -27 7 -24 12 7 13 42 3 48 -5 3 -9 -8 -10 -24z"/>
<path d="M3085 6590 c-3 -5 -1 -10 4 -10 6 0 11 5 11 10 0 6 -2 10 -4 10 -3 0
-8 -4 -11 -10z"/>
<path d="M2916 6581 c-4 -7 -5 -15 -2 -18 9 -9 19 4 14 18 -4 11 -6 11 -12 0z"/>
<path d="M1350 6567 c-8 -7 -26 -26 -40 -42 l-25 -29 42 30 c24 16 43 35 43
42 0 15 -1 15 -20 -1z"/>
<path d="M3085 6510 c-3 -5 -1 -10 4 -10 6 0 11 5 11 10 0 6 -2 10 -4 10 -3 0
-8 -4 -11 -10z"/>
<path d="M3285 6510 c-3 -5 1 -10 9 -10 9 0 16 5 16 10 0 6 -4 10 -9 10 -6 0
-13 -4 -16 -10z"/>
<path d="M3545 6510 c-3 -5 -1 -10 4 -10 6 0 11 5 11 10 0 6 -2 10 -4 10 -3 0
-8 -4 -11 -10z"/>
<path d="M1335 6490 c3 -5 8 -10 11 -10 2 0 4 5 4 10 0 6 -5 10 -11 10 -5 0
-7 -4 -4 -10z"/>
<path d="M2495 6470 c-3 -5 -1 -10 4 -10 6 0 11 5 11 10 0 6 -2 10 -4 10 -3 0
-8 -4 -11 -10z"/>
<path d="M3442 6400 c0 -14 2 -19 5 -12 2 6 2 18 0 25 -3 6 -5 1 -5 -13z"/>
<path d="M5316 6371 c-4 -5 -2 -12 3 -15 5 -4 12 -2 15 3 4 5 2 12 -3 15 -5 4
-12 2 -15 -3z"/>
<path d="M4382 6250 c0 -14 2 -19 5 -12 2 6 2 18 0 25 -3 6 -5 1 -5 -13z"/>
<path d="M4051 6194 c0 -11 3 -14 6 -6 3 7 2 16 -1 19 -3 4 -6 -2 -5 -13z"/>
<path d="M4390 6190 c0 -5 7 -10 16 -10 8 0 12 5 9 10 -3 6 -10 10 -16 10 -5
0 -9 -4 -9 -10z"/>
<path d="M2331 6164 c0 -11 3 -14 6 -6 3 7 2 16 -1 19 -3 4 -6 -2 -5 -13z"/>
<path d="M5456 6127 c3 -23 8 -76 11 -117 3 -41 11 -82 18 -90 8 -9 13 -50 13
-108 1 -51 6 -112 13 -134 6 -22 10 -77 9 -122 -2 -89 21 -213 34 -181 4 10 4
55 1 99 -15 204 -26 337 -35 401 -5 39 -14 115 -21 171 -9 78 -16 104 -30 112
-17 11 -18 8 -13 -31z"/>
<path d="M2940 6076 c0 -9 5 -16 10 -16 6 0 10 4 10 9 0 6 -4 13 -10 16 -5 3
-10 -1 -10 -9z"/>
<path d="M4130 6036 c0 -9 5 -16 10 -16 6 0 10 4 10 9 0 6 -4 13 -10 16 -5 3
-10 -1 -10 -9z"/>
<path d="M5325 6030 c3 -5 8 -10 11 -10 2 0 4 5 4 10 0 6 -5 10 -11 10 -5 0
-7 -4 -4 -10z"/>
<path d="M4851 5984 c0 -11 3 -14 6 -6 3 7 2 16 -1 19 -3 4 -6 -2 -5 -13z"/>
<path d="M3551 5954 c0 -11 3 -14 6 -6 3 7 2 16 -1 19 -3 4 -6 -2 -5 -13z"/>
<path d="M1301 5876 c-7 -8 -8 -17 -3 -20 6 -3 12 3 15 14 6 24 4 25 -12 6z"/>
<path d="M3180 5850 c0 -5 5 -10 10 -10 6 0 10 5 10 10 0 6 -4 10 -10 10 -5 0
-10 -4 -10 -10z"/>
<path d="M3577 5853 c-4 -3 -7 -11 -7 -17 0 -6 5 -5 12 2 6 6 9 14 7 17 -3 3
-9 2 -12 -2z"/>
<path d="M3811 5810 c0 -33 1 -34 11 -12 8 17 8 26 0 34 -9 9 -12 4 -11 -22z"/>
<path d="M1156 5814 c-9 -24 -7 -28 9 -14 17 14 20 30 6 30 -5 0 -12 -7 -15
-16z"/>
<path d="M4721 5814 c0 -11 3 -14 6 -6 3 7 2 16 -1 19 -3 4 -6 -2 -5 -13z"/>
<path d="M6793 5804 c-7 -3 -13 -13 -13 -21 0 -13 9 -14 53 -9 65 8 164 -22
316 -95 56 -28 105 -48 107 -46 19 19 -90 98 -196 143 -52 22 -83 28 -160 31
-52 1 -101 0 -107 -3z"/>
<path d="M1115 5750 c-10 -30 5 -47 22 -25 7 11 13 25 13 32 0 21 -28 15 -35
-7z"/>
<path d="M3220 5750 c0 -5 5 -10 11 -10 5 0 7 5 4 10 -3 6 -8 10 -11 10 -2 0
-4 -4 -4 -10z"/>
<path d="M4820 5730 c0 -5 5 -10 10 -10 6 0 10 5 10 10 0 6 -4 10 -10 10 -5 0
-10 -4 -10 -10z"/>
<path d="M1086 5641 c-4 -7 -5 -15 -2 -18 9 -9 19 4 14 18 -4 11 -6 11 -12 0z"/>
<path d="M1057 5593 c-3 -5 -2 -15 2 -22 7 -10 10 -10 16 -1 4 6 3 16 -3 22
-5 5 -12 6 -15 1z"/>
<path d="M3400 5568 c0 -16 5 -28 10 -28 13 0 13 20 0 40 -8 12 -10 9 -10 -12z"/>
<path d="M7290 5571 c0 -10 11 -43 23 -72 13 -30 40 -103 60 -164 20 -60 82
-245 137 -410 113 -342 121 -365 132 -365 11 0 10 44 -1 72 -5 13 -60 178
-121 368 -62 190 -116 354 -120 365 -4 11 -16 43 -25 70 -32 91 -57 144 -71
149 -9 3 -14 -1 -14 -13z"/>
<path d="M1042 5520 c-16 -27 -15 -50 3 -50 10 0 15 11 15 35 0 41 -1 42 -18
15z"/>
<path d="M1531 5490 c0 -33 1 -34 11 -12 8 17 8 26 0 34 -9 9 -12 4 -11 -22z"/>
<path d="M6460 5505 c-7 -9 -11 -18 -8 -20 3 -3 11 1 18 10 7 9 11 18 8 20 -3
3 -11 -1 -18 -10z"/>
<path d="M3441 5474 c0 -11 3 -14 6 -6 3 7 2 16 -1 19 -3 4 -6 -2 -5 -13z"/>
<path d="M6409 5453 c-13 -16 -12 -17 4 -4 16 13 21 21 13 21 -2 0 -10 -8 -17
-17z"/>
<path d="M1023 5438 c-18 -40 -27 -144 -14 -152 7 -5 11 1 11 14 0 12 5 30 11
41 5 11 9 43 7 72 -3 49 -4 51 -15 25z"/>
<path d="M4051 5354 c0 -11 3 -14 6 -6 3 7 2 16 -1 19 -3 4 -6 -2 -5 -13z"/>
<path d="M4087 5323 c-4 -6 0 -16 8 -23 21 -17 28 -8 11 15 -8 11 -15 14 -19
8z"/>
<path d="M6220 5258 c-12 -22 -12 -22 6 -6 10 10 15 20 12 24 -4 3 -12 -5 -18
-18z"/>
<path d="M6850 5251 c0 -11 5 -23 10 -26 6 -4 10 5 10 19 0 14 -4 26 -10 26
-5 0 -10 -9 -10 -19z"/>
<path d="M6870 5167 c0 -25 5 -49 10 -52 6 -3 10 -18 10 -32 0 -28 14 -76 37
-130 7 -17 13 -36 13 -42 0 -6 4 -11 9 -11 5 0 12 -10 15 -22 8 -28 34 -63 41
-56 3 3 -13 48 -36 99 -23 52 -53 136 -65 188 -13 51 -25 96 -28 99 -3 3 -6
-15 -6 -41z"/>
<path d="M1380 5151 c0 -6 4 -13 10 -16 6 -3 7 1 4 9 -7 18 -14 21 -14 7z"/>
<path d="M6065 5100 c-27 -30 -12 -34 15 -5 13 14 19 25 13 25 -5 0 -18 -9
-28 -20z"/>
<path d="M6020 5050 c0 -5 5 -10 10 -10 6 0 10 5 10 10 0 6 -4 10 -10 10 -5 0
-10 -4 -10 -10z"/>
<path d="M6997 4998 c3 -24 14 -70 24 -102 11 -33 19 -65 19 -73 0 -7 7 -13
15 -13 16 0 21 25 6 34 -5 3 -12 23 -15 43 -12 66 -38 153 -46 153 -5 0 -6
-19 -3 -42z"/>
<path d="M5110 5014 c0 -8 5 -12 10 -9 6 3 10 10 10 16 0 5 -4 9 -10 9 -5 0
-10 -7 -10 -16z"/>
<path d="M5952 4978 c-15 -15 -16 -28 -2 -28 6 0 10 6 10 14 0 8 6 17 13 19 6
3 7 6 2 6 -6 1 -16 -4 -23 -11z"/>
<path d="M5356 4834 c-5 -12 -2 -15 10 -10 8 3 20 6 25 6 5 0 9 5 9 10 0 16
-37 11 -44 -6z"/>
<path d="M7060 4733 c0 -33 31 -123 42 -123 13 0 9 48 -8 101 -18 54 -34 64
-34 22z"/>
<path d="M5440 4740 c0 -5 5 -10 11 -10 5 0 7 5 4 10 -3 6 -8 10 -11 10 -2 0
-4 -4 -4 -10z"/>
<path d="M7214 4536 c-6 -15 21 -128 37 -158 5 -10 9 -27 9 -38 0 -11 4 -28
10 -38 5 -9 23 -60 40 -112 17 -52 37 -108 45 -125 8 -16 22 -50 33 -75 75
-175 92 -210 102 -210 6 0 10 6 10 13 0 15 -37 109 -79 202 -15 33 -34 76 -41
95 -7 19 -17 39 -22 44 -4 6 -8 19 -8 31 0 12 -4 25 -9 31 -15 16 -101 291
-101 323 0 32 -16 42 -26 17z"/>
<path d="M6135 4510 c3 -5 24 -10 46 -10 24 0 38 4 34 10 -3 6 -24 10 -46 10
-24 0 -38 -4 -34 -10z"/>
<path d="M7650 4426 c0 -9 24 -63 54 -120 30 -57 59 -112 64 -122 9 -18 23
-50 41 -96 4 -13 20 -48 34 -78 13 -30 35 -82 47 -115 12 -33 26 -69 30 -80
22 -54 49 -133 54 -157 4 -16 11 -28 16 -28 6 0 10 -8 10 -17 0 -19 18 -79 31
-105 5 -10 9 -25 9 -34 0 -8 11 -48 24 -87 13 -40 26 -81 29 -92 2 -11 5 1 6
28 0 26 -3 47 -7 47 -4 0 -8 10 -9 23 -2 28 -24 99 -35 112 -4 5 -8 19 -8 32
0 13 -4 31 -10 41 -5 9 -21 51 -34 92 -13 41 -30 89 -36 105 -27 67 -33 81
-40 100 -4 11 -12 31 -18 45 -5 14 -27 68 -48 120 -32 83 -114 258 -166 356
-20 38 -38 52 -38 30z"/>
<path d="M823 4323 c-20 -7 -15 -23 7 -23 11 0 35 -9 55 -20 40 -22 55 -25 55
-10 0 6 -7 10 -15 10 -8 0 -15 4 -15 9 0 5 -15 15 -32 22 -18 7 -35 14 -38 15
-3 1 -11 0 -17 -3z"/>
<path d="M637 4173 c-4 -3 -7 -11 -7 -17 0 -6 5 -5 12 2 6 6 9 14 7 17 -3 3
-9 2 -12 -2z"/>
<path d="M600 4139 c0 -5 5 -7 10 -4 6 3 10 8 10 11 0 2 -4 4 -10 4 -5 0 -10
-5 -10 -11z"/>
<path d="M6047 4101 c11 -43 137 -137 167 -125 20 8 20 9 -1 41 l-17 26 89 -6
90 -6 -59 20 c-72 25 -152 23 -150 -3 3 -29 -19 -21 -69 27 -27 25 -50 45 -52
45 -2 0 -1 -9 2 -19z"/>
<path d="M555 4100 c-3 -5 -1 -10 4 -10 6 0 11 5 11 10 0 6 -2 10 -4 10 -3 0
-8 -4 -11 -10z"/>
<path d="M770 4055 c0 -8 5 -15 10 -15 6 0 10 -9 10 -20 0 -11 -6 -20 -14 -20
-7 0 -51 -20 -97 -44 -98 -51 -135 -62 -155 -45 -19 15 -28 6 -19 -20 8 -25
55 -30 55 -6 0 8 6 12 13 9 8 -3 56 16 108 42 52 25 104 51 116 56 12 6 35 8
52 5 24 -5 29 -3 24 8 -3 8 -9 15 -15 15 -5 0 -24 11 -42 25 -38 29 -46 31
-46 10z"/>
<path d="M480 4049 c0 -5 5 -7 10 -4 6 3 10 8 10 11 0 2 -4 4 -10 4 -5 0 -10
-5 -10 -11z"/>
<path d="M7320 4048 c0 -6 9 -39 19 -72 11 -34 24 -74 29 -90 12 -44 36 -48
28 -5 -18 90 -76 218 -76 167z"/>
<path d="M403 3925 c0 -22 2 -30 4 -17 2 12 2 30 0 40 -3 9 -5 -1 -4 -23z"/>
<path d="M381 3854 c0 -11 3 -14 6 -6 3 7 2 16 -1 19 -3 4 -6 -2 -5 -13z"/>
<path d="M444 3848 c-10 -13 -12 -17 -4 -10 8 6 24 12 37 12 13 0 23 5 23 10
0 18 -37 10 -56 -12z"/>
<path d="M5762 3762 c-11 -7 -10 -10 3 -16 26 -10 115 -7 115 4 0 6 -15 10
-32 10 -18 0 -42 3 -53 5 -11 3 -26 1 -33 -3z"/>
<path d="M272 3665 c0 -16 2 -22 5 -12 2 9 2 23 0 30 -3 6 -5 -1 -5 -18z"/>
<path d="M5610 3640 c0 -5 16 -10 35 -10 19 0 35 5 35 10 0 6 -16 10 -35 10
-19 0 -35 -4 -35 -10z"/>
<path d="M6476 3622 c-2 -4 -1 -14 5 -22 7 -12 9 -10 9 8 0 23 -5 28 -14 14z"/>
<path d="M253 3585 c0 -22 2 -30 4 -17 2 12 2 30 0 40 -3 9 -5 -1 -4 -23z"/>
<path d="M375 3591 c4 -15 0 -20 -17 -23 -13 -2 -22 -7 -20 -13 4 -12 36 -7
40 6 2 5 15 9 28 9 13 0 24 4 24 8 0 14 -24 32 -43 32 -14 0 -17 -5 -12 -19z"/>
<path d="M6482 3463 c-2 -121 -2 -122 -30 -140 -57 -38 -68 -44 -94 -56 -24
-10 -38 -27 -23 -27 10 0 110 55 116 64 11 15 39 -2 39 -23 0 -11 5 -23 12
-27 8 -5 9 13 3 72 -4 43 -11 120 -15 169 l-6 90 -2 -122z"/>
<path d="M298 3533 c7 -3 16 -2 19 1 4 3 -2 6 -13 5 -11 0 -14 -3 -6 -6z"/>
<path d="M207 3463 c-11 -10 -8 -43 3 -43 6 0 10 11 10 25 0 26 -2 29 -13 18z"/>
<path d="M186 3387 c-5 -15 -6 -31 -2 -34 11 -11 18 5 14 34 l-4 28 -8 -28z"/>
<path d="M420 3360 c0 -5 6 -10 14 -10 8 0 18 5 21 10 3 6 -3 10 -14 10 -12 0
-21 -4 -21 -10z"/>
<path d="M385 3340 c-3 -5 -15 -10 -26 -10 -10 0 -19 -4 -19 -10 0 -5 4 -10 8
-10 15 0 62 25 62 33 0 10 -18 9 -25 -3z"/>
<path d="M161 3314 c0 -11 3 -14 6 -6 3 7 2 16 -1 19 -3 4 -6 -2 -5 -13z"/>
<path d="M200 3321 c0 -26 32 -41 73 -35 52 8 60 14 21 14 -16 1 -40 7 -54 15
-30 17 -40 18 -40 6z"/>
<path d="M141 3274 c0 -11 3 -14 6 -6 3 7 2 16 -1 19 -3 4 -6 -2 -5 -13z"/>
<path d="M115 3205 c-5 -39 -2 -56 19 -99 24 -50 61 -94 70 -85 3 2 -12 30
-32 62 -27 45 -36 71 -38 108 -2 65 -10 71 -19 14z"/>
<path d="M6726 2950 c4 -52 11 -98 16 -101 5 -3 22 -45 39 -94 50 -146 122
-270 171 -296 22 -12 22 -12 6 12 -25 35 -108 181 -108 188 0 4 -11 29 -24 57
-13 27 -32 83 -42 124 -10 41 -24 82 -31 91 -7 8 -13 31 -13 50 0 19 -5 41
-11 49 -7 10 -8 -14 -3 -80z"/>
<path d="M6310 2969 c0 -5 5 -7 10 -4 6 3 10 8 10 11 0 2 -4 4 -10 4 -5 0 -10
-5 -10 -11z"/>
<path d="M7947 2887 c5 -24 8 -32 52 -129 22 -49 28 -76 24 -101 -3 -20 -1
-37 6 -41 14 -9 15 -36 1 -36 -5 0 -10 7 -10 15 0 8 -4 15 -10 15 -5 0 -10 7
-10 15 0 8 -3 15 -8 15 -4 0 -12 9 -17 19 -6 10 -27 47 -47 81 -21 33 -38 70
-38 81 0 10 -4 19 -10 19 -5 0 -10 11 -10 24 0 31 -17 43 -25 17 -10 -32 91
-227 170 -326 13 -16 17 -17 24 -6 8 12 11 12 23 0 8 -8 18 -23 23 -34 7 -18
8 -19 12 -2 3 10 0 31 -6 48 -6 18 -6 27 -1 24 6 -4 10 7 10 24 0 16 -3 31 -7
33 -5 2 -20 28 -36 58 -15 30 -34 66 -41 80 -8 14 -22 46 -32 72 -17 48 -46
75 -37 35z"/>
<path d="M211 2704 c0 -11 3 -14 6 -6 3 7 2 16 -1 19 -3 4 -6 -2 -5 -13z"/>
<path d="M6526 2684 c-9 -33 -9 -259 0 -315 4 -24 13 -69 22 -99 8 -30 17 -72
19 -93 3 -20 9 -40 14 -43 5 -3 9 -16 9 -29 0 -13 5 -27 10 -30 6 -3 10 -16
11 -28 0 -12 9 -35 20 -52 10 -16 26 -47 35 -67 9 -21 22 -38 29 -38 15 0 25
-21 26 -58 l1 -27 7 29 c3 16 11 31 18 33 12 4 16 0 63 -61 17 -21 30 -34 30
-29 0 6 -9 22 -20 36 -11 14 -20 30 -20 36 0 6 -3 11 -7 11 -5 0 -19 19 -33
41 -20 33 -29 40 -52 37 -24 -2 -31 4 -53 47 -14 28 -25 55 -25 60 1 8 -19 73
-58 195 -6 19 -6 22 -21 155 -7 61 -11 156 -9 213 3 99 -3 129 -16 76z"/>
<path d="M161 2594 c0 -11 3 -14 6 -6 3 7 2 16 -1 19 -3 4 -6 -2 -5 -13z"/>
<path d="M1560 2600 c0 -5 -9 -10 -20 -10 -11 0 -20 -4 -20 -10 0 -5 15 -9 33
-8 17 1 39 -2 48 -6 12 -5 18 -1 22 13 2 11 2 22 -1 25 -9 10 -62 6 -62 -4z"/>
<path d="M870 2560 c-14 -4 -96 -8 -183 -9 -86 -1 -165 -5 -175 -10 -9 -5 -59
-22 -109 -38 -51 -15 -93 -32 -93 -36 0 -14 89 -1 181 26 70 20 116 26 253 31
92 3 177 11 188 17 14 8 23 8 27 1 6 -11 87 -42 109 -42 32 0 6 20 -45 36 -32
9 -62 21 -67 26 -12 10 -52 9 -86 -2z"/>
<path d="M141 2544 c0 -11 3 -14 6 -6 3 7 2 16 -1 19 -3 4 -6 -2 -5 -13z"/>
<path d="M121 2504 c0 -11 3 -14 6 -6 3 7 2 16 -1 19 -3 4 -6 -2 -5 -13z"/>
<path d="M1630 2486 c0 -7 7 -27 15 -42 8 -16 15 -39 15 -51 0 -12 5 -25 10
-28 6 -3 10 -21 10 -38 0 -18 7 -41 15 -51 15 -19 15 -19 15 2 0 12 -4 22 -9
22 -4 0 -11 34 -14 76 -3 43 -12 86 -22 100 -17 26 -35 32 -35 10z"/>
<path d="M66 2414 c-4 -11 -1 -14 11 -12 9 2 18 9 21 16 6 18 -25 15 -32 -4z"/>
<path d="M0 2405 c0 -9 6 -12 15 -9 8 4 15 7 15 9 0 2 -7 5 -15 9 -9 3 -15 0
-15 -9z"/>
<path d="M224 2405 c-4 -10 -15 -12 -34 -9 -32 7 -50 -12 -20 -21 11 -3 20
-13 20 -20 0 -16 60 -65 79 -65 6 0 22 -7 36 -16 19 -12 28 -13 45 -4 18 9 24
8 34 -5 15 -21 163 -28 282 -13 65 7 96 6 160 -7 43 -9 91 -19 107 -22 16 -3
27 -1 27 6 0 6 -4 11 -10 11 -5 0 -10 14 -10 31 0 26 -3 30 -20 26 -10 -3 -20
-1 -22 4 -2 5 -61 11 -133 13 -71 3 -122 3 -112 0 9 -3 17 -13 17 -21 0 -13
-9 -15 -57 -9 -67 8 -71 11 -55 36 11 18 9 20 -13 20 -33 0 -41 -22 -19 -55
l17 -27 -49 5 c-27 3 -51 6 -53 6 -2 1 4 10 14 21 21 24 17 26 -73 35 -87 9
-110 21 -118 62 -6 34 -30 45 -40 18z"/>
<path d="M1492 2362 c13 -16 24 -25 26 -21 4 9 -29 49 -41 49 -5 0 2 -13 15
-28z"/>
<path d="M130 2335 c-7 -8 -19 -15 -26 -15 -8 0 -14 -10 -14 -25 0 -31 -20
-40 -60 -27 l-30 11 0 -1130 c0 -621 2 -1129 4 -1129 2 0 25 26 51 57 26 32
93 107 149 168 56 60 122 133 147 160 24 28 46 52 49 55 3 3 43 50 90 105 84
99 99 115 111 115 7 0 79 -138 79 -152 0 -10 73 -133 147 -246 61 -93 172
-216 216 -238 52 -27 201 -18 269 17 10 5 23 9 30 9 16 1 164 85 210 120 18
14 53 43 78 66 25 23 53 45 63 51 16 8 3 25 -105 134 -82 83 -140 133 -173
149 -27 14 -52 27 -55 30 -3 3 -24 14 -47 25 -34 16 -49 32 -70 73 -15 30 -35
60 -45 66 -11 8 -16 20 -13 29 4 8 -6 57 -20 108 -49 171 -80 350 -71 410 5
33 1 40 -102 146 -105 109 -216 193 -255 193 -10 0 -32 11 -49 25 -16 14 -38
25 -48 25 -10 0 -21 4 -24 9 -3 4 -19 11 -36 14 -17 4 -56 18 -88 33 -31 15
-64 27 -72 28 -18 2 -90 52 -171 118 -41 34 -61 59 -68 84 -10 36 -2 76 18 89
18 10 13 35 -7 35 -18 0 -38 32 -65 105 -14 37 -13 44 3 78 20 40 20 46 0 22z"/>
<path d="M6850 2321 c0 -11 5 -23 10 -26 6 -3 10 -21 10 -38 0 -37 24 -110 45
-141 17 -24 19 -15 6 28 -6 17 -15 58 -21 91 -13 65 -29 105 -42 105 -4 0 -8
-9 -8 -19z"/>
<path d="M1030 2245 c7 -8 22 -15 34 -15 21 1 21 1 2 15 -27 21 -53 20 -36 0z"/>
<path d="M1110 2200 c0 -11 -4 -20 -10 -20 -5 0 -10 -4 -10 -10 0 -6 28 -10
65 -10 72 0 112 -15 179 -69 43 -34 56 -38 56 -17 0 8 -27 35 -59 60 -52 40
-66 46 -108 46 -32 0 -56 7 -73 20 -32 25 -40 25 -40 0z"/>
<path d="M255 2087 c11 -9 28 -17 37 -17 9 0 19 -6 21 -12 4 -8 6 -9 6 -2 1
16 -19 31 -54 39 -29 7 -29 7 -10 -8z"/>
<path d="M7805 2077 c-4 -9 -5 -25 -2 -35 2 -9 14 -52 26 -95 24 -87 59 -161
105 -222 30 -40 103 -115 111 -115 13 0 1 20 -40 63 -79 85 -135 198 -175 352
-13 49 -20 65 -25 52z"/>
<path d="M370 2046 c14 -8 45 -15 70 -15 55 0 29 14 -46 24 -47 6 -48 5 -24
-9z"/>
<path d="M496 2033 c-11 -11 -6 -23 9 -23 8 0 15 4 15 9 0 13 -16 22 -24 14z"/>
<path d="M615 2011 c-3 -6 -4 -15 -1 -19 8 -14 167 -89 216 -103 57 -16 206
-84 215 -98 3 -6 17 -11 31 -11 17 0 24 5 24 20 0 11 4 20 10 20 12 0 42 70
36 86 -5 12 -55 28 -63 20 -5 -5 3 -30 22 -78 5 -13 2 -18 -9 -18 -9 0 -19 8
-22 18 -3 9 -10 25 -15 35 -7 13 -7 23 1 32 7 8 9 19 5 24 -8 14 -67 29 -140
36 -58 6 -223 30 -277 41 -14 3 -29 0 -33 -5z"/>
<path d="M6794 1620 c6 -175 57 -451 89 -485 9 -10 0 51 -11 69 -3 6 -7 19 -8
30 -4 29 -21 149 -33 225 -5 35 -13 111 -17 170 -10 166 -26 159 -20 -9z"/>
<path d="M6690 1392 c0 -5 -10 -21 -22 -35 -47 -54 -69 -87 -60 -87 6 0 25 18
42 40 17 22 38 40 46 40 8 0 14 7 14 15 0 8 0 18 1 22 0 4 -4 9 -10 11 -6 2
-11 -1 -11 -6z"/>
<path d="M7173 1208 c6 -152 -5 -194 -35 -128 -9 21 -18 28 -30 24 -10 -3 -19
2 -23 15 -3 10 -13 22 -21 25 -8 3 -13 2 -11 -2 67 -125 101 -212 101 -259 0
-29 -3 -55 -7 -59 -10 -10 -42 21 -95 93 -70 96 -82 78 -15 -22 18 -27 33 -61
33 -75 0 -14 9 -43 20 -65 11 -22 20 -45 20 -52 0 -7 4 -13 8 -13 5 0 19 -30
32 -66 12 -36 41 -93 62 -125 33 -48 38 -62 28 -74 -10 -12 -8 -25 6 -65 14
-39 15 -53 6 -62 -9 -9 -12 -9 -12 1 0 7 -9 24 -20 38 l-20 26 0 -27 c0 -25
12 -53 36 -86 17 -22 26 -70 14 -70 -5 0 -10 -13 -10 -30 0 -23 -5 -30 -19
-30 -24 0 -103 85 -120 130 -25 66 -28 75 -45 113 -9 21 -16 44 -16 52 0 8 -4
15 -9 15 -12 0 -21 -52 -14 -79 3 -12 1 -21 -6 -21 -6 0 -11 13 -11 29 0 17
-4 33 -10 36 -6 4 -10 -13 -10 -45 0 -36 4 -52 15 -56 11 -5 14 -19 12 -60 -2
-30 0 -57 5 -60 15 -10 8 -24 -12 -24 -11 0 -20 -4 -20 -10 0 -5 5 -10 11 -10
24 0 35 -26 32 -78 -2 -32 0 -52 7 -52 10 0 12 34 14 212 1 42 3 79 6 82 3 3
13 -9 22 -27 71 -145 73 -149 113 -167 40 -19 40 -19 58 1 9 12 17 34 17 50 0
16 5 29 10 29 6 0 10 9 10 20 0 30 11 24 52 -29 41 -53 134 -121 166 -121 13
0 22 9 26 26 5 20 11 24 29 18 12 -3 36 -20 53 -36 20 -18 39 -28 50 -25 18 4
18 4 2 11 -10 5 -36 26 -59 47 -48 45 -64 48 -90 14 -28 -34 -47 -26 -133 61
-65 65 -96 123 -96 181 0 24 -5 53 -10 64 -13 24 7 26 36 4 26 -20 49 -19 51
3 1 12 -7 17 -27 18 -32 1 -92 52 -95 81 -1 10 -12 36 -26 58 -25 41 -99 189
-99 199 0 3 13 6 29 6 26 0 30 4 36 41 4 22 13 43 20 46 10 3 11 12 6 26 -12
33 -13 160 -2 188 9 23 10 23 10 2 1 -12 8 -28 16 -37 8 -8 15 -22 15 -30 0
-9 4 -24 9 -34 5 -9 13 -28 19 -42 22 -57 58 -127 79 -156 13 -17 23 -35 23
-40 1 -10 46 -64 54 -64 6 0 -26 59 -53 100 -17 25 -87 168 -101 205 -4 11
-12 31 -18 45 -6 14 -13 36 -16 50 -17 86 -48 206 -57 219 -7 11 -9 -16 -6
-91z"/>
<path d="M6690 1285 c0 -8 -4 -15 -9 -15 -14 0 -41 -59 -30 -66 5 -3 9 0 9 5
0 6 8 11 19 11 27 0 40 21 34 53 -6 28 -23 38 -23 12z"/>
<path d="M6890 1101 c0 -6 5 -13 10 -16 6 -3 10 1 10 9 0 9 -4 16 -10 16 -5 0
-10 -4 -10 -9z"/>
<path d="M6920 1031 c0 -11 5 -23 10 -26 12 -7 12 -81 0 -110 l-8 -20 -6 20
c-4 11 -14 33 -22 49 -10 20 -11 32 -4 41 8 9 4 17 -14 28 -23 16 -24 15 -28
-14 -3 -18 1 -34 10 -41 10 -9 12 -23 8 -50 -5 -29 -3 -38 8 -38 8 0 19 -6 23
-13 4 -8 16 -16 26 -20 9 -3 17 -16 17 -27 0 -13 4 -18 11 -14 13 8 3 208 -12
236 -13 23 -19 23 -19 -1z"/>
<path d="M6454 990 c2 -24 0 -63 -6 -85 -7 -28 -7 -48 1 -67 16 -43 47 -36 79
17 15 25 33 45 39 45 8 0 13 15 13 40 0 22 -2 40 -3 40 -2 0 -16 -25 -32 -55
-43 -86 -79 -73 -71 28 2 30 -2 53 -11 64 -13 16 -14 13 -9 -27z"/>
<path d="M7480 1005 c0 -14 5 -25 10 -25 6 0 10 11 10 25 0 14 -4 25 -10 25
-5 0 -10 -11 -10 -25z"/>
<path d="M7505 940 c3 -5 8 -10 11 -10 2 0 4 5 4 10 0 6 -5 10 -11 10 -5 0 -7
-4 -4 -10z"/>
<path d="M6770 893 c0 -30 29 -63 55 -63 8 0 15 7 15 15 0 8 -6 15 -14 15 -8
0 -17 9 -21 19 -3 11 -12 25 -20 31 -13 10 -15 8 -15 -17z"/>
<path d="M7520 900 c0 -11 4 -20 9 -20 5 0 11 -10 14 -22 4 -12 9 -19 13 -15
6 6 -22 77 -31 77 -3 0 -5 -9 -5 -20z"/>
<path d="M6417 811 c-4 -17 -3 -21 5 -13 5 5 8 16 6 23 -3 8 -7 3 -11 -10z"/>
<path d="M7570 807 c0 -9 5 -17 10 -17 6 0 11 -10 11 -22 1 -17 3 -18 6 -6 2
10 -3 28 -11 40 -13 18 -16 19 -16 5z"/>
<path d="M7501 729 c13 -24 27 -46 30 -49 3 -3 14 -19 23 -37 17 -33 34 -49
43 -40 5 6 -51 105 -66 117 -3 3 -11 14 -17 24 -6 11 -16 22 -24 24 -8 3 -4
-12 11 -39z"/>
<path d="M7766 748 c-14 -8 -16 -17 -11 -46 4 -21 10 -39 14 -42 4 -3 24 -30
44 -60 52 -78 84 -116 92 -108 4 4 -2 20 -14 36 -12 17 -21 34 -21 39 0 5 -9
16 -20 26 -24 20 -26 45 -5 53 21 8 19 18 -11 63 -29 45 -43 53 -68 39z"/>
<path d="M6960 692 c0 -30 4 -52 11 -52 7 0 8 16 3 48 -9 64 -14 66 -14 4z"/>
<path d="M7610 730 c0 -5 5 -10 10 -10 6 0 10 5 10 10 0 6 -4 10 -10 10 -5 0
-10 -4 -10 -10z"/>
<path d="M7630 694 c0 -8 5 -12 10 -9 6 4 8 11 5 16 -9 14 -15 11 -15 -7z"/>
<path d="M7650 663 c0 -20 58 -105 64 -95 3 6 -1 15 -9 22 -8 7 -15 18 -15 24
-1 15 -40 64 -40 49z"/>
<path d="M6981 594 c0 -11 3 -14 6 -6 3 7 2 16 -1 19 -3 4 -6 -2 -5 -13z"/>
<path d="M6980 561 c0 -6 5 -13 10 -16 6 -3 10 1 10 9 0 9 -4 16 -10 16 -5 0
-10 -4 -10 -9z"/>
<path d="M7784 536 c9 -38 -14 -44 -41 -10 -29 37 -30 15 0 -31 12 -19 30 -35
40 -35 14 0 17 9 17 50 0 30 -4 50 -11 50 -7 0 -9 -10 -5 -24z"/>
<path d="M2226 509 c-3 -13 -15 -73 -26 -134 -12 -60 -25 -119 -30 -130 -5
-11 -11 -36 -14 -55 -3 -19 -8 -51 -11 -70 -6 -33 -5 -34 9 -16 9 11 16 29 16
40 0 11 4 33 9 50 5 17 14 54 20 81 5 28 20 92 32 143 15 67 19 96 11 104 -8
8 -12 4 -16 -13z"/>
<path d="M6342 485 c-7 -14 -12 -34 -12 -43 1 -16 1 -16 11 1 5 9 16 17 24 17
21 0 28 19 15 35 -17 21 -25 19 -38 -10z"/>
<path d="M7000 493 c0 -5 5 -15 10 -23 8 -12 10 -11 10 8 0 12 -4 22 -10 22
-5 0 -10 -3 -10 -7z"/>
<path d="M6390 430 c0 -5 5 -10 10 -10 6 0 10 5 10 10 0 6 -4 10 -10 10 -5 0
-10 -4 -10 -10z"/>
<path d="M7440 431 c0 -6 18 -23 40 -37 31 -21 44 -24 52 -16 9 9 8 12 -3 12
-8 0 -31 11 -52 25 -20 14 -37 21 -37 16z"/>
<path d="M7421 404 c0 -11 3 -14 6 -6 3 7 2 16 -1 19 -3 4 -6 -2 -5 -13z"/>
<path d="M7441 354 c0 -11 3 -14 6 -6 3 7 2 16 -1 19 -3 4 -6 -2 -5 -13z"/>
<path d="M7545 360 c3 -5 13 -10 21 -10 8 0 14 5 14 10 0 6 -9 10 -21 10 -11
0 -17 -4 -14 -10z"/>
<path d="M7608 343 c7 -3 16 -2 19 1 4 3 -2 6 -13 5 -11 0 -14 -3 -6 -6z"/>
<path d="M7460 320 c0 -5 5 -10 11 -10 5 0 7 5 4 10 -3 6 -8 10 -11 10 -2 0
-4 -4 -4 -10z"/>
<path d="M7501 258 c13 -18 26 -35 29 -38 3 -3 19 -22 34 -43 31 -40 123 -113
133 -104 6 7 -16 31 -33 38 -15 5 -94 77 -94 85 0 4 -10 17 -22 28 -13 12 -30
32 -38 44 -8 12 -18 22 -23 22 -5 0 2 -15 14 -32z"/>
<path d="M6960 115 c0 -22 -36 -59 -49 -50 -7 3 -11 -2 -11 -14 0 -12 7 -21
15 -21 8 0 15 5 15 10 0 6 9 10 20 10 17 0 20 7 20 40 0 22 -2 40 -5 40 -3 0
-5 -7 -5 -15z"/>
<path d="M7771 113 c24 -30 52 -52 97 -75 23 -12 42 -25 42 -30 0 -11 37 -10
45 1 3 5 -7 16 -22 23 -48 25 -77 42 -114 71 -43 31 -69 37 -48 10z"/>
<path d="M1924 58 c1 -41 3 -43 27 -40 15 2 30 -1 33 -7 4 -6 12 -11 18 -11 6
0 1 11 -12 25 -12 13 -28 34 -34 46 -19 39 -34 33 -32 -13z"/>
<path d="M7287 84 c-8 -8 3 -34 14 -34 11 0 12 27 0 34 -4 3 -11 3 -14 0z"/>
<path d="M2131 54 c0 -11 3 -14 6 -6 3 7 2 16 -1 19 -3 4 -6 -2 -5 -13z"/>
<path d="M7710 66 c0 -9 64 -36 84 -35 15 1 11 4 -11 10 -18 5 -35 14 -38 19
-6 10 -35 14 -35 6z"/>
<path d="M7296 23 c-11 -11 -6 -23 9 -23 8 0 15 4 15 9 0 13 -16 22 -24 14z"/>
<path d="M7693 13 c9 -2 25 -2 35 0 9 3 1 5 -18 5 -19 0 -27 -2 -17 -5z"/>
</g>
</svg>
